<?xml version="1.0" encoding="UTF-8"?>
<svg width="280px" height="410px" viewBox="0 0 280 410" version="1.1" xmlns="http://www.w3.org/2000/svg" xmlns:xlink="http://www.w3.org/1999/xlink">
    <!-- Generator: Sketch 53 (72520) - https://sketchapp.com -->
    <title>transfer-window/complete/default</title>
    <desc>Created with Sketch.</desc>
    <defs>
        <rect id="path-1" x="0" y="0" width="280" height="410" rx="10"></rect>
        <filter x="-17.9%" y="-9.8%" width="135.7%" height="124.4%" filterUnits="objectBoundingBox" id="filter-3">
            <feOffset dx="0" dy="10" in="SourceAlpha" result="shadowOffsetOuter1"></feOffset>
            <feGaussianBlur stdDeviation="15" in="shadowOffsetOuter1" result="shadowBlurOuter1"></feGaussianBlur>
            <feColorMatrix values="0 0 0 0 0   0 0 0 0 0   0 0 0 0 0  0 0 0 0.2 0" type="matrix" in="shadowBlurOuter1" result="shadowMatrixOuter1"></feColorMatrix>
            <feOffset dx="0" dy="0" in="SourceAlpha" result="shadowOffsetOuter2"></feOffset>
            <feGaussianBlur stdDeviation="6" in="shadowOffsetOuter2" result="shadowBlurOuter2"></feGaussianBlur>
            <feColorMatrix values="0 0 0 0 0   0 0 0 0 0   0 0 0 0 0  0 0 0 0.1 0" type="matrix" in="shadowBlurOuter2" result="shadowMatrixOuter2"></feColorMatrix>
            <feMerge>
                <feMergeNode in="shadowMatrixOuter1"></feMergeNode>
                <feMergeNode in="shadowMatrixOuter2"></feMergeNode>
            </feMerge>
        </filter>
        <rect id="path-4" x="0" y="0" width="260" height="42"></rect>
        <filter x="-0.2%" y="-1.2%" width="100.4%" height="102.4%" filterUnits="objectBoundingBox" id="filter-5">
            <feOffset dx="0" dy="-1" in="SourceAlpha" result="shadowOffsetInner1"></feOffset>
            <feComposite in="shadowOffsetInner1" in2="SourceAlpha" operator="arithmetic" k2="-1" k3="1" result="shadowInnerInner1"></feComposite>
            <feColorMatrix values="0 0 0 0 0.8245   0 0 0 0 0.8372   0 0 0 0 0.85  0 0 0 1 0" type="matrix" in="shadowInnerInner1"></feColorMatrix>
        </filter>
        <rect id="path-6" x="0" y="0" width="260" height="39"></rect>
        <filter x="-0.2%" y="-1.3%" width="100.4%" height="102.6%" filterUnits="objectBoundingBox" id="filter-7">
            <feOffset dx="0" dy="-1" in="SourceAlpha" result="shadowOffsetInner1"></feOffset>
            <feComposite in="shadowOffsetInner1" in2="SourceAlpha" operator="arithmetic" k2="-1" k3="1" result="shadowInnerInner1"></feComposite>
            <feColorMatrix values="0 0 0 0 0.8245   0 0 0 0 0.8372   0 0 0 0 0.85  0 0 0 1 0" type="matrix" in="shadowInnerInner1"></feColorMatrix>
        </filter>
        <rect id="path-8" x="0" y="0" width="280" height="73"></rect>
        <filter x="-0.2%" y="-0.7%" width="100.4%" height="101.4%" filterUnits="objectBoundingBox" id="filter-9">
            <feOffset dx="0" dy="1" in="SourceAlpha" result="shadowOffsetInner1"></feOffset>
            <feComposite in="shadowOffsetInner1" in2="SourceAlpha" operator="arithmetic" k2="-1" k3="1" result="shadowInnerInner1"></feComposite>
            <feColorMatrix values="0 0 0 0 0.8314   0 0 0 0 0.8431   0 0 0 0 0.851  0 0 0 1 0" type="matrix" in="shadowInnerInner1"></feColorMatrix>
        </filter>
        <rect id="path-10" x="0" y="0" width="280" height="166"></rect>
        <filter x="-0.2%" y="-0.3%" width="100.4%" height="100.6%" filterUnits="objectBoundingBox" id="filter-12">
            <feOffset dx="0" dy="-1" in="SourceAlpha" result="shadowOffsetInner1"></feOffset>
            <feComposite in="shadowOffsetInner1" in2="SourceAlpha" operator="arithmetic" k2="-1" k3="1" result="shadowInnerInner1"></feComposite>
            <feColorMatrix values="0 0 0 0 0.8245   0 0 0 0 0.8372   0 0 0 0 0.85  0 0 0 1 0" type="matrix" in="shadowInnerInner1"></feColorMatrix>
        </filter>
    </defs>
    <g id="transfer-window/complete/default" stroke="none" stroke-width="1" fill="none" fill-rule="evenodd">
        <mask id="mask-2" fill="white">
            <use xlink:href="#path-1"></use>
        </mask>
        <g id="BG">
            <use fill="black" fill-opacity="1" filter="url(#filter-3)" xlink:href="#path-1"></use>
            <use fill="#FFFFFF" fill-rule="evenodd" xlink:href="#path-1"></use>
        </g>
        <g id="message" mask="url(#mask-2)">
            <g transform="translate(10.000000, 258.000000)">
                <rect id="bg" fill-opacity="0" fill="#D8D8D8" fill-rule="evenodd" x="0" y="0" width="260" height="80"></rect>
                <path d="M11.232,21.368 L12.8,21.368 L16.342,29.264 L16.37,29.264 L19.856,21.368 L21.424,21.368 L21.424,31 L20.136,31 L20.248,23.384 L20.192,23.384 L16.832,31 L15.824,31 L12.464,23.552 L12.408,23.552 L12.52,31 L11.232,31 L11.232,21.368 Z M23.216,27.584 C23.216,27.0519973 23.2976659,26.5666689 23.461,26.128 C23.6243342,25.6893311 23.8529985,25.3113349 24.147,24.994 C24.4410015,24.6766651 24.783998,24.4316675 25.176,24.259 C25.568002,24.0863325 25.997331,24 26.464,24 C26.9120022,24 27.3203315,24.0723326 27.689,24.217 C28.0576685,24.3616674 28.3749987,24.5739986 28.641,24.854 C28.9070013,25.1340014 29.1146659,25.4746647 29.264,25.876 C29.4133341,26.2773353 29.488,26.7346641 29.488,27.248 L29.488,27.752 L24.504,27.752 C24.5320001,28.4706703 24.7256649,29.0423312 25.085,29.467 C25.4443351,29.8916688 25.9226637,30.104 26.52,30.104 C27.0240025,30.104 27.411332,29.9850012 27.682,29.747 C27.952668,29.5089988 28.125333,29.2360015 28.2,28.928 L29.432,28.928 C29.3853331,29.2360015 29.2826675,29.525332 29.124,29.796 C28.9653325,30.066668 28.7600013,30.3023323 28.508,30.503 C28.2559987,30.7036677 27.9620017,30.8646661 27.626,30.986 C27.2899983,31.1073339 26.9213353,31.168 26.52,31.168 C25.9879973,31.168 25.5166687,31.0840008 25.106,30.916 C24.6953313,30.7479992 24.3500014,30.5076682 24.07,30.195 C23.7899986,29.8823318 23.5776674,29.5066689 23.433,29.068 C23.2883326,28.6293311 23.216,28.1346694 23.216,27.584 Z M26.464,25.064 C25.997331,25.064 25.5936684,25.2179985 25.253,25.526 C24.9123316,25.8340015 24.6860006,26.2679972 24.574,26.828 L28.228,26.828 C28.1719997,26.2119969 27.9923348,25.7640014 27.689,25.484 C27.3856652,25.2039986 26.9773359,25.064 26.464,25.064 Z M31.728,28.984 C31.728,29.1986677 31.7723329,29.3853325 31.861,29.544 C31.9496671,29.7026675 32.0686659,29.8309995 32.218,29.929 C32.3673341,30.0270005 32.5376657,30.0993331 32.729,30.146 C32.9203343,30.1926669 33.1186656,30.216 33.324,30.216 C33.8840028,30.216 34.2899987,30.1250009 34.542,29.943 C34.7940013,29.7609991 34.92,29.4786686 34.92,29.096 C34.92,28.825332 34.8406675,28.622334 34.682,28.487 C34.5233325,28.351666 34.2666684,28.2513337 33.912,28.186 L32.624,27.962 C32.4093323,27.9246665 32.1876678,27.868667 31.959,27.794 C31.7303322,27.719333 31.5226676,27.614334 31.336,27.479 C31.1493324,27.343666 30.9953339,27.1663344 30.874,26.947 C30.7526661,26.7276656 30.692,26.4546683 30.692,26.128 C30.692,25.7919983 30.759666,25.4933346 30.895,25.232 C31.030334,24.9706654 31.2169988,24.7490009 31.455,24.567 C31.6930012,24.3849991 31.9729984,24.2450005 32.295,24.147 C32.6170016,24.0489995 32.9693314,24 33.352,24 C33.7160018,24 34.0566651,24.0419996 34.374,24.126 C34.6913349,24.2100004 34.9689988,24.3406658 35.207,24.518 C35.4450012,24.6953342 35.6339993,24.9169987 35.774,25.183 C35.9140007,25.4490013 35.984,25.7639982 35.984,26.128 L34.808,26.128 C34.808,25.7639982 34.6773346,25.477001 34.416,25.267 C34.1546654,25.056999 33.8000022,24.952 33.352,24.952 C32.9319979,24.952 32.5843347,25.0406658 32.309,25.218 C32.0336653,25.3953342 31.896,25.6613316 31.896,26.016 C31.896,26.2680013 31.9799992,26.4639993 32.148,26.604 C32.3160008,26.7440007 32.6053313,26.851333 33.016,26.926 L34.304,27.15 C34.5466679,27.1966669 34.7799989,27.2596663 35.004,27.339 C35.2280011,27.4183337 35.4239992,27.5303326 35.592,27.675 C35.7600008,27.8196674 35.8953328,28.0039989 35.998,28.228 C36.1006672,28.4520011 36.152,28.7226651 36.152,29.04 C36.152,29.7586703 35.8953359,30.2929983 35.382,30.643 C34.8686641,30.9930018 34.1920042,31.168 33.352,31.168 C32.4746623,31.168 31.7886691,30.9790019 31.294,30.601 C30.7993309,30.2229981 30.552,29.6840035 30.552,28.984 L31.728,28.984 Z M38.504,28.984 C38.504,29.1986677 38.5483329,29.3853325 38.637,29.544 C38.7256671,29.7026675 38.8446659,29.8309995 38.994,29.929 C39.1433341,30.0270005 39.3136657,30.0993331 39.505,30.146 C39.6963343,30.1926669 39.8946656,30.216 40.1,30.216 C40.6600028,30.216 41.0659987,30.1250009 41.318,29.943 C41.5700013,29.7609991 41.696,29.4786686 41.696,29.096 C41.696,28.825332 41.6166675,28.622334 41.458,28.487 C41.2993325,28.351666 41.0426684,28.2513337 40.688,28.186 L39.4,27.962 C39.1853323,27.9246665 38.9636678,27.868667 38.735,27.794 C38.5063322,27.719333 38.2986676,27.614334 38.112,27.479 C37.9253324,27.343666 37.7713339,27.1663344 37.65,26.947 C37.5286661,26.7276656 37.468,26.4546683 37.468,26.128 C37.468,25.7919983 37.535666,25.4933346 37.671,25.232 C37.806334,24.9706654 37.9929988,24.7490009 38.231,24.567 C38.4690012,24.3849991 38.7489984,24.2450005 39.071,24.147 C39.3930016,24.0489995 39.7453314,24 40.128,24 C40.4920018,24 40.8326651,24.0419996 41.15,24.126 C41.4673349,24.2100004 41.7449988,24.3406658 41.983,24.518 C42.2210012,24.6953342 42.4099993,24.9169987 42.55,25.183 C42.6900007,25.4490013 42.76,25.7639982 42.76,26.128 L41.584,26.128 C41.584,25.7639982 41.4533346,25.477001 41.192,25.267 C40.9306654,25.056999 40.5760022,24.952 40.128,24.952 C39.7079979,24.952 39.3603347,25.0406658 39.085,25.218 C38.8096653,25.3953342 38.672,25.6613316 38.672,26.016 C38.672,26.2680013 38.7559992,26.4639993 38.924,26.604 C39.0920008,26.7440007 39.3813313,26.851333 39.792,26.926 L41.08,27.15 C41.3226679,27.1966669 41.5559989,27.2596663 41.78,27.339 C42.0040011,27.4183337 42.1999992,27.5303326 42.368,27.675 C42.5360008,27.8196674 42.6713328,28.0039989 42.774,28.228 C42.8766672,28.4520011 42.928,28.7226651 42.928,29.04 C42.928,29.7586703 42.6713359,30.2929983 42.158,30.643 C41.6446641,30.9930018 40.9680042,31.168 40.128,31.168 C39.2506623,31.168 38.5646691,30.9790019 38.07,30.601 C37.5753309,30.2229981 37.328,29.6840035 37.328,28.984 L38.504,28.984 Z M44.216,29.18 C44.216,28.5826637 44.3863316,28.1206683 44.727,27.794 C45.0676684,27.4673317 45.6253295,27.2386673 46.4,27.108 L47.8,26.884 C47.9773342,26.8559999 48.1243327,26.8280001 48.241,26.8 C48.3576672,26.7719999 48.4509996,26.7393335 48.521,26.702 C48.5910004,26.6646665 48.6376665,26.615667 48.661,26.555 C48.6843334,26.494333 48.696,26.4080006 48.696,26.296 C48.696,25.9413316 48.5746679,25.6380013 48.332,25.386 C48.0893321,25.1339987 47.7253358,25.008 47.24,25.008 C46.7359975,25.008 46.3556679,25.1269988 46.099,25.365 C45.842332,25.6030012 45.7000001,25.9133314 45.672,26.296 L44.496,26.296 C44.5053334,25.9786651 44.5753327,25.6800014 44.706,25.4 C44.8366673,25.1199986 45.0163322,24.8750011 45.245,24.665 C45.4736678,24.454999 45.7559983,24.2916673 46.092,24.175 C46.4280017,24.0583327 46.8106645,24 47.24,24 C48.1453379,24 48.8196644,24.2216644 49.263,24.665 C49.7063355,25.1083355 49.928,25.7266627 49.928,26.52 L49.928,31 L48.752,31 L48.752,29.908 L48.696,29.908 C48.5279992,30.2626684 48.2526686,30.5519989 47.87,30.776 C47.4873314,31.0000011 47.0160028,31.112 46.456,31.112 C45.7839966,31.112 45.2426687,30.9416684 44.832,30.601 C44.4213313,30.2603316 44.216,29.7866697 44.216,29.18 Z M48.696,27.43 C48.5653327,27.5886675 48.3226684,27.6959997 47.968,27.752 L46.68,27.976 C46.2599979,28.050667 45.9496677,28.1696659 45.749,28.333 C45.5483323,28.4963342 45.448,28.7413317 45.448,29.068 C45.448,29.3666682 45.5483323,29.613999 45.749,29.81 C45.9496677,30.006001 46.2413314,30.104 46.624,30.104 C46.8853346,30.104 47.1419987,30.0620004 47.394,29.978 C47.6460013,29.8939996 47.8676657,29.7680008 48.059,29.6 C48.2503343,29.4319992 48.4043328,29.2220013 48.521,28.97 C48.6376673,28.7179987 48.696,28.4240017 48.696,28.088 L48.696,27.43 Z M52.784,31.84 C52.784,32.2600021 52.9589982,32.5889988 53.309,32.827 C53.6590018,33.0650012 54.0999973,33.184 54.632,33.184 C54.9306682,33.184 55.2129987,33.1420004 55.479,33.058 C55.7450013,32.9739996 55.975999,32.834001 56.172,32.638 C56.368001,32.441999 56.5243327,32.1830016 56.641,31.861 C56.7576672,31.5389984 56.816,31.1400024 56.816,30.664 L56.816,29.936 L56.76,29.936 C56.5359989,30.3840022 56.2163354,30.7013324 55.801,30.888 C55.3856646,31.0746676 54.9400024,31.168 54.464,31.168 C54.0253311,31.168 53.6216685,31.0886675 53.253,30.93 C52.8843315,30.7713325 52.5670013,30.5426682 52.301,30.244 C52.0349987,29.9453318 51.8250008,29.5766689 51.671,29.138 C51.5169992,28.6993311 51.44,28.2000028 51.44,27.64 C51.44,27.0799972 51.5216658,26.5760022 51.685,26.128 C51.8483341,25.6799978 52.0723319,25.2973349 52.357,24.98 C52.6416681,24.6626651 52.9729981,24.4200008 53.351,24.252 C53.7290019,24.0839992 54.1373311,24 54.576,24 C55.0520024,24 55.4789981,24.0933324 55.857,24.28 C56.2350019,24.4666676 56.5359989,24.7839978 56.76,25.232 L56.816,25.232 L56.816,24.168 L57.992,24.168 L57.992,30.664 C57.992,31.3080032 57.9033342,31.8539978 57.726,32.302 C57.5486658,32.7500022 57.3060015,33.1139986 56.998,33.394 C56.6899985,33.6740014 56.333002,33.8769994 55.927,34.003 C55.520998,34.1290006 55.0893356,34.192 54.632,34.192 C54.2026645,34.192 53.8036685,34.1406672 53.435,34.038 C53.0663315,33.9353328 52.746668,33.786001 52.476,33.59 C52.205332,33.393999 51.9930008,33.1490015 51.839,32.855 C51.6849992,32.5609985 51.608,32.2226686 51.608,31.84 L52.784,31.84 Z M52.728,27.64 C52.728,28.0506687 52.7793328,28.4076651 52.882,28.711 C52.9846672,29.0143349 53.1269991,29.2709989 53.309,29.481 C53.4910009,29.6910011 53.7056654,29.8473328 53.953,29.95 C54.2003346,30.0526672 54.4639986,30.104 54.744,30.104 C55.0240014,30.104 55.2853321,30.0480006 55.528,29.936 C55.7706679,29.8239994 55.9829991,29.663001 56.165,29.453 C56.3470009,29.242999 56.4916661,28.9816682 56.599,28.669 C56.7063339,28.3563318 56.76,27.9946687 56.76,27.584 C56.76,27.1826647 56.7063339,26.8233349 56.599,26.506 C56.4916661,26.1886651 56.3470009,25.925001 56.165,25.715 C55.9829991,25.504999 55.7706679,25.3440006 55.528,25.232 C55.2853321,25.1199994 55.0240014,25.064 54.744,25.064 C54.4639986,25.064 54.2003346,25.1223327 53.953,25.239 C53.7056654,25.3556673 53.4910009,25.5236656 53.309,25.743 C53.1269991,25.9623344 52.9846672,26.2329984 52.882,26.555 C52.7793328,26.8770016 52.728,27.2386647 52.728,27.64 Z M59.616,27.584 C59.616,27.0519973 59.6976658,26.5666689 59.861,26.128 C60.0243341,25.6893311 60.2529985,25.3113349 60.547,24.994 C60.8410015,24.6766651 61.183998,24.4316675 61.576,24.259 C61.968002,24.0863325 62.397331,24 62.864,24 C63.3120022,24 63.7203315,24.0723326 64.089,24.217 C64.4576685,24.3616674 64.7749987,24.5739986 65.041,24.854 C65.3070013,25.1340014 65.5146659,25.4746647 65.664,25.876 C65.8133341,26.2773353 65.888,26.7346641 65.888,27.248 L65.888,27.752 L60.904,27.752 C60.9320001,28.4706703 61.1256649,29.0423312 61.485,29.467 C61.8443351,29.8916688 62.3226637,30.104 62.92,30.104 C63.4240025,30.104 63.811332,29.9850012 64.082,29.747 C64.352668,29.5089988 64.525333,29.2360015 64.6,28.928 L65.832,28.928 C65.7853331,29.2360015 65.6826675,29.525332 65.524,29.796 C65.3653325,30.066668 65.1600013,30.3023323 64.908,30.503 C64.6559987,30.7036677 64.3620017,30.8646661 64.026,30.986 C63.6899983,31.1073339 63.3213353,31.168 62.92,31.168 C62.3879973,31.168 61.9166687,31.0840008 61.506,30.916 C61.0953313,30.7479992 60.7500014,30.5076682 60.47,30.195 C60.1899986,29.8823318 59.9776674,29.5066689 59.833,29.068 C59.6883326,28.6293311 59.616,28.1346694 59.616,27.584 Z M62.864,25.064 C62.397331,25.064 61.9936684,25.2179985 61.653,25.526 C61.3123316,25.8340015 61.0860006,26.2679972 60.974,26.828 L64.628,26.828 C64.5719997,26.2119969 64.3923348,25.7640014 64.089,25.484 C63.7856652,25.2039986 63.3773359,25.064 62.864,25.064 Z" id="Message" fill="#6A6D70" fill-rule="nonzero"></path>
            </g>
        </g>
        <g id="your-email" mask="url(#mask-2)">
            <g transform="translate(10.000000, 217.000000)">
                <g id="Rectangle-3-Copy-2" fill="none">
                    <use fill-opacity="0" fill="#D8D8D8" fill-rule="evenodd" xlink:href="#path-4"></use>
                    <use fill="black" fill-opacity="1" filter="url(#filter-5)" xlink:href="#path-4"></use>
                </g>
                <path d="M14.584,21.22 L11.168,15.368 L12.624,15.368 L15.228,19.904 L15.284,19.904 L18,15.368 L19.344,15.368 L15.872,21.122 L15.872,25 L14.584,25 L14.584,21.22 Z M20.072,21.584 C20.072,21.042664 20.1559992,20.5503355 20.324,20.107 C20.4920008,19.6636644 20.7229985,19.2856682 21.017,18.973 C21.3110015,18.6603318 21.6633313,18.4200008 22.074,18.252 C22.4846687,18.0839992 22.9373309,18 23.432,18 C23.9453359,18 24.4096646,18.0839992 24.825,18.252 C25.2403354,18.4200008 25.5949985,18.6603318 25.889,18.973 C26.1830015,19.2856682 26.4069992,19.6636644 26.561,20.107 C26.7150008,20.5503355 26.792,21.042664 26.792,21.584 C26.792,22.1346694 26.7080008,22.6293311 26.54,23.068 C26.3719992,23.5066689 26.1410015,23.8823318 25.847,24.195 C25.5529985,24.5076682 25.1983354,24.7479992 24.783,24.916 C24.3676646,25.0840008 23.9173358,25.168 23.432,25.168 C22.9093307,25.168 22.4426687,25.0840008 22.032,24.916 C21.6213313,24.7479992 21.2690015,24.5076682 20.975,24.195 C20.6809985,23.8823318 20.4570008,23.5066689 20.303,23.068 C20.1489992,22.6293311 20.072,22.1346694 20.072,21.584 Z M21.36,21.584 C21.36,21.9666686 21.4089995,22.3119985 21.507,22.62 C21.6050005,22.9280015 21.7449991,23.1916656 21.927,23.411 C22.1090009,23.6303344 22.3283321,23.8006661 22.585,23.922 C22.841668,24.0433339 23.1239985,24.104 23.432,24.104 C23.7400015,24.104 24.0199987,24.0433339 24.272,23.922 C24.5240013,23.8006661 24.7409991,23.6303344 24.923,23.411 C25.1050009,23.1916656 25.2473328,22.9280015 25.35,22.62 C25.4526672,22.3119985 25.504,21.9666686 25.504,21.584 C25.504,20.7906627 25.3126686,20.1723355 24.93,19.729 C24.5473314,19.2856644 24.0480031,19.064 23.432,19.064 C23.1239985,19.064 22.841668,19.1246661 22.585,19.246 C22.3283321,19.3673339 22.1090009,19.5376656 21.927,19.757 C21.7449991,19.9763344 21.6050005,20.2423318 21.507,20.555 C21.4089995,20.8676682 21.36,21.2106648 21.36,21.584 Z M28.304,18.168 L29.536,18.168 L29.536,22.144 C29.536,22.8720036 29.6783319,23.3806652 29.963,23.67 C30.2476681,23.9593348 30.6279976,24.104 31.104,24.104 C31.6360027,24.104 32.067665,23.8846689 32.399,23.446 C32.730335,23.0073311 32.896,22.4240036 32.896,21.696 L32.896,18.168 L34.128,18.168 L34.128,25 L32.952,25 L32.952,23.992 L32.896,23.992 C32.503998,24.7760039 31.8133383,25.168 30.824,25.168 C30.4879983,25.168 30.1683349,25.1190005 29.865,25.021 C29.5616651,24.9229995 29.2933345,24.7620011 29.06,24.538 C28.8266655,24.3139989 28.642334,24.0200018 28.507,23.656 C28.371666,23.2919982 28.304,22.8440027 28.304,22.312 L28.304,18.168 Z M36.256,18.168 L37.432,18.168 L37.432,19.162 L37.474,19.162 C37.6420008,18.7979982 37.8753318,18.5133344 38.174,18.308 C38.4726682,18.1026656 38.8413311,18 39.28,18 C39.4200007,18 39.5693325,18.0163332 39.728,18.049 C39.8866675,18.0816668 40.0546658,18.1586661 40.232,18.28 L39.84,19.4 C39.5413318,19.2506659 39.2613346,19.176 39,19.176 C38.7479987,19.176 38.5263343,19.2366661 38.335,19.358 C38.1436657,19.4793339 37.9850006,19.644999 37.859,19.855 C37.7329994,20.065001 37.639667,20.305332 37.579,20.576 C37.518333,20.846668 37.488,21.1313318 37.488,21.43 L37.488,25 L36.256,25 L36.256,18.168 Z M43.872,21.584 C43.872,21.0519973 43.9536659,20.5666689 44.117,20.128 C44.2803342,19.6893311 44.5089985,19.3113349 44.803,18.994 C45.0970015,18.6766651 45.439998,18.4316675 45.832,18.259 C46.224002,18.0863325 46.653331,18 47.12,18 C47.5680022,18 47.9763315,18.0723326 48.345,18.217 C48.7136685,18.3616674 49.0309987,18.5739986 49.297,18.854 C49.5630013,19.1340014 49.7706659,19.4746647 49.92,19.876 C50.0693341,20.2773353 50.144,20.7346641 50.144,21.248 L50.144,21.752 L45.16,21.752 C45.1880001,22.4706703 45.3816649,23.0423312 45.741,23.467 C46.1003351,23.8916688 46.5786637,24.104 47.176,24.104 C47.6800025,24.104 48.067332,23.9850012 48.338,23.747 C48.608668,23.5089988 48.781333,23.2360015 48.856,22.928 L50.088,22.928 C50.0413331,23.2360015 49.9386675,23.525332 49.78,23.796 C49.6213325,24.066668 49.4160013,24.3023323 49.164,24.503 C48.9119987,24.7036677 48.6180017,24.8646661 48.282,24.986 C47.9459983,25.1073339 47.5773353,25.168 47.176,25.168 C46.6439973,25.168 46.1726687,25.0840008 45.762,24.916 C45.3513313,24.7479992 45.0060014,24.5076682 44.726,24.195 C44.4459986,23.8823318 44.2336674,23.5066689 44.089,23.068 C43.9443326,22.6293311 43.872,22.1346694 43.872,21.584 Z M47.12,19.064 C46.653331,19.064 46.2496684,19.2179985 45.909,19.526 C45.5683316,19.8340015 45.3420006,20.2679972 45.23,20.828 L48.884,20.828 C48.8279997,20.2119969 48.6483348,19.7640014 48.345,19.484 C48.0416652,19.2039986 47.6333359,19.064 47.12,19.064 Z M51.712,18.168 L52.888,18.168 L52.888,19.176 L52.944,19.176 C53.140001,18.783998 53.4153316,18.490001 53.77,18.294 C54.1246684,18.097999 54.5399976,18 55.016,18 C55.482669,18 55.9073314,18.1073323 56.29,18.322 C56.6726686,18.5366677 56.9573324,18.8913309 57.144,19.386 C57.3773345,18.9006642 57.6806648,18.5483344 58.054,18.329 C58.4273352,18.1096656 58.8893306,18 59.44,18 C59.7573349,18 60.0606652,18.0489995 60.35,18.147 C60.6393348,18.2450005 60.888999,18.4013323 61.099,18.616 C61.309001,18.8306677 61.4769994,19.1129983 61.603,19.463 C61.7290006,19.8130017 61.792,20.2399975 61.792,20.744 L61.792,25 L60.56,25 L60.56,20.912 C60.56,20.2399966 60.4456678,19.7640014 60.217,19.484 C59.9883322,19.2039986 59.6360024,19.064 59.16,19.064 C58.9173321,19.064 58.6863344,19.1199994 58.467,19.232 C58.2476656,19.3440006 58.0563341,19.5026656 57.893,19.708 C57.7296658,19.9133344 57.6013338,20.1629985 57.508,20.457 C57.4146662,20.7510015 57.368,21.0799982 57.368,21.444 L57.368,25 L56.136,25 L56.136,20.912 C56.136,20.2399966 56.0146679,19.7640014 55.772,19.484 C55.5293321,19.2039986 55.1840022,19.064 54.736,19.064 C54.4933321,19.064 54.2623344,19.1199994 54.043,19.232 C53.8236656,19.3440006 53.6323341,19.5026656 53.469,19.708 C53.3056658,19.9133344 53.1773338,20.1629985 53.084,20.457 C52.9906662,20.7510015 52.944,21.0846648 52.944,21.458 L52.944,25 L51.712,25 L51.712,18.168 Z M63.416,23.18 C63.416,22.5826637 63.5863316,22.1206683 63.927,21.794 C64.2676684,21.4673317 64.8253295,21.2386673 65.6,21.108 L67,20.884 C67.1773342,20.8559999 67.3243327,20.8280001 67.441,20.8 C67.5576672,20.7719999 67.6509997,20.7393335 67.721,20.702 C67.7910004,20.6646665 67.8376665,20.615667 67.861,20.555 C67.8843334,20.494333 67.896,20.4080006 67.896,20.296 C67.896,19.9413316 67.7746679,19.6380013 67.532,19.386 C67.2893321,19.1339987 66.9253358,19.008 66.44,19.008 C65.9359975,19.008 65.555668,19.1269988 65.299,19.365 C65.042332,19.6030012 64.9000001,19.9133314 64.872,20.296 L63.696,20.296 C63.7053334,19.9786651 63.7753327,19.6800014 63.906,19.4 C64.0366673,19.1199986 64.2163322,18.8750011 64.445,18.665 C64.6736678,18.454999 64.9559983,18.2916672 65.292,18.175 C65.6280017,18.0583327 66.0106645,18 66.44,18 C67.3453379,18 68.0196645,18.2216644 68.463,18.665 C68.9063355,19.1083355 69.128,19.7266627 69.128,20.52 L69.128,25 L67.952,25 L67.952,23.908 L67.896,23.908 C67.7279992,24.2626684 67.4526686,24.5519989 67.07,24.776 C66.6873314,25.0000011 66.2160028,25.112 65.656,25.112 C64.9839966,25.112 64.4426687,24.9416684 64.032,24.601 C63.6213313,24.2603316 63.416,23.7866697 63.416,23.18 Z M67.896,21.43 C67.7653327,21.5886675 67.5226684,21.6959997 67.168,21.752 L65.88,21.976 C65.4599979,22.050667 65.1496677,22.1696659 64.949,22.333 C64.7483323,22.4963341 64.648,22.7413317 64.648,23.068 C64.648,23.3666682 64.7483323,23.613999 64.949,23.81 C65.1496677,24.006001 65.4413314,24.104 65.824,24.104 C66.0853346,24.104 66.3419987,24.0620004 66.594,23.978 C66.8460013,23.8939996 67.0676657,23.7680008 67.259,23.6 C67.4503343,23.4319992 67.6043327,23.2220013 67.721,22.97 C67.8376672,22.7179987 67.896,22.4240017 67.896,22.088 L67.896,21.43 Z M71.088,14.752 L72.432,14.752 L72.432,16.152 L71.088,16.152 L71.088,14.752 Z M71.144,18.168 L72.376,18.168 L72.376,25 L71.144,25 L71.144,18.168 Z M74.504,14.752 L75.736,14.752 L75.736,25 L74.504,25 L74.504,14.752 Z" id="Youremail" fill="#6A6D70" fill-rule="nonzero"></path>
            </g>
        </g>
        <g id="friends-email" mask="url(#mask-2)">
            <g transform="translate(10.000000, 175.000000)">
                <g id="Rectangle-3" fill="none">
                    <use fill-opacity="0" fill="#D8D8D8" fill-rule="evenodd" xlink:href="#path-6"></use>
                    <use fill="black" fill-opacity="1" filter="url(#filter-7)" xlink:href="#path-6"></use>
                </g>
                <path d="M12.232,10.368 L18.728,10.368 L18.728,11.488 L13.52,11.488 L13.52,14.54 L17.664,14.54 L17.664,15.66 L13.52,15.66 L13.52,18.88 L18.84,18.88 L18.84,20 L12.232,20 L12.232,10.368 Z M20.632,13.168 L21.808,13.168 L21.808,14.176 L21.864,14.176 C22.060001,13.783998 22.3353316,13.490001 22.69,13.294 C23.0446684,13.097999 23.4599976,13 23.936,13 C24.402669,13 24.8273314,13.1073323 25.21,13.322 C25.5926686,13.5366677 25.8773324,13.8913309 26.064,14.386 C26.2973345,13.9006642 26.6006648,13.5483344 26.974,13.329 C27.3473352,13.1096656 27.8093306,13 28.36,13 C28.6773349,13 28.9806652,13.0489995 29.27,13.147 C29.5593348,13.2450005 29.8089989,13.4013323 30.019,13.616 C30.2290011,13.8306677 30.3969994,14.1129983 30.523,14.463 C30.6490006,14.8130017 30.712,15.2399975 30.712,15.744 L30.712,20 L29.48,20 L29.48,15.912 C29.48,15.2399966 29.3656678,14.7640014 29.137,14.484 C28.9083322,14.2039986 28.5560024,14.064 28.08,14.064 C27.8373321,14.064 27.6063344,14.1199994 27.387,14.232 C27.1676656,14.3440006 26.9763341,14.5026656 26.813,14.708 C26.6496658,14.9133344 26.5213338,15.1629985 26.428,15.457 C26.3346662,15.7510015 26.288,16.0799982 26.288,16.444 L26.288,20 L25.056,20 L25.056,15.912 C25.056,15.2399966 24.9346679,14.7640014 24.692,14.484 C24.4493321,14.2039986 24.1040022,14.064 23.656,14.064 C23.4133321,14.064 23.1823344,14.1199994 22.963,14.232 C22.7436656,14.3440006 22.5523342,14.5026656 22.389,14.708 C22.2256658,14.9133344 22.0973338,15.1629985 22.004,15.457 C21.9106662,15.7510015 21.864,16.0846648 21.864,16.458 L21.864,20 L20.632,20 L20.632,13.168 Z M32.336,18.18 C32.336,17.5826637 32.5063316,17.1206683 32.847,16.794 C33.1876684,16.4673317 33.7453295,16.2386673 34.52,16.108 L35.92,15.884 C36.0973342,15.8559999 36.2443327,15.8280001 36.361,15.8 C36.4776672,15.7719999 36.5709997,15.7393335 36.641,15.702 C36.7110003,15.6646665 36.7576665,15.615667 36.781,15.555 C36.8043335,15.494333 36.816,15.4080006 36.816,15.296 C36.816,14.9413316 36.6946679,14.6380013 36.452,14.386 C36.2093321,14.1339987 35.8453358,14.008 35.36,14.008 C34.8559975,14.008 34.475668,14.1269988 34.219,14.365 C33.9623321,14.6030012 33.8200001,14.9133314 33.792,15.296 L32.616,15.296 C32.6253334,14.9786651 32.6953327,14.6800014 32.826,14.4 C32.9566673,14.1199986 33.1363322,13.8750011 33.365,13.665 C33.5936678,13.454999 33.8759983,13.2916672 34.212,13.175 C34.5480017,13.0583327 34.9306645,13 35.36,13 C36.2653379,13 36.9396644,13.2216644 37.383,13.665 C37.8263355,14.1083355 38.048,14.7266627 38.048,15.52 L38.048,20 L36.872,20 L36.872,18.908 L36.816,18.908 C36.6479992,19.2626684 36.3726686,19.5519989 35.99,19.776 C35.6073314,20.0000011 35.1360028,20.112 34.576,20.112 C33.9039966,20.112 33.3626687,19.9416684 32.952,19.601 C32.5413313,19.2603316 32.336,18.7866697 32.336,18.18 Z M36.816,16.43 C36.6853327,16.5886675 36.4426684,16.6959997 36.088,16.752 L34.8,16.976 C34.3799979,17.050667 34.0696677,17.1696659 33.869,17.333 C33.6683323,17.4963341 33.568,17.7413317 33.568,18.068 C33.568,18.3666682 33.6683323,18.613999 33.869,18.81 C34.0696677,19.006001 34.3613314,19.104 34.744,19.104 C35.0053346,19.104 35.2619987,19.0620004 35.514,18.978 C35.7660013,18.8939996 35.9876657,18.7680008 36.179,18.6 C36.3703343,18.4319992 36.5243327,18.2220013 36.641,17.97 C36.7576673,17.7179987 36.816,17.4240017 36.816,17.088 L36.816,16.43 Z M40.008,9.752 L41.352,9.752 L41.352,11.152 L40.008,11.152 L40.008,9.752 Z M40.064,13.168 L41.296,13.168 L41.296,20 L40.064,20 L40.064,13.168 Z M43.424,9.752 L44.656,9.752 L44.656,20 L43.424,20 L43.424,9.752 Z M50.032,14.176 L48.744,14.176 L48.744,13.168 L50.032,13.168 L50.032,11.096 L51.264,11.096 L51.264,13.168 L53.056,13.168 L53.056,14.176 L51.264,14.176 L51.264,17.928 C51.264,18.2920018 51.3386659,18.5509992 51.488,18.705 C51.6373341,18.8590008 51.8799983,18.936 52.216,18.936 L53.056,18.936 L53.056,20 L52.048,20 C51.3759966,20 50.8720017,19.8413349 50.536,19.524 C50.1999983,19.2066651 50.032,18.7120034 50.032,18.04 L50.032,14.176 Z M53.952,16.584 C53.952,16.042664 54.0359992,15.5503355 54.204,15.107 C54.3720008,14.6636644 54.6029985,14.2856682 54.897,13.973 C55.1910015,13.6603318 55.5433313,13.4200008 55.954,13.252 C56.3646687,13.0839992 56.8173309,13 57.312,13 C57.8253359,13 58.2896646,13.0839992 58.705,13.252 C59.1203354,13.4200008 59.4749985,13.6603318 59.769,13.973 C60.0630015,14.2856682 60.2869992,14.6636644 60.441,15.107 C60.5950008,15.5503355 60.672,16.042664 60.672,16.584 C60.672,17.1346694 60.5880008,17.6293311 60.42,18.068 C60.2519992,18.5066689 60.0210015,18.8823318 59.727,19.195 C59.4329985,19.5076682 59.0783354,19.7479992 58.663,19.916 C58.2476646,20.0840008 57.7973358,20.168 57.312,20.168 C56.7893307,20.168 56.3226687,20.0840008 55.912,19.916 C55.5013313,19.7479992 55.1490015,19.5076682 54.855,19.195 C54.5609985,18.8823318 54.3370008,18.5066689 54.183,18.068 C54.0289992,17.6293311 53.952,17.1346694 53.952,16.584 Z M55.24,16.584 C55.24,16.9666686 55.2889995,17.3119985 55.387,17.62 C55.4850005,17.9280015 55.6249991,18.1916656 55.807,18.411 C55.9890009,18.6303344 56.208332,18.8006661 56.465,18.922 C56.7216679,19.0433339 57.0039985,19.104 57.312,19.104 C57.6200015,19.104 57.8999987,19.0433339 58.152,18.922 C58.4040013,18.8006661 58.6209991,18.6303344 58.803,18.411 C58.9850009,18.1916656 59.1273328,17.9280015 59.23,17.62 C59.3326672,17.3119985 59.384,16.9666686 59.384,16.584 C59.384,15.7906627 59.1926686,15.1723355 58.81,14.729 C58.4273314,14.2856644 57.9280031,14.064 57.312,14.064 C57.0039985,14.064 56.7216679,14.1246661 56.465,14.246 C56.208332,14.3673339 55.9890009,14.5376656 55.807,14.757 C55.6249991,14.9763344 55.4850005,15.2423318 55.387,15.555 C55.2889995,15.8676682 55.24,16.2106648 55.24,16.584 Z" id="Emailto" fill="#6A6D70" fill-rule="nonzero"></path>
            </g>
        </g>
        <g id="footer" mask="url(#mask-2)">
            <g transform="translate(0.000000, 337.000000)">
                <g id="BG">
                    <use fill="#FFFFFF" fill-rule="evenodd" xlink:href="#path-8"></use>
                    <use fill="black" fill-opacity="1" filter="url(#filter-9)" xlink:href="#path-8"></use>
                </g>
                <g id="btn/pill/primary-inactive" stroke-width="1" fill-rule="evenodd" transform="translate(61.000000, 17.000000)">
                    <path d="M0,20 C0,8.954305 8.94746709,0 19.9907838,0 L138.009216,0 C149.049821,0 158,8.95187636 158,20 L158,20 C158,31.045695 149.052533,40 138.009216,40 L19.9907838,40 C8.95017876,40 0,31.0481236 0,20 L0,20 Z" id="BG" fill="#BABCBF"></path>
                    <path d="M50,13.704 L59.376,13.704 L59.376,15.224 L55.584,15.224 L55.584,24.712 L53.776,24.712 L53.776,15.224 L50,15.224 L50,13.704 Z M58.924,16.904 L60.588,16.904 L60.588,18.04 L60.636,18.04 C60.828001,17.6239979 61.094665,17.2986678 61.436,17.064 C61.777335,16.8293322 62.1986642,16.712 62.7,16.712 C62.8600008,16.712 63.0306658,16.7306665 63.212,16.768 C63.3933342,16.8053335 63.5853323,16.8933326 63.788,17.032 L63.34,18.568 C62.998665,18.3973325 62.6786682,18.312 62.38,18.312 C62.0919986,18.312 61.8386678,18.378666 61.62,18.512 C61.4013322,18.645334 61.2200007,18.8239989 61.076,19.048 C60.9319993,19.2720011 60.8253337,19.5359985 60.756,19.84 C60.6866663,20.1440015 60.652,20.466665 60.652,20.808 L60.652,24.712 L58.924,24.712 L58.924,16.904 Z M64.184,22.632 C64.184,21.9386632 64.383998,21.4053352 64.784,21.032 C65.184002,20.6586648 65.8319955,20.4026674 66.728,20.264 L68.312,20.008 C68.5146677,19.9759998 68.682666,19.9466668 68.816,19.92 C68.949334,19.8933332 69.053333,19.8586669 69.128,19.816 C69.202667,19.7733331 69.2533332,19.714667 69.28,19.64 C69.3066668,19.565333 69.32,19.4693339 69.32,19.352 C69.32,18.9786648 69.1946679,18.6613346 68.944,18.4 C68.6933321,18.1386654 68.3066693,18.008 67.784,18.008 C67.2613307,18.008 66.8640014,18.1359987 66.592,18.392 C66.3199986,18.6480013 66.1680002,18.9786646 66.136,19.384 L64.488,19.384 C64.5413336,18.5733293 64.8559971,17.9253358 65.432,17.44 C66.0080029,16.9546642 66.791995,16.712 67.784,16.712 C68.8826722,16.712 69.7013306,16.9626642 70.24,17.464 C70.7786694,17.9653358 71.048,18.6746621 71.048,19.592 L71.048,24.712 L69.4,24.712 L69.4,23.496 L69.336,23.496 C69.1546658,23.9120021 68.8453355,24.2399988 68.408,24.48 C67.9706645,24.7200012 67.4266699,24.84 66.776,24.84 C65.9653293,24.84 65.330669,24.6453353 64.872,24.256 C64.413331,23.8666647 64.184,23.3253368 64.184,22.632 Z M69.32,20.728 C69.1706659,20.920001 68.9040019,21.0426664 68.52,21.096 L67.176,21.336 C66.7386645,21.4000003 66.4186677,21.5199991 66.216,21.696 C66.0133323,21.8720009 65.912,22.1253317 65.912,22.456 C65.912,22.7760016 66.0186656,23.0373323 66.232,23.24 C66.4453344,23.4426677 66.7493314,23.544 67.144,23.544 C67.4320014,23.544 67.7066654,23.5013338 67.968,23.416 C68.2293346,23.3306662 68.4586657,23.2000009 68.656,23.024 C68.8533343,22.8479991 69.0133327,22.6293346 69.136,22.368 C69.2586673,22.1066654 69.32,21.8000018 69.32,21.448 L69.32,20.728 Z M73.188,16.904 L74.852,16.904 L74.852,18.04 L74.916,18.04 C75.3640022,17.1546622 76.1693275,16.712 77.332,16.712 C77.7160019,16.712 78.0866649,16.7679994 78.444,16.88 C78.8013351,16.9920006 79.113332,17.1759987 79.38,17.432 C79.646668,17.6880013 79.8599992,18.0239979 80.02,18.44 C80.1800008,18.8560021 80.26,19.367997 80.26,19.976 L80.26,24.712 L78.532,24.712 L78.532,20.2 C78.532,19.4213294 78.3826682,18.8800015 78.084,18.576 C77.7853318,18.2719985 77.3800026,18.12 76.868,18.12 C76.3133306,18.12 75.8493352,18.3413311 75.476,18.784 C75.1026648,19.2266689 74.916,19.8426627 74.916,20.632 L74.916,24.712 L73.188,24.712 L73.188,16.904 Z M83.472,22.376 C83.472,22.6106678 83.5199995,22.8106658 83.616,22.976 C83.7120005,23.1413342 83.8399992,23.2773328 84,23.384 C84.1600008,23.4906672 84.343999,23.5679998 84.552,23.616 C84.760001,23.6640002 84.9706656,23.688 85.184,23.688 C85.7706696,23.688 86.197332,23.592001 86.464,23.4 C86.730668,23.207999 86.864,22.9200019 86.864,22.536 C86.864,22.2479986 86.7760009,22.0320007 86.6,21.888 C86.4239991,21.7439993 86.1386686,21.6400003 85.744,21.576 L84.304,21.336 C84.0159986,21.2933331 83.7333347,21.2266671 83.456,21.136 C83.1786653,21.0453329 82.9333344,20.9173342 82.72,20.752 C82.5066656,20.5866658 82.333334,20.3786679 82.2,20.128 C82.066666,19.8773321 82,19.5653352 82,19.192 C82,18.7973314 82.0799992,18.4453349 82.24,18.136 C82.4000008,17.8266651 82.6239986,17.568001 82.912,17.36 C83.2000014,17.151999 83.5386647,16.9920006 83.928,16.88 C84.3173353,16.7679994 84.741331,16.712 85.2,16.712 C85.6480022,16.712 86.0666647,16.7653328 86.456,16.872 C86.8453353,16.9786672 87.1839986,17.135999 87.472,17.344 C87.7600014,17.552001 87.9839992,17.8133318 88.144,18.128 C88.3040008,18.4426682 88.384,18.8079979 88.384,19.224 L86.768,19.224 C86.768,18.8186646 86.6240014,18.5013345 86.336,18.272 C86.0479986,18.0426655 85.6693357,17.928 85.2,17.928 C84.741331,17.928 84.3706681,18.023999 84.088,18.216 C83.8053319,18.408001 83.664,18.674665 83.664,19.016 C83.664,19.282668 83.7546658,19.4879993 83.936,19.632 C84.1173342,19.7760007 84.4426643,19.8906662 84.912,19.976 L86.352,20.216 C86.6506682,20.2693336 86.933332,20.3413329 87.2,20.432 C87.466668,20.5226671 87.703999,20.6506658 87.912,20.816 C88.120001,20.9813342 88.2853327,21.1946654 88.408,21.456 C88.5306673,21.7173346 88.592,22.0399981 88.592,22.424 C88.592,22.8400021 88.5093342,23.2053318 88.344,23.52 C88.1786658,23.8346682 87.9466682,24.0933323 87.648,24.296 C87.3493318,24.4986677 86.9920021,24.6506662 86.576,24.752 C86.1599979,24.8533338 85.6960026,24.904 85.184,24.904 C84.1493282,24.904 83.3306697,24.6906688 82.728,24.264 C82.1253303,23.8373312 81.824,23.2080042 81.824,22.376 L83.472,22.376 Z M90.684,18.248 L89.212,18.248 L89.212,16.904 L90.684,16.904 L90.684,15.736 C90.684,14.8293288 90.913331,14.146669 91.372,13.688 C91.830669,13.229331 92.555995,13 93.548,13 L94.54,13 L94.54,14.408 L93.708,14.408 C93.2173309,14.408 92.8786676,14.5199989 92.692,14.744 C92.5053324,14.9680011 92.412,15.3199976 92.412,15.8 L92.412,16.904 L94.284,16.904 L94.284,18.248 L92.412,18.248 L92.412,24.712 L90.684,24.712 L90.684,18.248 Z M94.744,20.824 C94.744,20.2053302 94.839999,19.6426692 95.032,19.136 C95.224001,18.6293308 95.4933316,18.1973351 95.84,17.84 C96.1866684,17.4826649 96.5946643,17.2053343 97.064,17.008 C97.5333357,16.8106657 98.0506638,16.712 98.616,16.712 C99.1600027,16.712 99.6559978,16.7973325 100.104,16.968 C100.552002,17.1386675 100.935998,17.386665 101.256,17.712 C101.576002,18.037335 101.823999,18.4346643 102,18.904 C102.176001,19.3733357 102.264,19.911997 102.264,20.52 L102.264,21.096 L96.52,21.096 C96.5626669,21.8640038 96.7759981,22.4639978 97.16,22.896 C97.5440019,23.3280022 98.0506635,23.544 98.68,23.544 C99.2346694,23.544 99.6559986,23.4186679 99.944,23.168 C100.232001,22.9173321 100.418666,22.6320016 100.504,22.312 L102.184,22.312 C102.130666,22.6640018 102.013334,22.9973318 101.832,23.312 C101.650666,23.6266682 101.410668,23.9013322 101.112,24.136 C100.813332,24.3706678 100.458669,24.5573326 100.048,24.696 C99.6373313,24.8346674 99.1760026,24.904 98.664,24.904 C97.405327,24.904 96.4373367,24.5466702 95.76,23.832 C95.0826633,23.1173298 94.744,22.1146731 94.744,20.824 Z M98.616,18.072 C98.1039974,18.072 97.6693351,18.2373317 97.312,18.568 C96.9546649,18.8986683 96.7173339,19.3573304 96.6,19.944 L100.504,19.944 C100.44,19.3039968 100.248002,18.8320015 99.928,18.528 C99.6079984,18.2239985 99.1706694,18.072 98.616,18.072 Z M103.892,16.904 L105.556,16.904 L105.556,18.04 L105.604,18.04 C105.796001,17.6239979 106.062665,17.2986678 106.404,17.064 C106.745335,16.8293322 107.166664,16.712 107.668,16.712 C107.828001,16.712 107.998666,16.7306665 108.18,16.768 C108.361334,16.8053335 108.553332,16.8933326 108.756,17.032 L108.308,18.568 C107.966665,18.3973325 107.646668,18.312 107.348,18.312 C107.059999,18.312 106.806668,18.378666 106.588,18.512 C106.369332,18.645334 106.188001,18.8239989 106.044,19.048 C105.899999,19.2720011 105.793334,19.5359985 105.724,19.84 C105.654666,20.1440015 105.62,20.466665 105.62,20.808 L105.62,24.712 L103.892,24.712 L103.892,16.904 Z" id="Transfer" fill="#FFFFFF" fill-rule="nonzero"></path>
                </g>
                <g id="icon/button/options-default" transform="translate(20.000000, 24.000000)" fill-rule="nonzero">
                    <path d="M12,24 C5.372583,24 0,18.627417 0,12 C0,5.372583 5.372583,0 12,0 C18.627417,0 24,5.372583 24,12 C24,18.627417 18.627417,24 12,24 Z M12,22 C17.5228475,22 22,17.5228475 22,12 C22,6.4771525 17.5228475,2 12,2 C6.4771525,2 2,6.4771525 2,12 C2,17.5228475 6.4771525,22 12,22 Z M16.5,13.5 C15.6715729,13.5 15,12.8284271 15,12 C15,11.1715729 15.6715729,10.5 16.5,10.5 C17.3284271,10.5 18,11.1715729 18,12 C18,12.8284271 17.3284271,13.5 16.5,13.5 Z M12,13.5 C11.1715729,13.5 10.5,12.8284271 10.5,12 C10.5,11.1715729 11.1715729,10.5 12,10.5 C12.8284271,10.5 13.5,11.1715729 13.5,12 C13.5,12.8284271 12.8284271,13.5 12,13.5 Z M7.5,13.5 C6.67157288,13.5 6,12.8284271 6,12 C6,11.1715729 6.67157288,10.5 7.5,10.5 C8.32842712,10.5 9,11.1715729 9,12 C9,12.8284271 8.32842712,13.5 7.5,13.5 Z" id="Combined-Shape" fill="#409FFF"></path>
                </g>
            </g>
        </g>
        <g id="files" mask="url(#mask-2)">
            <mask id="mask-11" fill="white">
                <use xlink:href="#path-10"></use>
            </mask>
            <g id="Mask">
                <use fill-opacity="0" fill="#D8D8D8" fill-rule="evenodd" xlink:href="#path-10"></use>
                <use fill="black" fill-opacity="1" filter="url(#filter-12)" xlink:href="#path-10"></use>
            </g>
            <g id="icon/button/addfiles-default" mask="url(#mask-11)" fill="#409FFF">
                <g transform="translate(20.000000, 70.000000)" id="Combined-Shape">
                    <path d="M17,17 L12,17 L12,19 L17,19 L17,24 L19,24 L19,19 L24,19 L24,17 L19,17 L19,12 L17,12 L17,17 Z M18,36 C8.0588745,36 0,27.9411255 0,18 C0,8.0588745 8.0588745,0 18,0 C27.9411255,0 36,8.0588745 36,18 C36,27.9411255 27.9411255,36 18,36 Z"></path>
                </g>
            </g>
            <path d="M74.65945,83.25 L79.76345,97 L77.84945,97 L76.55145,93.392 L70.58945,93.392 L69.29145,97 L67.35545,97 L72.52545,83.25 L74.65945,83.25 Z M75.93545,91.698 L73.58145,85.186 L71.20545,91.698 L75.93545,91.698 Z M87.89615,86.924 L87.89615,82.172 L89.70015,81.886 L89.70015,97 L87.89615,97 L87.89615,96.076 C87.17015,96.758 86.26815,97.33 85.08015,97.33 C82.24215,97.33 80.59215,95.042 80.59215,92.006 C80.59215,88.948 82.70415,86.594 85.71815,86.594 C86.44415,86.594 87.25815,86.726 87.89615,86.924 Z M87.89615,88.948 C87.30215,88.464 86.53215,88.222 85.65215,88.222 C83.60615,88.222 82.46215,89.894 82.46215,91.962 C82.46215,94.184 83.58415,95.658 85.45415,95.658 C86.40015,95.658 87.21415,95.284 87.89615,94.69 L87.89615,88.948 Z M99.28485,86.924 L99.28485,82.172 L101.08885,81.886 L101.08885,97 L99.28485,97 L99.28485,96.076 C98.55885,96.758 97.65685,97.33 96.46885,97.33 C93.63085,97.33 91.98085,95.042 91.98085,92.006 C91.98085,88.948 94.09285,86.594 97.10685,86.594 C97.83285,86.594 98.64685,86.726 99.28485,86.924 Z M99.28485,88.948 C98.69085,88.464 97.92085,88.222 97.04085,88.222 C94.99485,88.222 93.85085,89.894 93.85085,91.962 C93.85085,94.184 94.97285,95.658 96.84285,95.658 C97.78885,95.658 98.60285,95.284 99.28485,94.69 L99.28485,88.948 Z M116.95825,86.924 L112.93225,97.11 L112.25025,98.914 C111.28225,101.466 110.27025,102.236 108.70825,102.236 C107.93825,102.236 107.25625,102.016 106.57425,101.708 L107.10225,100.036 C107.63025,100.3 108.20225,100.52 108.70825,100.52 C109.47825,100.52 109.96225,100.102 110.64425,98.342 L111.26025,96.78 L107.34425,86.924 L109.28025,86.924 L112.20625,94.756 L115.04425,86.924 L116.95825,86.924 Z M127.42295,91.962 C127.42295,95.196 125.31095,97.33 122.47295,97.33 C119.61295,97.33 117.61095,95.218 117.61095,91.962 C117.61095,88.728 119.67895,86.572 122.58295,86.572 C125.46495,86.572 127.42295,88.706 127.42295,91.962 Z M125.64095,91.984 C125.64095,89.828 124.47495,88.2 122.49495,88.2 C120.49295,88.2 119.39295,89.762 119.39295,91.94 C119.39295,94.096 120.55895,95.702 122.53895,95.702 C124.54095,95.702 125.64095,94.162 125.64095,91.984 Z M129.61565,86.924 L131.41965,86.924 L131.41965,93.26 C131.41965,94.998 132.07965,95.592 133.39965,95.592 C134.56565,95.592 135.57765,95.042 136.14965,94.492 L136.14965,86.924 L137.95365,86.924 L137.95365,97.044 L136.14965,97.33 L136.14965,95.856 C135.22565,96.78 134.03765,97.33 132.76165,97.33 C130.82565,97.33 129.61565,96.032 129.61565,93.854 L129.61565,86.924 Z M142.69835,90.422 L142.69835,97 L140.89435,97 L140.89435,86.88 L142.69835,86.594 L142.69835,88.376 C143.40235,87.254 144.23835,86.594 145.51435,86.594 C146.19635,86.594 146.87835,86.77 147.40635,87.1 L146.94435,88.794 C146.39435,88.464 145.84435,88.332 145.33835,88.332 C144.37035,88.332 143.44635,89.036 142.69835,90.422 Z M162.96775,83.404 C162.96775,84.086 162.59375,84.702 161.77975,84.702 C160.96575,84.702 160.59175,84.086 160.59175,83.404 C160.59175,82.722 160.96575,82.106 161.77975,82.106 C162.59375,82.106 162.96775,82.722 162.96775,83.404 Z M159.64575,82.172 C159.64575,82.216 159.20575,83.866 159.20575,83.822 C158.74375,83.624 158.10575,83.382 157.59975,83.382 C156.58775,83.382 156.10375,83.998 156.10375,85.516 L156.10375,86.924 L159.29375,86.924 L159.22775,88.552 L156.10375,88.552 L156.10375,97 L154.29975,97 L154.29975,88.574 L152.53975,88.442 L152.62775,87.298 L154.27775,86.814 L154.29975,85.538 C154.34375,82.722 155.64175,81.688 157.62175,81.688 C158.36975,81.688 159.16175,81.952 159.64575,82.172 Z M162.68175,97 L160.87775,97 L160.87775,86.88 L162.68175,86.594 L162.68175,97 Z M167.36045,97 L165.55645,97 L165.55645,82.172 L167.36045,81.886 L167.36045,97 Z M171.46715,92.182 L171.46715,92.27 C171.53315,94.25 172.85315,95.658 174.78915,95.658 C175.84515,95.658 176.98915,95.372 177.80315,94.822 L178.13315,96.494 C177.23115,97.044 176.02115,97.33 174.74515,97.33 C171.70915,97.33 169.64115,95.152 169.64115,92.072 C169.64115,88.816 171.79715,86.594 174.61315,86.594 C177.05515,86.594 178.46315,88.134 178.46315,90.532 C178.46315,91.082 178.37515,91.698 178.24315,92.138 C178.22115,92.138 171.46715,92.182 171.46715,92.182 Z M171.55515,90.862 L176.72515,90.818 L176.72515,90.664 C176.72515,89.168 176.02115,88.178 174.43715,88.178 C172.72115,88.178 171.70915,89.542 171.55515,90.862 Z M187.12385,94.14 C187.12385,96.054 185.51785,97.352 183.31785,97.352 C182.08585,97.352 180.72185,96.978 179.79785,96.406 L180.25985,94.756 C181.09585,95.328 182.32785,95.702 183.36185,95.702 C184.50585,95.702 185.36385,95.174 185.36385,94.272 C185.36385,93.26 184.17585,92.93 182.98785,92.6 C181.55785,92.204 179.99585,91.5 179.99585,89.652 C179.99585,87.782 181.57985,86.594 183.60385,86.594 C184.76985,86.594 185.93585,86.88 186.85985,87.342 L186.39785,88.992 C185.56185,88.53 184.35185,88.244 183.51585,88.244 C182.43785,88.244 181.73385,88.684 181.73385,89.498 C181.73385,90.466 182.81185,90.796 184.06585,91.126 C185.53985,91.522 187.12385,92.226 187.12385,94.14 Z" id="Addyourfles" fill="#17181A" fill-rule="nonzero" mask="url(#mask-11)"></path>
        </g>
    </g>
</svg>