<?xml version="1.0" encoding="UTF-8"?>
<svg width="324px" height="40px" viewBox="0 0 324 40" version="1.1" xmlns="http://www.w3.org/2000/svg" xmlns:xlink="http://www.w3.org/1999/xlink">
    <!-- Generator: Sketch 53 (72520) - https://sketchapp.com -->
    <title>ui_de</title>
    <desc>Created with Sketch.</desc>
    <g id="ui_de" stroke="none" stroke-width="1" fill="none" fill-rule="evenodd">
        <path d="M101.5,6.00691225 C101.5,2.96377196 103.958838,0.5 107.000839,0.5 L318.999161,0.5 C322.039459,0.5 324.5,2.96133186 324.5,6.00691225 L324.5,33.9930877 C324.5,37.036228 322.041162,39.5 318.999161,39.5 L107.000839,39.5 C103.960541,39.5 101.5,37.0386681 101.5,33.9930877 L101.5,6.00691225 Z" id="BG" stroke-opacity="0.11" stroke="#000000" fill="#FFFFFF"></path>
        <path d="M226.176,15.368 L227.758,15.368 L227.758,19.456 L232.602,19.456 L232.602,15.368 L234.198,15.368 L234.198,25 L232.602,25 L232.602,20.8 L227.758,20.8 L227.758,25 L226.176,25 L226.176,15.368 Z M236.004,23.18 C236.004,22.5733303 236.178998,22.1066683 236.529,21.78 C236.879002,21.4533317 237.445996,21.2293339 238.23,21.108 L239.616,20.884 C239.793334,20.8559999 239.940333,20.8303334 240.057,20.807 C240.173667,20.7836665 240.264666,20.7533335 240.33,20.716 C240.395334,20.6786665 240.439667,20.6273337 240.463,20.562 C240.486333,20.4966663 240.498,20.4126672 240.498,20.31 C240.498,19.9833317 240.388334,19.7056678 240.169,19.477 C239.949666,19.2483322 239.611336,19.134 239.154,19.134 C238.696664,19.134 238.349001,19.2459989 238.111,19.47 C237.872999,19.6940011 237.74,19.9833316 237.712,20.338 L236.27,20.338 C236.316667,19.6286631 236.591997,19.0616688 237.096,18.637 C237.600003,18.2123312 238.285996,18 239.154,18 C240.115338,18 240.831664,18.2193311 241.303,18.658 C241.774336,19.0966689 242.01,19.7173293 242.01,20.52 L242.01,25 L240.568,25 L240.568,23.936 L240.512,23.936 C240.353333,24.3000018 240.082669,24.586999 239.7,24.797 C239.317331,25.007001 238.841336,25.112 238.272,25.112 C237.562663,25.112 237.007335,24.9416684 236.606,24.601 C236.204665,24.2603316 236.004,23.7866697 236.004,23.18 Z M240.498,21.514 C240.367333,21.6820008 240.134002,21.7893331 239.798,21.836 L238.622,22.046 C238.239331,22.1020003 237.959334,22.2069992 237.782,22.361 C237.604666,22.5150008 237.516,22.7366652 237.516,23.026 C237.516,23.3060014 237.609332,23.5346658 237.796,23.712 C237.982668,23.8893342 238.248665,23.978 238.594,23.978 C238.846001,23.978 239.086332,23.940667 239.315,23.866 C239.543668,23.791333 239.744332,23.6770008 239.917,23.523 C240.089668,23.3689992 240.229666,23.1776678 240.337,22.949 C240.444334,22.7203322 240.498,22.4520015 240.498,22.144 L240.498,21.514 Z M244.922,22.956 C244.922,23.1613344 244.964,23.3363326 245.048,23.481 C245.132,23.6256674 245.243999,23.7446662 245.384,23.838 C245.524001,23.9313338 245.684999,23.9989998 245.867,24.041 C246.049001,24.0830002 246.233332,24.104 246.42,24.104 C246.933336,24.104 247.306666,24.0200008 247.54,23.852 C247.773335,23.6839992 247.89,23.4320017 247.89,23.096 C247.89,22.8439987 247.813001,22.6550006 247.659,22.529 C247.504999,22.4029994 247.255335,22.3120003 246.91,22.256 L245.65,22.046 C245.397999,22.0086665 245.150668,21.9503337 244.908,21.871 C244.665332,21.7916663 244.450668,21.6796674 244.264,21.535 C244.077332,21.3903326 243.925667,21.2083344 243.809,20.989 C243.692333,20.7696656 243.634,20.4966683 243.634,20.17 C243.634,19.8246649 243.703999,19.516668 243.844,19.246 C243.984001,18.975332 244.179999,18.7490009 244.432,18.567 C244.684001,18.3849991 244.980332,18.2450005 245.321,18.147 C245.661668,18.0489995 246.032665,18 246.434,18 C246.826002,18 247.192332,18.0466662 247.533,18.14 C247.873668,18.2333338 248.169999,18.3709991 248.422,18.553 C248.674001,18.7350009 248.869999,18.9636653 249.01,19.239 C249.150001,19.5143347 249.22,19.8339982 249.22,20.198 L247.806,20.198 C247.806,19.8433316 247.680001,19.5656677 247.428,19.365 C247.175999,19.1643323 246.844669,19.064 246.434,19.064 C246.032665,19.064 245.708335,19.1479992 245.461,19.316 C245.213665,19.4840008 245.09,19.7173318 245.09,20.016 C245.09,20.2493345 245.169333,20.4289994 245.328,20.555 C245.486667,20.6810006 245.771331,20.781333 246.182,20.856 L247.442,21.066 C247.703335,21.1126669 247.950666,21.1756663 248.184,21.255 C248.417335,21.3343337 248.624999,21.4463326 248.807,21.591 C248.989001,21.7356674 249.133666,21.9223322 249.241,22.151 C249.348334,22.3796678 249.402,22.6619983 249.402,22.998 C249.402,23.3620018 249.329667,23.6816653 249.185,23.957 C249.040333,24.2323347 248.837335,24.4586658 248.576,24.636 C248.314665,24.8133342 248.002002,24.9463329 247.638,25.035 C247.273998,25.1236671 246.868002,25.168 246.42,25.168 C245.514662,25.168 244.798336,24.9813352 244.271,24.608 C243.743664,24.2346648 243.48,23.6840036 243.48,22.956 L244.922,22.956 Z M251.222,19.344 L249.934,19.344 L249.934,18.168 L251.222,18.168 L251.222,16.096 L252.734,16.096 L252.734,18.168 L254.484,18.168 L254.484,19.344 L252.734,19.344 L252.734,22.816 C252.734,23.1426683 252.803999,23.3783326 252.944,23.523 C253.084001,23.6676674 253.321998,23.74 253.658,23.74 L254.484,23.74 L254.484,25 L253.462,25 C252.677996,25 252.108668,24.8366683 251.754,24.51 C251.399332,24.1833317 251.222,23.6466704 251.222,22.9 L251.222,19.344 Z M258.446,21.64 C258.446,21.0706638 258.527666,20.5620022 258.691,20.114 C258.854334,19.6659978 259.080665,19.2856682 259.37,18.973 C259.659335,18.6603318 259.995331,18.4200008 260.378,18.252 C260.760669,18.0839992 261.171331,18 261.61,18 C262.104669,18 262.533998,18.0933324 262.898,18.28 C263.262002,18.4666676 263.551332,18.7699979 263.766,19.19 L263.822,19.19 C263.784666,18.7419978 263.763667,18.3056688 263.759,17.881 C263.754333,17.4563312 263.752,17.1273345 263.752,16.894 L263.752,14.752 L265.264,14.752 L265.264,25 L263.822,25 L263.822,23.978 L263.766,23.978 C263.551332,24.3980021 263.245669,24.7013324 262.849,24.888 C262.452331,25.0746676 262.002003,25.168 261.498,25.168 C261.068665,25.168 260.667335,25.0910008 260.294,24.937 C259.920665,24.7829992 259.598668,24.5566682 259.328,24.258 C259.057332,23.9593318 258.842667,23.5906689 258.684,23.152 C258.525333,22.7133311 258.446,22.2093362 258.446,21.64 Z M260.014,21.64 C260.014,22.3960038 260.191332,22.969998 260.546,23.362 C260.900668,23.754002 261.343997,23.95 261.876,23.95 C262.417336,23.95 262.865332,23.7446687 263.22,23.334 C263.574668,22.9233313 263.752,22.3400038 263.752,21.584 C263.752,20.8279962 263.574668,20.2446687 263.22,19.834 C262.865332,19.4233313 262.417336,19.218 261.876,19.218 C261.605332,19.218 261.358001,19.2739994 261.134,19.386 C260.909999,19.4980006 260.714001,19.658999 260.546,19.869 C260.377999,20.0790011 260.247334,20.3333318 260.154,20.632 C260.060666,20.9306682 260.014,21.2666648 260.014,21.64 Z M267.21,18.168 L268.722,18.168 L268.722,22.116 C268.722,22.7973367 268.854999,23.2709987 269.121,23.537 C269.387001,23.8030013 269.739331,23.936 270.178,23.936 C270.663336,23.936 271.062332,23.740002 271.375,23.348 C271.687668,22.955998 271.844,22.4053369 271.844,21.696 L271.844,18.168 L273.356,18.168 L273.356,25 L271.914,25 L271.914,24.006 L271.858,24.006 C271.465998,24.7806705 270.775338,25.168 269.786,25.168 C269.440665,25.168 269.114002,25.1190005 268.806,25.021 C268.497998,24.9229995 268.225001,24.7620011 267.987,24.538 C267.748999,24.3139989 267.560001,24.0200018 267.42,23.656 C267.279999,23.2919982 267.21,22.8440027 267.21,22.312 L267.21,18.168 Z M278.634,15.368 L282.54,15.368 C283.100003,15.368 283.596998,15.4449992 284.031,15.599 C284.465002,15.7530008 284.828999,15.9676653 285.123,16.243 C285.417001,16.5183347 285.640999,16.8496647 285.795,17.237 C285.949001,17.6243353 286.026,18.0466644 286.026,18.504 C286.026,18.970669 285.949001,19.399998 285.795,19.792 C285.640999,20.184002 285.417001,20.5246652 285.123,20.814 C284.828999,21.1033348 284.465002,21.3296658 284.031,21.493 C283.596998,21.6563341 283.100003,21.738 282.54,21.738 L280.216,21.738 L280.216,25 L278.634,25 L278.634,15.368 Z M280.216,16.684 L280.216,20.436 L282.47,20.436 C282.796668,20.436 283.083665,20.3870005 283.331,20.289 C283.578335,20.1909995 283.783666,20.0533342 283.947,19.876 C284.110334,19.6986658 284.231666,19.4956678 284.311,19.267 C284.390334,19.0383322 284.43,18.788668 284.43,18.518 C284.43,17.976664 284.269002,17.5356684 283.947,17.195 C283.624998,16.8543316 283.13267,16.684 282.47,16.684 L280.216,16.684 Z M287.65,14.752 L289.162,14.752 L289.162,25 L287.65,25 L287.65,14.752 Z M291.108,18.168 L292.62,18.168 L292.62,22.116 C292.62,22.7973367 292.752999,23.2709987 293.019,23.537 C293.285001,23.8030013 293.637331,23.936 294.076,23.936 C294.561336,23.936 294.960332,23.740002 295.273,23.348 C295.585668,22.955998 295.742,22.4053369 295.742,21.696 L295.742,18.168 L297.254,18.168 L297.254,25 L295.812,25 L295.812,24.006 L295.756,24.006 C295.363998,24.7806705 294.673338,25.168 293.684,25.168 C293.338665,25.168 293.012002,25.1190005 292.704,25.021 C292.395998,24.9229995 292.123001,24.7620011 291.885,24.538 C291.646999,24.3139989 291.458001,24.0200018 291.318,23.656 C291.177999,23.2919982 291.108,22.8440027 291.108,22.312 L291.108,18.168 Z M300.25,22.956 C300.25,23.1613344 300.292,23.3363326 300.376,23.481 C300.46,23.6256674 300.571999,23.7446662 300.712,23.838 C300.852001,23.9313338 301.012999,23.9989998 301.195,24.041 C301.377001,24.0830002 301.561332,24.104 301.748,24.104 C302.261336,24.104 302.634665,24.0200008 302.868,23.852 C303.101335,23.6839992 303.218,23.4320017 303.218,23.096 C303.218,22.8439987 303.141001,22.6550006 302.987,22.529 C302.832999,22.4029994 302.583335,22.3120003 302.238,22.256 L300.978,22.046 C300.725999,22.0086665 300.478668,21.9503337 300.236,21.871 C299.993332,21.7916663 299.778668,21.6796674 299.592,21.535 C299.405332,21.3903326 299.253667,21.2083344 299.137,20.989 C299.020333,20.7696656 298.962,20.4966683 298.962,20.17 C298.962,19.8246649 299.031999,19.516668 299.172,19.246 C299.312001,18.975332 299.507999,18.7490009 299.76,18.567 C300.012001,18.3849991 300.308332,18.2450005 300.649,18.147 C300.989668,18.0489995 301.360665,18 301.762,18 C302.154002,18 302.520332,18.0466662 302.861,18.14 C303.201668,18.2333338 303.497999,18.3709991 303.75,18.553 C304.002001,18.7350009 304.197999,18.9636653 304.338,19.239 C304.478001,19.5143347 304.548,19.8339982 304.548,20.198 L303.134,20.198 C303.134,19.8433316 303.008001,19.5656677 302.756,19.365 C302.503999,19.1643323 302.172669,19.064 301.762,19.064 C301.360665,19.064 301.036335,19.1479992 300.789,19.316 C300.541665,19.4840008 300.418,19.7173318 300.418,20.016 C300.418,20.2493345 300.497333,20.4289994 300.656,20.555 C300.814667,20.6810006 301.099331,20.781333 301.51,20.856 L302.77,21.066 C303.031335,21.1126669 303.278665,21.1756663 303.512,21.255 C303.745335,21.3343337 303.952999,21.4463326 304.135,21.591 C304.317001,21.7356674 304.461666,21.9223322 304.569,22.151 C304.676334,22.3796678 304.73,22.6619983 304.73,22.998 C304.73,23.3620018 304.657667,23.6816653 304.513,23.957 C304.368333,24.2323347 304.165335,24.4586658 303.904,24.636 C303.642665,24.8133342 303.330002,24.9463329 302.966,25.035 C302.601998,25.1236671 302.196002,25.168 301.748,25.168 C300.842662,25.168 300.126336,24.9813352 299.599,24.608 C299.071664,24.2346648 298.808,23.6840036 298.808,22.956 L300.25,22.956 Z M308.09,21.808 C308.09,21.4906651 308.122666,21.2083346 308.188,20.961 C308.253334,20.7136654 308.341999,20.4966676 308.454,20.31 C308.566001,20.1233324 308.694333,19.9600007 308.839,19.82 C308.983667,19.6799993 309.135333,19.5540006 309.294,19.442 L309.63,19.19 C309.863335,19.0033324 310.066332,18.812001 310.239,18.616 C310.411668,18.419999 310.498,18.1633349 310.498,17.846 C310.498,17.453998 310.362668,17.1250013 310.092,16.859 C309.821332,16.5929987 309.452669,16.46 308.986,16.46 C308.677998,16.46 308.416668,16.5089995 308.202,16.607 C307.987332,16.7050005 307.810001,16.8379992 307.67,17.006 C307.529999,17.1740008 307.427334,17.3676656 307.362,17.587 C307.296666,17.8063344 307.264,18.0373321 307.264,18.28 L305.794,18.28 C305.794,17.887998 305.856999,17.5053352 305.983,17.132 C306.109001,16.7586648 306.300332,16.4296681 306.557,16.145 C306.813668,15.8603319 307.142665,15.6316675 307.544,15.459 C307.945335,15.2863325 308.425997,15.2 308.986,15.2 C309.434002,15.2 309.844665,15.2583327 310.218,15.375 C310.591335,15.4916672 310.913332,15.6619989 311.184,15.886 C311.454668,16.1100011 311.664666,16.3806651 311.814,16.698 C311.963334,17.0153349 312.038,17.3746647 312.038,17.776 C312.038,18.0560014 312.003,18.3033323 311.933,18.518 C311.863,18.7326677 311.772001,18.9239992 311.66,19.092 C311.547999,19.2600008 311.419667,19.411666 311.275,19.547 C311.130333,19.682334 310.983334,19.8106661 310.834,19.932 L310.498,20.184 C310.236665,20.3706676 310.012668,20.5783322 309.826,20.807 C309.639332,21.0356678 309.546,21.3319982 309.546,21.696 L309.546,22.172 L308.09,22.172 L308.09,21.808 Z M307.978,23.32 L309.644,23.32 L309.644,25 L307.978,25 L307.978,23.32 Z" id="HastduPlus?" fill="#18191A" fill-rule="nonzero"></path>
        <rect id="divider" fill="#E9EBED" x="212" y="1" width="1" height="38"></rect>
        <path d="M168.98,15.368 L170.562,15.368 L170.562,21.15 C170.562,21.9900042 170.760331,22.6363311 171.157,23.089 C171.553669,23.5416689 172.162663,23.768 172.984,23.768 C173.805337,23.768 174.414331,23.5416689 174.811,23.089 C175.207669,22.6363311 175.406,21.9900042 175.406,21.15 L175.406,15.368 L176.988,15.368 L176.988,21.164 C176.988,21.8920036 176.890001,22.5103308 176.694,23.019 C176.497999,23.5276692 176.225002,23.9406651 175.875,24.258 C175.524998,24.5753349 175.102669,24.8063326 174.608,24.951 C174.113331,25.0956674 173.572003,25.168 172.984,25.168 C172.395997,25.168 171.857002,25.0956674 171.367,24.951 C170.876998,24.8063326 170.454668,24.5753349 170.1,24.258 C169.745332,23.9406651 169.470001,23.5276692 169.274,23.019 C169.077999,22.5103308 168.98,21.8920036 168.98,21.164 L168.98,15.368 Z M173.74,12.792 L175.168,12.792 L175.168,14.248 L173.74,14.248 L173.74,12.792 Z M170.8,12.792 L172.242,12.792 L172.242,14.248 L170.8,14.248 L170.8,12.792 Z M179.004,14.752 L180.516,14.752 L180.516,16.894 C180.516,17.1273345 180.513667,17.4563312 180.509,17.881 C180.504333,18.3056688 180.488,18.7419978 180.46,19.19 L180.516,19.19 C180.730668,18.7699979 181.036331,18.4666676 181.433,18.28 C181.829669,18.0933324 182.279997,18 182.784,18 C183.213335,18 183.614665,18.0769992 183.988,18.231 C184.361335,18.3850008 184.683332,18.6113318 184.954,18.91 C185.224668,19.2086682 185.439333,19.5773311 185.598,20.016 C185.756667,20.4546689 185.836,20.9586638 185.836,21.528 C185.836,22.0973362 185.754334,22.6059978 185.591,23.054 C185.427666,23.5020022 185.201335,23.8823318 184.912,24.195 C184.622665,24.5076682 184.286669,24.7479992 183.904,24.916 C183.521331,25.0840008 183.110669,25.168 182.672,25.168 C182.177331,25.168 181.748002,25.0746676 181.384,24.888 C181.019998,24.7013324 180.730668,24.3980021 180.516,23.978 L180.46,23.978 L180.46,25 L179.004,25 L179.004,14.752 Z M180.516,21.584 C180.516,21.9573352 180.562666,22.2909985 180.656,22.585 C180.749334,22.8790015 180.879999,23.1263323 181.048,23.327 C181.216001,23.5276677 181.414332,23.6816661 181.643,23.789 C181.871668,23.8963339 182.121332,23.95 182.392,23.95 C182.933336,23.95 183.378998,23.7353355 183.729,23.306 C184.079002,22.8766645 184.254,22.2840038 184.254,21.528 C184.254,20.7719962 184.079002,20.198002 183.729,19.806 C183.378998,19.413998 182.933336,19.218 182.392,19.218 C182.130665,19.218 181.888001,19.2693328 181.664,19.372 C181.439999,19.4746672 181.244001,19.6216657 181.076,19.813 C180.907999,20.0043343 180.775,20.2399986 180.677,20.52 C180.579,20.8000014 180.525333,21.1173316 180.516,21.472 L180.516,21.584 Z M186.914,21.598 C186.914,21.056664 186.997999,20.5643355 187.166,20.121 C187.334001,19.6776644 187.569665,19.2996682 187.873,18.987 C188.176335,18.6743318 188.533331,18.4316675 188.944,18.259 C189.354669,18.0863325 189.807331,18 190.302,18 C190.778002,18 191.211998,18.0746659 191.604,18.224 C191.996002,18.3733341 192.331999,18.5903319 192.612,18.875 C192.892001,19.1596681 193.108999,19.5073313 193.263,19.918 C193.417001,20.3286687 193.494,20.7999973 193.494,21.332 L193.494,21.836 L188.468,21.836 C188.505334,22.5080034 188.691998,23.0329981 189.028,23.411 C189.364002,23.7890019 189.807331,23.978 190.358,23.978 C190.843336,23.978 191.211999,23.8683344 191.464,23.649 C191.716001,23.4296656 191.879333,23.1800014 191.954,22.9 L193.424,22.9 C193.377333,23.2080015 193.274667,23.4996653 193.116,23.775 C192.957333,24.0503347 192.747335,24.2906656 192.486,24.496 C192.224665,24.7013344 191.914335,24.8646661 191.555,24.986 C191.195665,25.1073339 190.792002,25.168 190.344,25.168 C189.242661,25.168 188.39567,24.8553365 187.803,24.23 C187.21033,23.6046635 186.914,22.727339 186.914,21.598 Z M190.302,19.19 C189.853998,19.19 189.473668,19.3346652 189.161,19.624 C188.848332,19.9133348 188.640667,20.3146641 188.538,20.828 L191.954,20.828 C191.898,20.2679972 191.730001,19.8550013 191.45,19.589 C191.169999,19.3229987 190.787336,19.19 190.302,19.19 Z M195.006,18.168 L196.462,18.168 L196.462,19.162 L196.504,19.162 C196.672001,18.7979982 196.905332,18.5133344 197.204,18.308 C197.502668,18.1026656 197.871331,18 198.31,18 C198.450001,18 198.599333,18.0163332 198.758,18.049 C198.916667,18.0816668 199.084666,18.1586661 199.262,18.28 L198.87,19.624 C198.571332,19.4746659 198.291335,19.4 198.03,19.4 C197.777999,19.4 197.556334,19.4583328 197.365,19.575 C197.173666,19.6916673 197.015001,19.847999 196.889,20.044 C196.762999,20.240001 196.669667,20.4709987 196.609,20.737 C196.548333,21.0030013 196.518,21.2853318 196.518,21.584 L196.518,25 L195.006,25 L195.006,18.168 Z" id="Über" fill="#18191A" fill-rule="nonzero"></path>
        <rect id="divider" fill="#E9EBED" x="155" y="1" width="1" height="38"></rect>
        <path d="M115.176,15.368 L116.758,15.368 L116.758,19.456 L121.602,19.456 L121.602,15.368 L123.198,15.368 L123.198,25 L121.602,25 L121.602,20.8 L116.758,20.8 L116.758,25 L115.176,25 L115.176,15.368 Z M125.34,14.752 L126.964,14.752 L126.964,16.292 L125.34,16.292 L125.34,14.752 Z M125.396,18.168 L126.908,18.168 L126.908,25 L125.396,25 L125.396,18.168 Z M128.966,14.752 L130.478,14.752 L130.478,25 L128.966,25 L128.966,14.752 Z M132.844,19.344 L131.556,19.344 L131.556,18.168 L132.844,18.168 L132.844,17.146 C132.844,16.3526627 133.044665,15.7553353 133.446,15.354 C133.847335,14.9526647 134.481996,14.752 135.35,14.752 L136.218,14.752 L136.218,15.984 L135.49,15.984 C135.060665,15.984 134.764334,16.081999 134.601,16.278 C134.437666,16.474001 134.356,16.7819979 134.356,17.202 L134.356,18.168 L135.994,18.168 L135.994,19.344 L134.356,19.344 L134.356,25 L132.844,25 L132.844,19.344 Z M136.596,21.598 C136.596,21.056664 136.679999,20.5643355 136.848,20.121 C137.016001,19.6776644 137.251665,19.2996682 137.555,18.987 C137.858335,18.6743318 138.215331,18.4316675 138.626,18.259 C139.036669,18.0863325 139.489331,18 139.984,18 C140.460002,18 140.893998,18.0746659 141.286,18.224 C141.678002,18.3733341 142.013999,18.5903319 142.294,18.875 C142.574001,19.1596681 142.790999,19.5073313 142.945,19.918 C143.099001,20.3286687 143.176,20.7999973 143.176,21.332 L143.176,21.836 L138.15,21.836 C138.187334,22.5080034 138.373998,23.0329981 138.71,23.411 C139.046002,23.7890019 139.489331,23.978 140.04,23.978 C140.525336,23.978 140.893999,23.8683344 141.146,23.649 C141.398001,23.4296656 141.561333,23.1800014 141.636,22.9 L143.106,22.9 C143.059333,23.2080015 142.956667,23.4996653 142.798,23.775 C142.639333,24.0503347 142.429335,24.2906656 142.168,24.496 C141.906665,24.7013344 141.596335,24.8646661 141.237,24.986 C140.877665,25.1073339 140.474002,25.168 140.026,25.168 C138.924661,25.168 138.07767,24.8553365 137.485,24.23 C136.89233,23.6046635 136.596,22.727339 136.596,21.598 Z M139.984,19.19 C139.535998,19.19 139.155668,19.3346652 138.843,19.624 C138.530332,19.9133348 138.322667,20.3146641 138.22,20.828 L141.636,20.828 C141.58,20.2679972 141.412001,19.8550013 141.132,19.589 C140.851999,19.3229987 140.469336,19.19 139.984,19.19 Z" id="Hilfe" fill="#18191A" fill-rule="nonzero"></path>
    </g>
</svg>