<?xml version="1.0" encoding="UTF-8"?>
<svg width="324px" height="40px" viewBox="0 0 324 40" version="1.1" xmlns="http://www.w3.org/2000/svg" xmlns:xlink="http://www.w3.org/1999/xlink">
    <!-- Generator: Sketch 53 (72520) - https://sketchapp.com -->
    <title>ui_dk</title>
    <desc>Created with Sketch.</desc>
    <g id="ui_dk" stroke="none" stroke-width="1" fill="none" fill-rule="evenodd">
        <path d="M111.5,6.00691225 C111.5,2.96436096 113.962441,0.5 117.005519,0.5 L318.994481,0.5 C322.037261,0.5 324.5,2.96122714 324.5,6.00691225 L324.5,33.9930877 C324.5,37.035639 322.037559,39.5 318.994481,39.5 L117.005519,39.5 C113.962739,39.5 111.5,37.0387729 111.5,33.9930877 L111.5,6.00691225 Z" id="BG" stroke="#D4D7D8" fill="#FFFFFF"></path>
        <path d="M232.176,15.368 L233.758,15.368 L233.758,19.456 L238.602,19.456 L238.602,15.368 L240.198,15.368 L240.198,25 L238.602,25 L238.602,20.8 L233.758,20.8 L233.758,25 L232.176,25 L232.176,15.368 Z M242.004,23.18 C242.004,22.5733303 242.178998,22.1066683 242.529,21.78 C242.879002,21.4533317 243.445996,21.2293339 244.23,21.108 L245.616,20.884 C245.793334,20.8559999 245.940333,20.8303334 246.057,20.807 C246.173667,20.7836665 246.264666,20.7533335 246.33,20.716 C246.395334,20.6786665 246.439667,20.6273337 246.463,20.562 C246.486333,20.4966663 246.498,20.4126672 246.498,20.31 C246.498,19.9833317 246.388334,19.7056678 246.169,19.477 C245.949666,19.2483322 245.611336,19.134 245.154,19.134 C244.696664,19.134 244.349001,19.2459989 244.111,19.47 C243.872999,19.6940011 243.74,19.9833316 243.712,20.338 L242.27,20.338 C242.316667,19.6286631 242.591997,19.0616688 243.096,18.637 C243.600003,18.2123312 244.285996,18 245.154,18 C246.115338,18 246.831664,18.2193311 247.303,18.658 C247.774336,19.0966689 248.01,19.7173293 248.01,20.52 L248.01,25 L246.568,25 L246.568,23.936 L246.512,23.936 C246.353333,24.3000018 246.082669,24.586999 245.7,24.797 C245.317331,25.007001 244.841336,25.112 244.272,25.112 C243.562663,25.112 243.007335,24.9416684 242.606,24.601 C242.204665,24.2603316 242.004,23.7866697 242.004,23.18 Z M246.498,21.514 C246.367333,21.6820008 246.134002,21.7893331 245.798,21.836 L244.622,22.046 C244.239331,22.1020003 243.959334,22.2069992 243.782,22.361 C243.604666,22.5150008 243.516,22.7366652 243.516,23.026 C243.516,23.3060014 243.609332,23.5346658 243.796,23.712 C243.982668,23.8893342 244.248665,23.978 244.594,23.978 C244.846001,23.978 245.086332,23.940667 245.315,23.866 C245.543668,23.791333 245.744332,23.6770008 245.917,23.523 C246.089668,23.3689992 246.229666,23.1776678 246.337,22.949 C246.444334,22.7203322 246.498,22.4520015 246.498,22.144 L246.498,21.514 Z M249.97,18.168 L251.426,18.168 L251.426,19.162 L251.468,19.162 C251.636001,18.7979982 251.869332,18.5133344 252.168,18.308 C252.466668,18.1026656 252.835331,18 253.274,18 C253.414001,18 253.563333,18.0163332 253.722,18.049 C253.880667,18.0816668 254.048666,18.1586661 254.226,18.28 L253.834,19.624 C253.535332,19.4746659 253.255335,19.4 252.994,19.4 C252.741999,19.4 252.520334,19.4583328 252.329,19.575 C252.137666,19.6916673 251.979001,19.847999 251.853,20.044 C251.726999,20.240001 251.633667,20.4709987 251.573,20.737 C251.512333,21.0030013 251.482,21.2853318 251.482,21.584 L251.482,25 L249.97,25 L249.97,18.168 Z M257.852,21.64 C257.852,21.0706638 257.933666,20.5620022 258.097,20.114 C258.260334,19.6659978 258.486665,19.2856682 258.776,18.973 C259.065335,18.6603318 259.401331,18.4200008 259.784,18.252 C260.166669,18.0839992 260.577331,18 261.016,18 C261.510669,18 261.939998,18.0933324 262.304,18.28 C262.668002,18.4666676 262.957332,18.7699979 263.172,19.19 L263.228,19.19 C263.190666,18.7419978 263.169667,18.3056688 263.165,17.881 C263.160333,17.4563312 263.158,17.1273345 263.158,16.894 L263.158,14.752 L264.67,14.752 L264.67,25 L263.228,25 L263.228,23.978 L263.172,23.978 C262.957332,24.3980021 262.651669,24.7013324 262.255,24.888 C261.858331,25.0746676 261.408003,25.168 260.904,25.168 C260.474665,25.168 260.073335,25.0910008 259.7,24.937 C259.326665,24.7829992 259.004668,24.5566682 258.734,24.258 C258.463332,23.9593318 258.248667,23.5906689 258.09,23.152 C257.931333,22.7133311 257.852,22.2093362 257.852,21.64 Z M259.42,21.64 C259.42,22.3960038 259.597332,22.969998 259.952,23.362 C260.306668,23.754002 260.749997,23.95 261.282,23.95 C261.823336,23.95 262.271332,23.7446687 262.626,23.334 C262.980668,22.9233313 263.158,22.3400038 263.158,21.584 C263.158,20.8279962 262.980668,20.2446687 262.626,19.834 C262.271332,19.4233313 261.823336,19.218 261.282,19.218 C261.011332,19.218 260.764001,19.2739994 260.54,19.386 C260.315999,19.4980006 260.120001,19.658999 259.952,19.869 C259.783999,20.0790011 259.653334,20.3333318 259.56,20.632 C259.466666,20.9306682 259.42,21.2666648 259.42,21.64 Z M266.616,18.168 L268.128,18.168 L268.128,22.116 C268.128,22.7973367 268.260999,23.2709987 268.527,23.537 C268.793001,23.8030013 269.145331,23.936 269.584,23.936 C270.069336,23.936 270.468332,23.740002 270.781,23.348 C271.093668,22.955998 271.25,22.4053369 271.25,21.696 L271.25,18.168 L272.762,18.168 L272.762,25 L271.32,25 L271.32,24.006 L271.264,24.006 C270.871998,24.7806705 270.181338,25.168 269.192,25.168 C268.846665,25.168 268.520002,25.1190005 268.212,25.021 C267.903998,24.9229995 267.631001,24.7620011 267.393,24.538 C267.154999,24.3139989 266.966001,24.0200018 266.826,23.656 C266.685999,23.2919982 266.616,22.8440027 266.616,22.312 L266.616,18.168 Z M278.04,15.368 L281.946,15.368 C282.506003,15.368 283.002998,15.4449992 283.437,15.599 C283.871002,15.7530008 284.234999,15.9676653 284.529,16.243 C284.823001,16.5183347 285.046999,16.8496647 285.201,17.237 C285.355001,17.6243353 285.432,18.0466644 285.432,18.504 C285.432,18.970669 285.355001,19.399998 285.201,19.792 C285.046999,20.184002 284.823001,20.5246652 284.529,20.814 C284.234999,21.1033348 283.871002,21.3296658 283.437,21.493 C283.002998,21.6563341 282.506003,21.738 281.946,21.738 L279.622,21.738 L279.622,25 L278.04,25 L278.04,15.368 Z M279.622,16.684 L279.622,20.436 L281.876,20.436 C282.202668,20.436 282.489665,20.3870005 282.737,20.289 C282.984335,20.1909995 283.189666,20.0533342 283.353,19.876 C283.516334,19.6986658 283.637666,19.4956678 283.717,19.267 C283.796334,19.0383322 283.836,18.788668 283.836,18.518 C283.836,17.976664 283.675002,17.5356684 283.353,17.195 C283.030998,16.8543316 282.53867,16.684 281.876,16.684 L279.622,16.684 Z M287.056,14.752 L288.568,14.752 L288.568,25 L287.056,25 L287.056,14.752 Z M290.514,18.168 L292.026,18.168 L292.026,22.116 C292.026,22.7973367 292.158999,23.2709987 292.425,23.537 C292.691001,23.8030013 293.043331,23.936 293.482,23.936 C293.967336,23.936 294.366332,23.740002 294.679,23.348 C294.991668,22.955998 295.148,22.4053369 295.148,21.696 L295.148,18.168 L296.66,18.168 L296.66,25 L295.218,25 L295.218,24.006 L295.162,24.006 C294.769998,24.7806705 294.079338,25.168 293.09,25.168 C292.744665,25.168 292.418002,25.1190005 292.11,25.021 C291.801998,24.9229995 291.529001,24.7620011 291.291,24.538 C291.052999,24.3139989 290.864001,24.0200018 290.724,23.656 C290.583999,23.2919982 290.514,22.8440027 290.514,22.312 L290.514,18.168 Z M299.656,22.956 C299.656,23.1613344 299.698,23.3363326 299.782,23.481 C299.866,23.6256674 299.977999,23.7446662 300.118,23.838 C300.258001,23.9313338 300.418999,23.9989998 300.601,24.041 C300.783001,24.0830002 300.967332,24.104 301.154,24.104 C301.667336,24.104 302.040665,24.0200008 302.274,23.852 C302.507334,23.6839992 302.624,23.4320017 302.624,23.096 C302.624,22.8439987 302.547001,22.6550006 302.393,22.529 C302.238999,22.4029994 301.989335,22.3120003 301.644,22.256 L300.384,22.046 C300.131999,22.0086665 299.884668,21.9503337 299.642,21.871 C299.399332,21.7916663 299.184668,21.6796674 298.998,21.535 C298.811332,21.3903326 298.659667,21.2083344 298.543,20.989 C298.426333,20.7696656 298.368,20.4966683 298.368,20.17 C298.368,19.8246649 298.437999,19.516668 298.578,19.246 C298.718001,18.975332 298.913999,18.7490009 299.166,18.567 C299.418001,18.3849991 299.714332,18.2450005 300.055,18.147 C300.395668,18.0489995 300.766665,18 301.168,18 C301.560002,18 301.926332,18.0466662 302.267,18.14 C302.607668,18.2333338 302.903999,18.3709991 303.156,18.553 C303.408001,18.7350009 303.603999,18.9636653 303.744,19.239 C303.884001,19.5143347 303.954,19.8339982 303.954,20.198 L302.54,20.198 C302.54,19.8433316 302.414001,19.5656677 302.162,19.365 C301.909999,19.1643323 301.578669,19.064 301.168,19.064 C300.766665,19.064 300.442335,19.1479992 300.195,19.316 C299.947665,19.4840008 299.824,19.7173318 299.824,20.016 C299.824,20.2493345 299.903333,20.4289994 300.062,20.555 C300.220667,20.6810006 300.505331,20.781333 300.916,20.856 L302.176,21.066 C302.437335,21.1126669 302.684665,21.1756663 302.918,21.255 C303.151334,21.3343337 303.358999,21.4463326 303.541,21.591 C303.723001,21.7356674 303.867666,21.9223322 303.975,22.151 C304.082334,22.3796678 304.136,22.6619983 304.136,22.998 C304.136,23.3620018 304.063667,23.6816653 303.919,23.957 C303.774333,24.2323347 303.571335,24.4586658 303.31,24.636 C303.048665,24.8133342 302.736002,24.9463329 302.372,25.035 C302.007998,25.1236671 301.602002,25.168 301.154,25.168 C300.248662,25.168 299.532336,24.9813352 299.005,24.608 C298.477664,24.2346648 298.214,23.6840036 298.214,22.956 L299.656,22.956 Z M307.496,21.808 C307.496,21.4906651 307.528666,21.2083346 307.594,20.961 C307.659334,20.7136654 307.747999,20.4966676 307.86,20.31 C307.972001,20.1233324 308.100333,19.9600007 308.245,19.82 C308.389667,19.6799993 308.541333,19.5540006 308.7,19.442 L309.036,19.19 C309.269335,19.0033324 309.472332,18.812001 309.645,18.616 C309.817668,18.419999 309.904,18.1633349 309.904,17.846 C309.904,17.453998 309.768668,17.1250013 309.498,16.859 C309.227332,16.5929987 308.858669,16.46 308.392,16.46 C308.083998,16.46 307.822668,16.5089995 307.608,16.607 C307.393332,16.7050005 307.216001,16.8379992 307.076,17.006 C306.935999,17.1740008 306.833334,17.3676656 306.768,17.587 C306.702666,17.8063344 306.67,18.0373321 306.67,18.28 L305.2,18.28 C305.2,17.887998 305.262999,17.5053352 305.389,17.132 C305.515001,16.7586648 305.706332,16.4296681 305.963,16.145 C306.219668,15.8603319 306.548665,15.6316675 306.95,15.459 C307.351335,15.2863325 307.831997,15.2 308.392,15.2 C308.840002,15.2 309.250665,15.2583327 309.624,15.375 C309.997335,15.4916672 310.319332,15.6619989 310.59,15.886 C310.860668,16.1100011 311.070666,16.3806651 311.22,16.698 C311.369334,17.0153349 311.444,17.3746647 311.444,17.776 C311.444,18.0560014 311.409,18.3033323 311.339,18.518 C311.269,18.7326677 311.178001,18.9239992 311.066,19.092 C310.953999,19.2600008 310.825667,19.411666 310.681,19.547 C310.536333,19.682334 310.389334,19.8106661 310.24,19.932 L309.904,20.184 C309.642665,20.3706676 309.418668,20.5783322 309.232,20.807 C309.045332,21.0356678 308.952,21.3319982 308.952,21.696 L308.952,22.172 L307.496,22.172 L307.496,21.808 Z M307.384,23.32 L309.05,23.32 L309.05,25 L307.384,25 L307.384,23.32 Z" id="HarduPlus?" fill="#18191A" fill-rule="nonzero"></path>
        <rect id="divider" fill="#D4D7D8" x="218" y="1" width="1" height="38"></rect>
        <path d="M183.616,20.184 C183.616,19.4653297 183.730332,18.8026697 183.959,18.196 C184.187668,17.5893303 184.511998,17.0643355 184.932,16.621 C185.352002,16.1776645 185.855997,15.8300013 186.444,15.578 C187.032003,15.3259987 187.689996,15.2 188.418,15.2 C189.127337,15.2 189.77833,15.3259987 190.371,15.578 C190.96367,15.8300013 191.472331,16.1776645 191.897,16.621 C192.321669,17.0643355 192.650666,17.5893303 192.884,18.196 C193.117334,18.8026697 193.234,19.4653297 193.234,20.184 C193.234,20.9026703 193.117334,21.5653303 192.884,22.172 C192.650666,22.7786697 192.321669,23.3036644 191.897,23.747 C191.472331,24.1903356 190.96367,24.5379987 190.371,24.79 C189.77833,25.0420013 189.127337,25.168 188.418,25.168 C187.689996,25.168 187.032003,25.0420013 186.444,24.79 C185.855997,24.5379987 185.352002,24.1903356 184.932,23.747 C184.511998,23.3036644 184.187668,22.7786697 183.959,22.172 C183.730332,21.5653303 183.616,20.9026703 183.616,20.184 Z M185.254,20.184 C185.254,20.7066693 185.328666,21.1849978 185.478,21.619 C185.627334,22.0530022 185.841999,22.4309984 186.122,22.753 C186.402001,23.0750016 186.735665,23.3246658 187.123,23.502 C187.510335,23.6793342 187.941998,23.768 188.418,23.768 C188.894002,23.768 189.327998,23.6770009 189.72,23.495 C190.112002,23.3129991 190.447999,23.0633349 190.728,22.746 C191.008001,22.4286651 191.222666,22.0506689 191.372,21.612 C191.521334,21.1733311 191.596,20.6973359 191.596,20.184 C191.596,19.6706641 191.521334,19.1946689 191.372,18.756 C191.222666,18.3173311 191.008001,17.9393349 190.728,17.622 C190.447999,17.3046651 190.112002,17.0550009 189.72,16.873 C189.327998,16.6909991 188.894002,16.6 188.418,16.6 C187.941998,16.6 187.510335,16.6886658 187.123,16.866 C186.735665,17.0433342 186.402001,17.2929984 186.122,17.615 C185.841999,17.9370016 185.627334,18.3173311 185.478,18.756 C185.328666,19.1946689 185.254,19.6706641 185.254,20.184 Z M194.872,18.168 L196.328,18.168 L196.328,19.162 L196.384,19.162 C196.580001,18.769998 196.855332,18.4783343 197.21,18.287 C197.564668,18.0956657 197.979998,18 198.456,18 C198.932002,18 199.363665,18.1026656 199.751,18.308 C200.138335,18.5133344 200.429999,18.8633309 200.626,19.358 C200.868668,18.8633309 201.185998,18.5133344 201.578,18.308 C201.970002,18.1026656 202.417997,18 202.922,18 C203.258002,18 203.572999,18.0489995 203.867,18.147 C204.161001,18.2450005 204.417666,18.4036656 204.637,18.623 C204.856334,18.8423344 205.028999,19.1269982 205.155,19.477 C205.281001,19.8270018 205.344,20.2586641 205.344,20.772 L205.344,25 L203.832,25 L203.832,20.954 C203.832,20.3193302 203.720001,19.8736679 203.496,19.617 C203.271999,19.3603321 202.945335,19.232 202.516,19.232 C202.058664,19.232 201.669002,19.4233314 201.347,19.806 C201.024998,20.1886686 200.864,20.7206633 200.864,21.402 L200.864,25 L199.352,25 L199.352,20.954 C199.352,20.3193302 199.235334,19.8736679 199.002,19.617 C198.768665,19.3603321 198.446669,19.232 198.036,19.232 C197.578664,19.232 197.189002,19.4233314 196.867,19.806 C196.544998,20.1886686 196.384,20.7253299 196.384,21.416 L196.384,25 L194.872,25 L194.872,18.168 Z" id="Om" fill="#18191A" fill-rule="nonzero"></path>
        <rect id="divider" fill="#D4D7D8" x="170" y="1" width="1" height="38"></rect>
        <path d="M125.176,15.368 L126.758,15.368 L126.758,19.456 L131.602,19.456 L131.602,15.368 L133.198,15.368 L133.198,25 L131.602,25 L131.602,20.8 L126.758,20.8 L126.758,25 L125.176,25 L125.176,15.368 Z M135.34,14.752 L136.964,14.752 L136.964,16.292 L135.34,16.292 L135.34,14.752 Z M135.396,18.168 L136.908,18.168 L136.908,25.994 C136.908,26.3113349 136.873,26.598332 136.803,26.855 C136.733,27.111668 136.614001,27.3309991 136.446,27.513 C136.277999,27.6950009 136.056335,27.8349995 135.781,27.933 C135.505665,28.0310005 135.167335,28.08 134.766,28.08 L134.248,28.08 L134.248,26.82 L134.598,26.82 C134.896668,26.82 135.104333,26.7430008 135.221,26.589 C135.337667,26.4349992 135.396,26.1853351 135.396,25.84 L135.396,18.168 Z M138.84,20.338 C138.868,19.9179979 138.965999,19.5610015 139.134,19.267 C139.302001,18.9729985 139.516665,18.7326676 139.778,18.546 C140.039335,18.3593324 140.337998,18.2216671 140.674,18.133 C141.010002,18.0443329 141.359998,18 141.724,18 C142.825339,18 143.595331,18.3126635 144.034,18.938 C144.304668,18.6393318 144.626665,18.4083342 145,18.245 C145.373335,18.0816659 145.811997,18 146.316,18 C146.773336,18 147.193331,18.0746659 147.576,18.224 C147.958669,18.3733341 148.285332,18.5903319 148.556,18.875 C148.826668,19.1596681 149.038999,19.5073313 149.193,19.918 C149.347001,20.3286687 149.424,20.7999973 149.424,21.332 L149.424,21.836 L144.566,21.836 C144.603334,22.5173367 144.782998,23.0446648 145.105,23.418 C145.427002,23.7913352 145.849331,23.978 146.372,23.978 C146.614668,23.978 146.822332,23.947667 146.995,23.887 C147.167668,23.826333 147.312333,23.7470005 147.429,23.649 C147.545667,23.5509995 147.639,23.4366673 147.709,23.306 C147.779,23.1753327 147.832666,23.0400007 147.87,22.9 L149.354,22.9 C149.307333,23.2080015 149.202334,23.4996653 149.039,23.775 C148.875666,24.0503347 148.665668,24.2906656 148.409,24.496 C148.152332,24.7013344 147.851335,24.8646661 147.506,24.986 C147.160665,25.1073339 146.778002,25.168 146.358,25.168 C145.72333,25.168 145.184336,25.0536678 144.741,24.825 C144.297664,24.5963322 143.940668,24.2673355 143.67,23.838 C143.501999,24.0993346 143.313001,24.3163325 143.103,24.489 C142.892999,24.6616675 142.669001,24.7969995 142.431,24.895 C142.192999,24.9930005 141.945668,25.0606665 141.689,25.098 C141.432332,25.1353335 141.182668,25.154 140.94,25.154 C140.155996,25.154 139.565669,24.9743351 139.169,24.615 C138.772331,24.2556649 138.574,23.7866696 138.574,23.208 C138.574,22.6199971 138.753665,22.1556684 139.113,21.815 C139.472335,21.4743316 140.053329,21.2386673 140.856,21.108 L142.186,20.884 C142.550002,20.8279997 142.787999,20.769667 142.9,20.709 C143.012001,20.648333 143.068,20.5386675 143.068,20.38 C143.068,20.0253316 142.963001,19.7290012 142.753,19.491 C142.542999,19.2529988 142.200002,19.134 141.724,19.134 C141.331998,19.134 141.000668,19.231999 140.73,19.428 C140.459332,19.624001 140.31,19.9273313 140.282,20.338 L138.84,20.338 Z M141.248,24.02 C141.490668,24.02 141.721666,23.9850003 141.941,23.915 C142.160334,23.8449996 142.353999,23.7353341 142.522,23.586 C142.690001,23.4366659 142.823,23.2476678 142.921,23.019 C143.019,22.7903322 143.068,22.5126683 143.068,22.186 L143.068,21.514 C142.937333,21.6820008 142.704002,21.7893331 142.368,21.836 L141.192,22.046 C140.799998,22.1020003 140.517668,22.2163325 140.345,22.389 C140.172332,22.5616675 140.086,22.783332 140.086,23.054 C140.086,23.3526682 140.188666,23.5883325 140.394,23.761 C140.599334,23.9336675 140.883998,24.02 141.248,24.02 Z M146.316,19.176 C145.867998,19.176 145.499335,19.3229985 145.21,19.617 C144.920665,19.9110015 144.724667,20.3146641 144.622,20.828 L147.856,20.828 C147.809333,20.2959973 147.657668,19.8876681 147.401,19.603 C147.144332,19.3183319 146.782669,19.176 146.316,19.176 Z M150.95,14.752 L152.462,14.752 L152.462,25 L150.95,25 L150.95,14.752 Z M156.032,28.08 L154.52,28.08 L154.52,18.168 L155.976,18.168 L155.976,19.19 L156.032,19.19 C156.246668,18.7699979 156.552331,18.4666676 156.949,18.28 C157.345669,18.0933324 157.795997,18 158.3,18 C158.729335,18 159.130665,18.0769992 159.504,18.231 C159.877335,18.3850008 160.199332,18.6113318 160.47,18.91 C160.740668,19.2086682 160.955333,19.5773311 161.114,20.016 C161.272667,20.4546689 161.352,20.9586638 161.352,21.528 C161.352,22.0973362 161.270334,22.6059978 161.107,23.054 C160.943666,23.5020022 160.717335,23.8823318 160.428,24.195 C160.138665,24.5076682 159.802669,24.7479992 159.42,24.916 C159.037331,25.0840008 158.626669,25.168 158.188,25.168 C157.693331,25.168 157.264002,25.0746676 156.9,24.888 C156.535998,24.7013324 156.246668,24.3980021 156.032,23.978 L155.976,23.978 C156.004,24.4260022 156.020333,24.8623312 156.025,25.287 C156.029667,25.7116688 156.032,26.0406655 156.032,26.274 L156.032,28.08 Z M159.77,21.528 C159.77,20.7719962 159.595002,20.198002 159.245,19.806 C158.894998,19.413998 158.449336,19.218 157.908,19.218 C157.646665,19.218 157.404001,19.2693328 157.18,19.372 C156.955999,19.4746672 156.760001,19.6216657 156.592,19.813 C156.423999,20.0043343 156.291,20.2399986 156.193,20.52 C156.095,20.8000014 156.041333,21.1173316 156.032,21.472 L156.032,21.584 C156.032,21.9573352 156.078666,22.2909985 156.172,22.585 C156.265334,22.8790015 156.395999,23.1263323 156.564,23.327 C156.732001,23.5276677 156.930332,23.6816661 157.159,23.789 C157.387668,23.8963339 157.637332,23.95 157.908,23.95 C158.449336,23.95 158.894998,23.7353355 159.245,23.306 C159.595002,22.8766645 159.77,22.2840038 159.77,21.528 Z" id="Hjælp" fill="#18191A" fill-rule="nonzero"></path>
    </g>
</svg>