<?xml version="1.0" encoding="UTF-8"?>
<svg width="324px" height="40px" viewBox="0 0 324 40" version="1.1" xmlns="http://www.w3.org/2000/svg" xmlns:xlink="http://www.w3.org/1999/xlink">
    <!-- Generator: Sketch 53 (72520) - https://sketchapp.com -->
    <title>ui_en</title>
    <desc>Created with Sketch.</desc>
    <g id="ui_en" stroke="none" stroke-width="1" fill="none" fill-rule="evenodd">
        <path style="pointer-events: auto" d="M118.5,6.00691225 C118.5,2.96513682 120.956624,0.5 123.991173,0.5 L319.008827,0.5 C322.043999,0.5 324.5,2.9615481 324.5,6.00691225 L324.5,33.9930877 C324.5,37.0348632 322.043376,39.5 319.008827,39.5 L123.991173,39.5 C120.956001,39.5 118.5,37.0384519 118.5,33.9930877 L118.5,6.00691225 Z" id="BG" stroke-opacity="0.11" stroke="#000000" fill="#FFFFFF"></path>
        <path d="M258.47,23.726 L258.428,23.726 C258.091998,24.2113358 257.674336,24.5729988 257.175,24.811 C256.675664,25.0490012 256.071337,25.168 255.362,25.168 C254.652663,25.168 254.006336,25.0443346 253.423,24.797 C252.839664,24.5496654 252.340335,24.2043355 251.925,23.761 C251.509665,23.3176645 251.187668,22.7903364 250.959,22.179 C250.730332,21.5676636 250.616,20.9026703 250.616,20.184 C250.616,19.4653297 250.732665,18.8003364 250.966,18.189 C251.199334,17.5776636 251.528331,17.0503355 251.953,16.607 C252.377669,16.1636644 252.88633,15.8183346 253.479,15.571 C254.07167,15.3236654 254.731996,15.2 255.46,15.2 C256.048003,15.2 256.582331,15.2793325 257.063,15.438 C257.543669,15.5966675 257.963665,15.8159986 258.323,16.096 C258.682335,16.3760014 258.978665,16.7049981 259.212,17.083 C259.445335,17.4610019 259.608666,17.8693311 259.702,18.308 L258.092,18.308 C258.017333,18.0746655 257.910001,17.8553344 257.77,17.65 C257.629999,17.4446656 257.452668,17.2650008 257.238,17.111 C257.023332,16.9569992 256.766668,16.8333338 256.468,16.74 C256.169332,16.6466662 255.833335,16.6 255.46,16.6 C254.974664,16.6 254.533669,16.6886658 254.137,16.866 C253.740331,17.0433342 253.402001,17.2906651 253.122,17.608 C252.841999,17.9253349 252.627334,18.3033311 252.478,18.742 C252.328666,19.1806689 252.254,19.6613307 252.254,20.184 C252.254,20.7066693 252.330999,21.1873311 252.485,21.626 C252.639001,22.0646689 252.855999,22.4426651 253.136,22.76 C253.416001,23.0773349 253.749665,23.3246658 254.137,23.502 C254.524335,23.6793342 254.951331,23.768 255.418,23.768 C255.791335,23.768 256.150665,23.7143339 256.496,23.607 C256.841335,23.4996661 257.146999,23.3433344 257.413,23.138 C257.679001,22.9326656 257.888999,22.6806682 258.043,22.382 C258.197001,22.0833318 258.274,21.738002 258.274,21.346 L258.274,21.122 L255.46,21.122 L255.46,19.848 L259.702,19.848 L259.702,25 L258.68,25 L258.47,23.726 Z M261.284,21.584 C261.284,21.0333306 261.370332,20.5363355 261.543,20.093 C261.715668,19.6496645 261.958332,19.2740015 262.271,18.966 C262.583668,18.6579985 262.952331,18.4200008 263.377,18.252 C263.801669,18.0839992 264.265997,18 264.77,18 C265.302003,18 265.782665,18.0816659 266.212,18.245 C266.641335,18.4083342 267.007665,18.6439985 267.311,18.952 C267.614335,19.2600015 267.847666,19.6356645 268.011,20.079 C268.174334,20.5223356 268.256,21.0239972 268.256,21.584 C268.256,22.1346694 268.169668,22.6316645 267.997,23.075 C267.824332,23.5183355 267.584002,23.8939985 267.276,24.202 C266.967998,24.5100015 266.599335,24.7479992 266.17,24.916 C265.740665,25.0840008 265.274003,25.168 264.77,25.168 C264.237997,25.168 263.757335,25.0863341 263.328,24.923 C262.898665,24.7596659 262.532335,24.5240015 262.229,24.216 C261.925665,23.9079985 261.692334,23.5323355 261.529,23.089 C261.365666,22.6456644 261.284,22.1440028 261.284,21.584 Z M262.852,21.584 C262.852,22.3026703 263.026998,22.8766645 263.377,23.306 C263.727002,23.7353355 264.19133,23.95 264.77,23.95 C265.34867,23.95 265.812998,23.7353355 266.163,23.306 C266.513002,22.8766645 266.688,22.3026703 266.688,21.584 C266.688,20.8373296 266.513002,20.2563354 266.163,19.841 C265.812998,19.4256646 265.34867,19.218 264.77,19.218 C264.19133,19.218 263.727002,19.4326645 263.377,19.862 C263.026998,20.2913355 262.852,20.8653297 262.852,21.584 Z M270.048,19.344 L268.76,19.344 L268.76,18.168 L270.048,18.168 L270.048,16.096 L271.56,16.096 L271.56,18.168 L273.31,18.168 L273.31,19.344 L271.56,19.344 L271.56,22.816 C271.56,23.1426683 271.629999,23.3783326 271.77,23.523 C271.910001,23.6676674 272.147998,23.74 272.484,23.74 L273.31,23.74 L273.31,25 L272.288,25 C271.503996,25 270.934668,24.8366683 270.58,24.51 C270.225332,24.1833317 270.048,23.6466704 270.048,22.9 L270.048,19.344 Z M277.902,15.368 L281.808,15.368 C282.368003,15.368 282.864998,15.4449992 283.299,15.599 C283.733002,15.7530008 284.096999,15.9676653 284.391,16.243 C284.685001,16.5183347 284.908999,16.8496647 285.063,17.237 C285.217001,17.6243353 285.294,18.0466644 285.294,18.504 C285.294,18.970669 285.217001,19.399998 285.063,19.792 C284.908999,20.184002 284.685001,20.5246652 284.391,20.814 C284.096999,21.1033348 283.733002,21.3296658 283.299,21.493 C282.864998,21.6563341 282.368003,21.738 281.808,21.738 L279.484,21.738 L279.484,25 L277.902,25 L277.902,15.368 Z M279.484,16.684 L279.484,20.436 L281.738,20.436 C282.064668,20.436 282.351665,20.3870005 282.599,20.289 C282.846335,20.1909995 283.051666,20.0533342 283.215,19.876 C283.378334,19.6986658 283.499666,19.4956678 283.579,19.267 C283.658334,19.0383322 283.698,18.788668 283.698,18.518 C283.698,17.976664 283.537002,17.5356684 283.215,17.195 C282.892998,16.8543316 282.40067,16.684 281.738,16.684 L279.484,16.684 Z M286.918,14.752 L288.43,14.752 L288.43,25 L286.918,25 L286.918,14.752 Z M290.376,18.168 L291.888,18.168 L291.888,22.116 C291.888,22.7973367 292.020999,23.2709987 292.287,23.537 C292.553001,23.8030013 292.905331,23.936 293.344,23.936 C293.829336,23.936 294.228332,23.740002 294.541,23.348 C294.853668,22.955998 295.01,22.4053369 295.01,21.696 L295.01,18.168 L296.522,18.168 L296.522,25 L295.08,25 L295.08,24.006 L295.024,24.006 C294.631998,24.7806705 293.941338,25.168 292.952,25.168 C292.606665,25.168 292.280002,25.1190005 291.972,25.021 C291.663998,24.9229995 291.391001,24.7620011 291.153,24.538 C290.914999,24.3139989 290.726001,24.0200018 290.586,23.656 C290.445999,23.2919982 290.376,22.8440027 290.376,22.312 L290.376,18.168 Z M299.518,22.956 C299.518,23.1613344 299.56,23.3363326 299.644,23.481 C299.728,23.6256674 299.839999,23.7446662 299.98,23.838 C300.120001,23.9313338 300.280999,23.9989998 300.463,24.041 C300.645001,24.0830002 300.829332,24.104 301.016,24.104 C301.529336,24.104 301.902666,24.0200008 302.136,23.852 C302.369334,23.6839992 302.486,23.4320017 302.486,23.096 C302.486,22.8439987 302.409001,22.6550006 302.255,22.529 C302.100999,22.4029994 301.851335,22.3120003 301.506,22.256 L300.246,22.046 C299.993999,22.0086665 299.746668,21.9503337 299.504,21.871 C299.261332,21.7916663 299.046668,21.6796674 298.86,21.535 C298.673332,21.3903326 298.521667,21.2083344 298.405,20.989 C298.288333,20.7696656 298.23,20.4966683 298.23,20.17 C298.23,19.8246649 298.299999,19.516668 298.44,19.246 C298.580001,18.975332 298.775999,18.7490009 299.028,18.567 C299.280001,18.3849991 299.576332,18.2450005 299.917,18.147 C300.257668,18.0489995 300.628665,18 301.03,18 C301.422002,18 301.788332,18.0466662 302.129,18.14 C302.469668,18.2333338 302.765999,18.3709991 303.018,18.553 C303.270001,18.7350009 303.465999,18.9636653 303.606,19.239 C303.746001,19.5143347 303.816,19.8339982 303.816,20.198 L302.402,20.198 C302.402,19.8433316 302.276001,19.5656677 302.024,19.365 C301.771999,19.1643323 301.440669,19.064 301.03,19.064 C300.628665,19.064 300.304335,19.1479992 300.057,19.316 C299.809665,19.4840008 299.686,19.7173318 299.686,20.016 C299.686,20.2493345 299.765333,20.4289994 299.924,20.555 C300.082667,20.6810006 300.367331,20.781333 300.778,20.856 L302.038,21.066 C302.299335,21.1126669 302.546666,21.1756663 302.78,21.255 C303.013334,21.3343337 303.220999,21.4463326 303.403,21.591 C303.585001,21.7356674 303.729666,21.9223322 303.837,22.151 C303.944334,22.3796678 303.998,22.6619983 303.998,22.998 C303.998,23.3620018 303.925667,23.6816653 303.781,23.957 C303.636333,24.2323347 303.433335,24.4586658 303.172,24.636 C302.910665,24.8133342 302.598002,24.9463329 302.234,25.035 C301.869998,25.1236671 301.464002,25.168 301.016,25.168 C300.110662,25.168 299.394336,24.9813352 298.867,24.608 C298.339664,24.2346648 298.076,23.6840036 298.076,22.956 L299.518,22.956 Z M307.358,21.808 C307.358,21.4906651 307.390666,21.2083346 307.456,20.961 C307.521334,20.7136654 307.609999,20.4966676 307.722,20.31 C307.834001,20.1233324 307.962333,19.9600007 308.107,19.82 C308.251667,19.6799993 308.403333,19.5540006 308.562,19.442 L308.898,19.19 C309.131334,19.0033324 309.334332,18.812001 309.507,18.616 C309.679668,18.419999 309.766,18.1633349 309.766,17.846 C309.766,17.453998 309.630668,17.1250013 309.36,16.859 C309.089332,16.5929987 308.720669,16.46 308.254,16.46 C307.945998,16.46 307.684668,16.5089995 307.47,16.607 C307.255332,16.7050005 307.078001,16.8379992 306.938,17.006 C306.797999,17.1740008 306.695334,17.3676656 306.63,17.587 C306.564666,17.8063344 306.532,18.0373321 306.532,18.28 L305.062,18.28 C305.062,17.887998 305.124999,17.5053352 305.251,17.132 C305.377001,16.7586648 305.568332,16.4296681 305.825,16.145 C306.081668,15.8603319 306.410665,15.6316675 306.812,15.459 C307.213335,15.2863325 307.693997,15.2 308.254,15.2 C308.702002,15.2 309.112665,15.2583327 309.486,15.375 C309.859335,15.4916672 310.181332,15.6619989 310.452,15.886 C310.722668,16.1100011 310.932666,16.3806651 311.082,16.698 C311.231334,17.0153349 311.306,17.3746647 311.306,17.776 C311.306,18.0560014 311.271,18.3033323 311.201,18.518 C311.131,18.7326677 311.040001,18.9239992 310.928,19.092 C310.815999,19.2600008 310.687667,19.411666 310.543,19.547 C310.398333,19.682334 310.251334,19.8106661 310.102,19.932 L309.766,20.184 C309.504665,20.3706676 309.280668,20.5783322 309.094,20.807 C308.907332,21.0356678 308.814,21.3319982 308.814,21.696 L308.814,22.172 L307.358,22.172 L307.358,21.808 Z M307.246,23.32 L308.912,23.32 L308.912,25 L307.246,25 L307.246,23.32 Z" id="GotPlus?" fill="#18191A" fill-rule="nonzero"></path>
        <rect id="divider" fill="#E9EBED" x="237" y="1" width="1" height="38"></rect>
        <path d="M190.724,15.368 L192.586,15.368 L196.17,25 L194.504,25 L193.678,22.662 L189.562,22.662 L188.736,25 L187.14,25 L190.724,15.368 Z M191.606,16.936 L190.038,21.346 L193.216,21.346 L191.662,16.936 L191.606,16.936 Z M197.332,14.752 L198.844,14.752 L198.844,16.894 C198.844,17.1273345 198.841667,17.4563312 198.837,17.881 C198.832333,18.3056688 198.816,18.7419978 198.788,19.19 L198.844,19.19 C199.058668,18.7699979 199.364331,18.4666676 199.761,18.28 C200.157669,18.0933324 200.607997,18 201.112,18 C201.541335,18 201.942665,18.0769992 202.316,18.231 C202.689335,18.3850008 203.011332,18.6113318 203.282,18.91 C203.552668,19.2086682 203.767333,19.5773311 203.926,20.016 C204.084667,20.4546689 204.164,20.9586638 204.164,21.528 C204.164,22.0973362 204.082334,22.6059978 203.919,23.054 C203.755666,23.5020022 203.529335,23.8823318 203.24,24.195 C202.950665,24.5076682 202.614669,24.7479992 202.232,24.916 C201.849331,25.0840008 201.438669,25.168 201,25.168 C200.505331,25.168 200.076002,25.0746676 199.712,24.888 C199.347998,24.7013324 199.058668,24.3980021 198.844,23.978 L198.788,23.978 L198.788,25 L197.332,25 L197.332,14.752 Z M198.844,21.584 C198.844,21.9573352 198.890666,22.2909985 198.984,22.585 C199.077334,22.8790015 199.207999,23.1263323 199.376,23.327 C199.544001,23.5276677 199.742332,23.6816661 199.971,23.789 C200.199668,23.8963339 200.449332,23.95 200.72,23.95 C201.261336,23.95 201.706998,23.7353355 202.057,23.306 C202.407002,22.8766645 202.582,22.2840038 202.582,21.528 C202.582,20.7719962 202.407002,20.198002 202.057,19.806 C201.706998,19.413998 201.261336,19.218 200.72,19.218 C200.458665,19.218 200.216001,19.2693328 199.992,19.372 C199.767999,19.4746672 199.572001,19.6216657 199.404,19.813 C199.235999,20.0043343 199.103,20.2399986 199.005,20.52 C198.907,20.8000014 198.853333,21.1173316 198.844,21.472 L198.844,21.584 Z M205.256,21.584 C205.256,21.0333306 205.342332,20.5363355 205.515,20.093 C205.687668,19.6496645 205.930332,19.2740015 206.243,18.966 C206.555668,18.6579985 206.924331,18.4200008 207.349,18.252 C207.773669,18.0839992 208.237997,18 208.742,18 C209.274003,18 209.754665,18.0816659 210.184,18.245 C210.613335,18.4083342 210.979665,18.6439985 211.283,18.952 C211.586335,19.2600015 211.819666,19.6356645 211.983,20.079 C212.146334,20.5223356 212.228,21.0239972 212.228,21.584 C212.228,22.1346694 212.141668,22.6316645 211.969,23.075 C211.796332,23.5183355 211.556002,23.8939985 211.248,24.202 C210.939998,24.5100015 210.571335,24.7479992 210.142,24.916 C209.712665,25.0840008 209.246003,25.168 208.742,25.168 C208.209997,25.168 207.729335,25.0863341 207.3,24.923 C206.870665,24.7596659 206.504335,24.5240015 206.201,24.216 C205.897665,23.9079985 205.664334,23.5323355 205.501,23.089 C205.337666,22.6456644 205.256,22.1440028 205.256,21.584 Z M206.824,21.584 C206.824,22.3026703 206.998998,22.8766645 207.349,23.306 C207.699002,23.7353355 208.16333,23.95 208.742,23.95 C209.32067,23.95 209.784998,23.7353355 210.135,23.306 C210.485002,22.8766645 210.66,22.3026703 210.66,21.584 C210.66,20.8373296 210.485002,20.2563354 210.135,19.841 C209.784998,19.4256646 209.32067,19.218 208.742,19.218 C208.16333,19.218 207.699002,19.4326645 207.349,19.862 C206.998998,20.2913355 206.824,20.8653297 206.824,21.584 Z M213.698,18.168 L215.21,18.168 L215.21,22.116 C215.21,22.7973367 215.342999,23.2709987 215.609,23.537 C215.875001,23.8030013 216.227331,23.936 216.666,23.936 C217.151336,23.936 217.550332,23.740002 217.863,23.348 C218.175668,22.955998 218.332,22.4053369 218.332,21.696 L218.332,18.168 L219.844,18.168 L219.844,25 L218.402,25 L218.402,24.006 L218.346,24.006 C217.953998,24.7806705 217.263338,25.168 216.274,25.168 C215.928665,25.168 215.602002,25.1190005 215.294,25.021 C214.985998,24.9229995 214.713001,24.7620011 214.475,24.538 C214.236999,24.3139989 214.048001,24.0200018 213.908,23.656 C213.767999,23.2919982 213.698,22.8440027 213.698,22.312 L213.698,18.168 Z M222.098,19.344 L220.81,19.344 L220.81,18.168 L222.098,18.168 L222.098,16.096 L223.61,16.096 L223.61,18.168 L225.36,18.168 L225.36,19.344 L223.61,19.344 L223.61,22.816 C223.61,23.1426683 223.679999,23.3783326 223.82,23.523 C223.960001,23.6676674 224.197998,23.74 224.534,23.74 L225.36,23.74 L225.36,25 L224.338,25 C223.553996,25 222.984668,24.8366683 222.63,24.51 C222.275332,24.1833317 222.098,23.6466704 222.098,22.9 L222.098,19.344 Z" id="About" fill="#18191A" fill-rule="nonzero"></path>
        <rect id="divider" fill="#E9EBED" x="173" y="1" width="1" height="38"></rect>
        <path d="M132.176,15.368 L133.758,15.368 L133.758,19.456 L138.602,19.456 L138.602,15.368 L140.198,15.368 L140.198,25 L138.602,25 L138.602,20.8 L133.758,20.8 L133.758,25 L132.176,25 L132.176,15.368 Z M141.906,21.598 C141.906,21.056664 141.989999,20.5643355 142.158,20.121 C142.326001,19.6776644 142.561665,19.2996682 142.865,18.987 C143.168335,18.6743318 143.525331,18.4316675 143.936,18.259 C144.346669,18.0863325 144.799331,18 145.294,18 C145.770002,18 146.203998,18.0746659 146.596,18.224 C146.988002,18.3733341 147.323999,18.5903319 147.604,18.875 C147.884001,19.1596681 148.100999,19.5073313 148.255,19.918 C148.409001,20.3286687 148.486,20.7999973 148.486,21.332 L148.486,21.836 L143.46,21.836 C143.497334,22.5080034 143.683998,23.0329981 144.02,23.411 C144.356002,23.7890019 144.799331,23.978 145.35,23.978 C145.835336,23.978 146.203999,23.8683344 146.456,23.649 C146.708001,23.4296656 146.871333,23.1800014 146.946,22.9 L148.416,22.9 C148.369333,23.2080015 148.266667,23.4996653 148.108,23.775 C147.949333,24.0503347 147.739335,24.2906656 147.478,24.496 C147.216665,24.7013344 146.906335,24.8646661 146.547,24.986 C146.187665,25.1073339 145.784002,25.168 145.336,25.168 C144.234661,25.168 143.38767,24.8553365 142.795,24.23 C142.20233,23.6046635 141.906,22.727339 141.906,21.598 Z M145.294,19.19 C144.845998,19.19 144.465668,19.3346652 144.153,19.624 C143.840332,19.9133348 143.632667,20.3146641 143.53,20.828 L146.946,20.828 C146.89,20.2679972 146.722001,19.8550013 146.442,19.589 C146.161999,19.3229987 145.779336,19.19 145.294,19.19 Z M149.998,14.752 L151.51,14.752 L151.51,25 L149.998,25 L149.998,14.752 Z M155.08,28.08 L153.568,28.08 L153.568,18.168 L155.024,18.168 L155.024,19.19 L155.08,19.19 C155.294668,18.7699979 155.600331,18.4666676 155.997,18.28 C156.393669,18.0933324 156.843997,18 157.348,18 C157.777335,18 158.178665,18.0769992 158.552,18.231 C158.925335,18.3850008 159.247332,18.6113318 159.518,18.91 C159.788668,19.2086682 160.003333,19.5773311 160.162,20.016 C160.320667,20.4546689 160.4,20.9586638 160.4,21.528 C160.4,22.0973362 160.318334,22.6059978 160.155,23.054 C159.991666,23.5020022 159.765335,23.8823318 159.476,24.195 C159.186665,24.5076682 158.850669,24.7479992 158.468,24.916 C158.085331,25.0840008 157.674669,25.168 157.236,25.168 C156.741331,25.168 156.312002,25.0746676 155.948,24.888 C155.583998,24.7013324 155.294668,24.3980021 155.08,23.978 L155.024,23.978 C155.052,24.4260022 155.068333,24.8623312 155.073,25.287 C155.077667,25.7116688 155.08,26.0406655 155.08,26.274 L155.08,28.08 Z M158.818,21.528 C158.818,20.7719962 158.643002,20.198002 158.293,19.806 C157.942998,19.413998 157.497336,19.218 156.956,19.218 C156.694665,19.218 156.452001,19.2693328 156.228,19.372 C156.003999,19.4746672 155.808001,19.6216657 155.64,19.813 C155.471999,20.0043343 155.339,20.2399986 155.241,20.52 C155.143,20.8000014 155.089333,21.1173316 155.08,21.472 L155.08,21.584 C155.08,21.9573352 155.126666,22.2909985 155.22,22.585 C155.313334,22.8790015 155.443999,23.1263323 155.612,23.327 C155.780001,23.5276677 155.978332,23.6816661 156.207,23.789 C156.435668,23.8963339 156.685332,23.95 156.956,23.95 C157.497336,23.95 157.942998,23.7353355 158.293,23.306 C158.643002,22.8766645 158.818,22.2840038 158.818,21.528 Z" id="Help" fill="#18191A" fill-rule="nonzero"></path>
    </g>
</svg>
