<?xml version="1.0" encoding="UTF-8"?>
<svg width="324px" height="40px" viewBox="0 0 324 40" version="1.1" xmlns="http://www.w3.org/2000/svg" xmlns:xlink="http://www.w3.org/1999/xlink">
    <!-- Generator: Sketch 53 (72520) - https://sketchapp.com -->
    <title>ui_es</title>
    <desc>Created with Sketch.</desc>
    <g id="ui_es" stroke="none" stroke-width="1" fill="none" fill-rule="evenodd">
        <path d="M56.5,6.00691225 C56.5,2.96753974 58.9697999,0.5 62.0072671,0.5 L318.992733,0.5 C322.03644,0.5 324.5,2.96118802 324.5,6.00691225 L324.5,33.9930877 C324.5,37.0324603 322.0302,39.5 318.992733,39.5 L62.0072671,39.5 C58.96356,39.5 56.5,37.038812 56.5,33.9930877 L56.5,6.00691225 Z" id="BG" stroke-opacity="0.11" stroke="#000000" fill="#FFFFFF"></path>
        <path d="M229.424,21.36 C229.424,21.6866683 229.389,21.9713321 229.319,22.214 C229.249,22.4566679 229.158001,22.6713324 229.046,22.858 C228.933999,23.0446676 228.805667,23.2079993 228.661,23.348 C228.516333,23.4880007 228.369334,23.6139994 228.22,23.726 L227.87,23.978 C227.636665,24.1646676 227.436001,24.355999 227.268,24.552 C227.099999,24.748001 227.016,25.0046651 227.016,25.322 C227.016,25.714002 227.148999,26.0429987 227.415,26.309 C227.681001,26.5750013 228.051998,26.708 228.528,26.708 C228.826668,26.708 229.083332,26.6590005 229.298,26.561 C229.512668,26.4629995 229.689999,26.3300008 229.83,26.162 C229.970001,25.9939992 230.072666,25.8003344 230.138,25.581 C230.203334,25.3616656 230.236,25.1306679 230.236,24.888 L231.72,24.888 C231.72,25.280002 231.657001,25.6626648 231.531,26.036 C231.404999,26.4093352 231.213668,26.7383319 230.957,27.023 C230.700332,27.3076681 230.371335,27.5363325 229.97,27.709 C229.568665,27.8816675 229.088003,27.968 228.528,27.968 C228.079998,27.968 227.667002,27.9096672 227.289,27.793 C226.910998,27.6763328 226.589001,27.5060011 226.323,27.282 C226.056999,27.0579989 225.849334,26.7873349 225.7,26.47 C225.550666,26.1526651 225.476,25.7933353 225.476,25.392 C225.476,25.1119986 225.508666,24.8646677 225.574,24.65 C225.639334,24.4353323 225.727999,24.2440008 225.84,24.076 C225.952001,23.9079992 226.080333,23.756334 226.225,23.621 C226.369667,23.485666 226.521333,23.3573339 226.68,23.236 L227.016,22.984 C227.277335,22.7973324 227.498999,22.5896678 227.681,22.361 C227.863001,22.1323322 227.954,21.8360018 227.954,21.472 L227.954,20.996 L229.424,20.996 L229.424,21.36 Z M229.522,19.848 L227.856,19.848 L227.856,18.168 L229.522,18.168 L229.522,19.848 Z M232.252,15.368 L240.456,15.368 L240.456,16.698 L237.138,16.698 L237.138,25 L235.556,25 L235.556,16.698 L232.252,16.698 L232.252,15.368 Z M241.534,14.752 L243.158,14.752 L243.158,16.292 L241.534,16.292 L241.534,14.752 Z M241.59,18.168 L243.102,18.168 L243.102,25 L241.59,25 L241.59,18.168 Z M244.67,21.598 C244.67,21.056664 244.753999,20.5643355 244.922,20.121 C245.090001,19.6776644 245.325665,19.2996682 245.629,18.987 C245.932335,18.6743318 246.289331,18.4316675 246.7,18.259 C247.110669,18.0863325 247.563331,18 248.058,18 C248.534002,18 248.967998,18.0746659 249.36,18.224 C249.752002,18.3733341 250.087999,18.5903319 250.368,18.875 C250.648001,19.1596681 250.864999,19.5073313 251.019,19.918 C251.173001,20.3286687 251.25,20.7999973 251.25,21.332 L251.25,21.836 L246.224,21.836 C246.261334,22.5080034 246.447998,23.0329981 246.784,23.411 C247.120002,23.7890019 247.563331,23.978 248.114,23.978 C248.599336,23.978 248.967999,23.8683344 249.22,23.649 C249.472001,23.4296656 249.635333,23.1800014 249.71,22.9 L251.18,22.9 C251.133333,23.2080015 251.030667,23.4996653 250.872,23.775 C250.713333,24.0503347 250.503335,24.2906656 250.242,24.496 C249.980665,24.7013344 249.670335,24.8646661 249.311,24.986 C248.951665,25.1073339 248.548002,25.168 248.1,25.168 C246.998661,25.168 246.15167,24.8553365 245.559,24.23 C244.96633,23.6046635 244.67,22.727339 244.67,21.598 Z M248.058,19.19 C247.609998,19.19 247.229668,19.3346652 246.917,19.624 C246.604332,19.9133348 246.396667,20.3146641 246.294,20.828 L249.71,20.828 C249.654,20.2679972 249.486001,19.8550013 249.206,19.589 C248.925999,19.3229987 248.543336,19.19 248.058,19.19 Z M252.762,18.168 L254.218,18.168 L254.218,19.162 L254.274,19.162 C254.666002,18.3873295 255.370662,18 256.388,18 C256.724002,18 257.048332,18.0489995 257.361,18.147 C257.673668,18.2450005 257.946665,18.4059989 258.18,18.63 C258.413335,18.8540011 258.599999,19.1479982 258.74,19.512 C258.880001,19.8760018 258.95,20.3239973 258.95,20.856 L258.95,25 L257.438,25 L257.438,21.052 C257.438,20.3706633 257.307335,19.8970013 257.046,19.631 C256.784665,19.3649987 256.430002,19.232 255.982,19.232 C255.496664,19.232 255.090668,19.4256647 254.764,19.813 C254.437332,20.2003353 254.274,20.7393299 254.274,21.43 L254.274,25 L252.762,25 L252.762,18.168 Z M260.406,21.598 C260.406,21.056664 260.489999,20.5643355 260.658,20.121 C260.826001,19.6776644 261.061665,19.2996682 261.365,18.987 C261.668335,18.6743318 262.025331,18.4316675 262.436,18.259 C262.846669,18.0863325 263.299331,18 263.794,18 C264.270002,18 264.703998,18.0746659 265.096,18.224 C265.488002,18.3733341 265.823999,18.5903319 266.104,18.875 C266.384001,19.1596681 266.600999,19.5073313 266.755,19.918 C266.909001,20.3286687 266.986,20.7999973 266.986,21.332 L266.986,21.836 L261.96,21.836 C261.997334,22.5080034 262.183998,23.0329981 262.52,23.411 C262.856002,23.7890019 263.299331,23.978 263.85,23.978 C264.335336,23.978 264.703999,23.8683344 264.956,23.649 C265.208001,23.4296656 265.371333,23.1800014 265.446,22.9 L266.916,22.9 C266.869333,23.2080015 266.766667,23.4996653 266.608,23.775 C266.449333,24.0503347 266.239335,24.2906656 265.978,24.496 C265.716665,24.7013344 265.406335,24.8646661 265.047,24.986 C264.687665,25.1073339 264.284002,25.168 263.836,25.168 C262.734661,25.168 261.88767,24.8553365 261.295,24.23 C260.70233,23.6046635 260.406,22.727339 260.406,21.598 Z M263.794,19.19 C263.345998,19.19 262.965668,19.3346652 262.653,19.624 C262.340332,19.9133348 262.132667,20.3146641 262.03,20.828 L265.446,20.828 C265.39,20.2679972 265.222001,19.8550013 264.942,19.589 C264.661999,19.3229987 264.279336,19.19 263.794,19.19 Z M269.45,22.956 C269.45,23.1613344 269.492,23.3363326 269.576,23.481 C269.66,23.6256674 269.771999,23.7446662 269.912,23.838 C270.052001,23.9313338 270.212999,23.9989998 270.395,24.041 C270.577001,24.0830002 270.761332,24.104 270.948,24.104 C271.461336,24.104 271.834666,24.0200008 272.068,23.852 C272.301334,23.6839992 272.418,23.4320017 272.418,23.096 C272.418,22.8439987 272.341001,22.6550006 272.187,22.529 C272.032999,22.4029994 271.783335,22.3120003 271.438,22.256 L270.178,22.046 C269.925999,22.0086665 269.678668,21.9503337 269.436,21.871 C269.193332,21.7916663 268.978668,21.6796674 268.792,21.535 C268.605332,21.3903326 268.453667,21.2083344 268.337,20.989 C268.220333,20.7696656 268.162,20.4966683 268.162,20.17 C268.162,19.8246649 268.231999,19.516668 268.372,19.246 C268.512001,18.975332 268.707999,18.7490009 268.96,18.567 C269.212001,18.3849991 269.508332,18.2450005 269.849,18.147 C270.189668,18.0489995 270.560665,18 270.962,18 C271.354002,18 271.720332,18.0466662 272.061,18.14 C272.401668,18.2333338 272.697999,18.3709991 272.95,18.553 C273.202001,18.7350009 273.397999,18.9636653 273.538,19.239 C273.678001,19.5143347 273.748,19.8339982 273.748,20.198 L272.334,20.198 C272.334,19.8433316 272.208001,19.5656677 271.956,19.365 C271.703999,19.1643323 271.372669,19.064 270.962,19.064 C270.560665,19.064 270.236335,19.1479992 269.989,19.316 C269.741665,19.4840008 269.618,19.7173318 269.618,20.016 C269.618,20.2493345 269.697333,20.4289994 269.856,20.555 C270.014667,20.6810006 270.299331,20.781333 270.71,20.856 L271.97,21.066 C272.231335,21.1126669 272.478666,21.1756663 272.712,21.255 C272.945335,21.3343337 273.152999,21.4463326 273.335,21.591 C273.517001,21.7356674 273.661666,21.9223322 273.769,22.151 C273.876334,22.3796678 273.93,22.6619983 273.93,22.998 C273.93,23.3620018 273.857667,23.6816653 273.713,23.957 C273.568333,24.2323347 273.365335,24.4586658 273.104,24.636 C272.842665,24.8133342 272.530002,24.9463329 272.166,25.035 C271.801998,25.1236671 271.396002,25.168 270.948,25.168 C270.042662,25.168 269.326336,24.9813352 268.799,24.608 C268.271664,24.2346648 268.008,23.6840036 268.008,22.956 L269.45,22.956 Z M278.774,15.368 L282.68,15.368 C283.240003,15.368 283.736998,15.4449992 284.171,15.599 C284.605002,15.7530008 284.968999,15.9676653 285.263,16.243 C285.557001,16.5183347 285.780999,16.8496647 285.935,17.237 C286.089001,17.6243353 286.166,18.0466644 286.166,18.504 C286.166,18.970669 286.089001,19.399998 285.935,19.792 C285.780999,20.184002 285.557001,20.5246652 285.263,20.814 C284.968999,21.1033348 284.605002,21.3296658 284.171,21.493 C283.736998,21.6563341 283.240003,21.738 282.68,21.738 L280.356,21.738 L280.356,25 L278.774,25 L278.774,15.368 Z M280.356,16.684 L280.356,20.436 L282.61,20.436 C282.936668,20.436 283.223665,20.3870005 283.471,20.289 C283.718335,20.1909995 283.923666,20.0533342 284.087,19.876 C284.250334,19.6986658 284.371666,19.4956678 284.451,19.267 C284.530334,19.0383322 284.57,18.788668 284.57,18.518 C284.57,17.976664 284.409002,17.5356684 284.087,17.195 C283.764998,16.8543316 283.27267,16.684 282.61,16.684 L280.356,16.684 Z M287.79,14.752 L289.302,14.752 L289.302,25 L287.79,25 L287.79,14.752 Z M291.248,18.168 L292.76,18.168 L292.76,22.116 C292.76,22.7973367 292.892999,23.2709987 293.159,23.537 C293.425001,23.8030013 293.777331,23.936 294.216,23.936 C294.701336,23.936 295.100332,23.740002 295.413,23.348 C295.725668,22.955998 295.882,22.4053369 295.882,21.696 L295.882,18.168 L297.394,18.168 L297.394,25 L295.952,25 L295.952,24.006 L295.896,24.006 C295.503998,24.7806705 294.813338,25.168 293.824,25.168 C293.478665,25.168 293.152002,25.1190005 292.844,25.021 C292.535998,24.9229995 292.263001,24.7620011 292.025,24.538 C291.786999,24.3139989 291.598001,24.0200018 291.458,23.656 C291.317999,23.2919982 291.248,22.8440027 291.248,22.312 L291.248,18.168 Z M300.39,22.956 C300.39,23.1613344 300.432,23.3363326 300.516,23.481 C300.6,23.6256674 300.711999,23.7446662 300.852,23.838 C300.992001,23.9313338 301.152999,23.9989998 301.335,24.041 C301.517001,24.0830002 301.701332,24.104 301.888,24.104 C302.401336,24.104 302.774665,24.0200008 303.008,23.852 C303.241334,23.6839992 303.358,23.4320017 303.358,23.096 C303.358,22.8439987 303.281001,22.6550006 303.127,22.529 C302.972999,22.4029994 302.723335,22.3120003 302.378,22.256 L301.118,22.046 C300.865999,22.0086665 300.618668,21.9503337 300.376,21.871 C300.133332,21.7916663 299.918668,21.6796674 299.732,21.535 C299.545332,21.3903326 299.393667,21.2083344 299.277,20.989 C299.160333,20.7696656 299.102,20.4966683 299.102,20.17 C299.102,19.8246649 299.171999,19.516668 299.312,19.246 C299.452001,18.975332 299.647999,18.7490009 299.9,18.567 C300.152001,18.3849991 300.448332,18.2450005 300.789,18.147 C301.129668,18.0489995 301.500665,18 301.902,18 C302.294002,18 302.660332,18.0466662 303.001,18.14 C303.341668,18.2333338 303.637999,18.3709991 303.89,18.553 C304.142001,18.7350009 304.337999,18.9636653 304.478,19.239 C304.618001,19.5143347 304.688,19.8339982 304.688,20.198 L303.274,20.198 C303.274,19.8433316 303.148001,19.5656677 302.896,19.365 C302.643999,19.1643323 302.312669,19.064 301.902,19.064 C301.500665,19.064 301.176335,19.1479992 300.929,19.316 C300.681665,19.4840008 300.558,19.7173318 300.558,20.016 C300.558,20.2493345 300.637333,20.4289994 300.796,20.555 C300.954667,20.6810006 301.239331,20.781333 301.65,20.856 L302.91,21.066 C303.171335,21.1126669 303.418665,21.1756663 303.652,21.255 C303.885334,21.3343337 304.092999,21.4463326 304.275,21.591 C304.457001,21.7356674 304.601666,21.9223322 304.709,22.151 C304.816334,22.3796678 304.87,22.6619983 304.87,22.998 C304.87,23.3620018 304.797667,23.6816653 304.653,23.957 C304.508333,24.2323347 304.305335,24.4586658 304.044,24.636 C303.782665,24.8133342 303.470002,24.9463329 303.106,25.035 C302.741998,25.1236671 302.336002,25.168 301.888,25.168 C300.982662,25.168 300.266336,24.9813352 299.739,24.608 C299.211664,24.2346648 298.948,23.6840036 298.948,22.956 L300.39,22.956 Z M308.23,21.808 C308.23,21.4906651 308.262666,21.2083346 308.328,20.961 C308.393334,20.7136654 308.481999,20.4966676 308.594,20.31 C308.706001,20.1233324 308.834333,19.9600007 308.979,19.82 C309.123667,19.6799993 309.275333,19.5540006 309.434,19.442 L309.77,19.19 C310.003334,19.0033324 310.206332,18.812001 310.379,18.616 C310.551668,18.419999 310.638,18.1633349 310.638,17.846 C310.638,17.453998 310.502668,17.1250013 310.232,16.859 C309.961332,16.5929987 309.592669,16.46 309.126,16.46 C308.817998,16.46 308.556668,16.5089995 308.342,16.607 C308.127332,16.7050005 307.950001,16.8379992 307.81,17.006 C307.669999,17.1740008 307.567334,17.3676656 307.502,17.587 C307.436666,17.8063344 307.404,18.0373321 307.404,18.28 L305.934,18.28 C305.934,17.887998 305.996999,17.5053352 306.123,17.132 C306.249001,16.7586648 306.440332,16.4296681 306.697,16.145 C306.953668,15.8603319 307.282665,15.6316675 307.684,15.459 C308.085335,15.2863325 308.565997,15.2 309.126,15.2 C309.574002,15.2 309.984665,15.2583327 310.358,15.375 C310.731335,15.4916672 311.053332,15.6619989 311.324,15.886 C311.594668,16.1100011 311.804666,16.3806651 311.954,16.698 C312.103334,17.0153349 312.178,17.3746647 312.178,17.776 C312.178,18.0560014 312.143,18.3033323 312.073,18.518 C312.003,18.7326677 311.912001,18.9239992 311.8,19.092 C311.687999,19.2600008 311.559667,19.411666 311.415,19.547 C311.270333,19.682334 311.123334,19.8106661 310.974,19.932 L310.638,20.184 C310.376665,20.3706676 310.152668,20.5783322 309.966,20.807 C309.779332,21.0356678 309.686,21.3319982 309.686,21.696 L309.686,22.172 L308.23,22.172 L308.23,21.808 Z M308.118,23.32 L309.784,23.32 L309.784,25 L308.118,25 L308.118,23.32 Z" id="¿TienesPlus?" fill="#18191A" fill-rule="nonzero"></path>
        <rect id="divider" fill="#E9EBED" x="211" y="1" width="1" height="38"></rect>
        <path d="M139.724,15.368 L141.586,15.368 L145.17,25 L143.504,25 L142.678,22.662 L138.562,22.662 L137.736,25 L136.14,25 L139.724,15.368 Z M140.606,16.936 L139.038,21.346 L142.216,21.346 L140.662,16.936 L140.606,16.936 Z M145.842,21.584 C145.842,21.0333306 145.925999,20.5363355 146.094,20.093 C146.262001,19.6496645 146.497665,19.2740015 146.801,18.966 C147.104335,18.6579985 147.463665,18.4200008 147.879,18.252 C148.294335,18.0839992 148.749331,18 149.244,18 C149.720002,18 150.142331,18.0653327 150.511,18.196 C150.879669,18.3266673 151.194665,18.5063322 151.456,18.735 C151.717335,18.9636678 151.920333,19.2389984 152.065,19.561 C152.209667,19.8830016 152.305333,20.239998 152.352,20.632 L150.868,20.632 C150.802666,20.2119979 150.641668,19.8713346 150.385,19.61 C150.128332,19.3486654 149.748003,19.218 149.244,19.218 C148.973332,19.218 148.726001,19.2739994 148.502,19.386 C148.277999,19.4980006 148.086667,19.658999 147.928,19.869 C147.769333,20.0790011 147.643334,20.3286652 147.55,20.618 C147.456666,20.9073348 147.41,21.2293316 147.41,21.584 C147.41,21.9386684 147.456666,22.2606652 147.55,22.55 C147.643334,22.8393348 147.769333,23.088999 147.928,23.299 C148.086667,23.509001 148.277999,23.6699994 148.502,23.782 C148.726001,23.8940006 148.973332,23.95 149.244,23.95 C149.748003,23.95 150.128332,23.8193346 150.385,23.558 C150.641668,23.2966654 150.802666,22.9560021 150.868,22.536 L152.352,22.536 C152.305333,22.928002 152.209667,23.2849984 152.065,23.607 C151.920333,23.9290016 151.717335,24.2043322 151.456,24.433 C151.194665,24.6616678 150.879669,24.8413327 150.511,24.972 C150.142331,25.1026673 149.720002,25.168 149.244,25.168 C148.721331,25.168 148.250002,25.0863341 147.83,24.923 C147.409998,24.7596659 147.053001,24.5240015 146.759,24.216 C146.464999,23.9079985 146.238667,23.5323355 146.08,23.089 C145.921333,22.6456644 145.842,22.1440028 145.842,21.584 Z M153.318,21.598 C153.318,21.056664 153.401999,20.5643355 153.57,20.121 C153.738001,19.6776644 153.973665,19.2996682 154.277,18.987 C154.580335,18.6743318 154.937331,18.4316675 155.348,18.259 C155.758669,18.0863325 156.211331,18 156.706,18 C157.182002,18 157.615998,18.0746659 158.008,18.224 C158.400002,18.3733341 158.735999,18.5903319 159.016,18.875 C159.296001,19.1596681 159.512999,19.5073313 159.667,19.918 C159.821001,20.3286687 159.898,20.7999973 159.898,21.332 L159.898,21.836 L154.872,21.836 C154.909334,22.5080034 155.095998,23.0329981 155.432,23.411 C155.768002,23.7890019 156.211331,23.978 156.762,23.978 C157.247336,23.978 157.615999,23.8683344 157.868,23.649 C158.120001,23.4296656 158.283333,23.1800014 158.358,22.9 L159.828,22.9 C159.781333,23.2080015 159.678667,23.4996653 159.52,23.775 C159.361333,24.0503347 159.151335,24.2906656 158.89,24.496 C158.628665,24.7013344 158.318335,24.8646661 157.959,24.986 C157.599665,25.1073339 157.196002,25.168 156.748,25.168 C155.646661,25.168 154.79967,24.8553365 154.207,24.23 C153.61433,23.6046635 153.318,22.727339 153.318,21.598 Z M156.706,19.19 C156.257998,19.19 155.877668,19.3346652 155.565,19.624 C155.252332,19.9133348 155.044667,20.3146641 154.942,20.828 L158.358,20.828 C158.302,20.2679972 158.134001,19.8550013 157.854,19.589 C157.573999,19.3229987 157.191336,19.19 156.706,19.19 Z M161.41,18.168 L162.866,18.168 L162.866,19.162 L162.908,19.162 C163.076001,18.7979982 163.309332,18.5133344 163.608,18.308 C163.906668,18.1026656 164.275331,18 164.714,18 C164.854001,18 165.003333,18.0163332 165.162,18.049 C165.320667,18.0816668 165.488666,18.1586661 165.666,18.28 L165.274,19.624 C164.975332,19.4746659 164.695335,19.4 164.434,19.4 C164.181999,19.4 163.960334,19.4583328 163.769,19.575 C163.577666,19.6916673 163.419001,19.847999 163.293,20.044 C163.166999,20.240001 163.073667,20.4709987 163.013,20.737 C162.952333,21.0030013 162.922,21.2853318 162.922,21.584 L162.922,25 L161.41,25 L161.41,18.168 Z M166.198,21.584 C166.198,21.0333306 166.281999,20.5363355 166.45,20.093 C166.618001,19.6496645 166.853665,19.2740015 167.157,18.966 C167.460335,18.6579985 167.819665,18.4200008 168.235,18.252 C168.650335,18.0839992 169.105331,18 169.6,18 C170.076002,18 170.498331,18.0653327 170.867,18.196 C171.235669,18.3266673 171.550665,18.5063322 171.812,18.735 C172.073335,18.9636678 172.276333,19.2389984 172.421,19.561 C172.565667,19.8830016 172.661333,20.239998 172.708,20.632 L171.224,20.632 C171.158666,20.2119979 170.997668,19.8713346 170.741,19.61 C170.484332,19.3486654 170.104003,19.218 169.6,19.218 C169.329332,19.218 169.082001,19.2739994 168.858,19.386 C168.633999,19.4980006 168.442667,19.658999 168.284,19.869 C168.125333,20.0790011 167.999334,20.3286652 167.906,20.618 C167.812666,20.9073348 167.766,21.2293316 167.766,21.584 C167.766,21.9386684 167.812666,22.2606652 167.906,22.55 C167.999334,22.8393348 168.125333,23.088999 168.284,23.299 C168.442667,23.509001 168.633999,23.6699994 168.858,23.782 C169.082001,23.8940006 169.329332,23.95 169.6,23.95 C170.104003,23.95 170.484332,23.8193346 170.741,23.558 C170.997668,23.2966654 171.158666,22.9560021 171.224,22.536 L172.708,22.536 C172.661333,22.928002 172.565667,23.2849984 172.421,23.607 C172.276333,23.9290016 172.073335,24.2043322 171.812,24.433 C171.550665,24.6616678 171.235669,24.8413327 170.867,24.972 C170.498331,25.1026673 170.076002,25.168 169.6,25.168 C169.077331,25.168 168.606002,25.0863341 168.186,24.923 C167.765998,24.7596659 167.409001,24.5240015 167.115,24.216 C166.820999,23.9079985 166.594667,23.5323355 166.436,23.089 C166.277333,22.6456644 166.198,22.1440028 166.198,21.584 Z M173.772,23.18 C173.772,22.5733303 173.946998,22.1066683 174.297,21.78 C174.647002,21.4533317 175.213996,21.2293339 175.998,21.108 L177.384,20.884 C177.561334,20.8559999 177.708333,20.8303334 177.825,20.807 C177.941667,20.7836665 178.032666,20.7533335 178.098,20.716 C178.163334,20.6786665 178.207667,20.6273337 178.231,20.562 C178.254333,20.4966663 178.266,20.4126672 178.266,20.31 C178.266,19.9833317 178.156334,19.7056678 177.937,19.477 C177.717666,19.2483322 177.379336,19.134 176.922,19.134 C176.464664,19.134 176.117001,19.2459989 175.879,19.47 C175.640999,19.6940011 175.508,19.9833316 175.48,20.338 L174.038,20.338 C174.084667,19.6286631 174.359997,19.0616688 174.864,18.637 C175.368003,18.2123312 176.053996,18 176.922,18 C177.883338,18 178.599664,18.2193311 179.071,18.658 C179.542336,19.0966689 179.778,19.7173293 179.778,20.52 L179.778,25 L178.336,25 L178.336,23.936 L178.28,23.936 C178.121333,24.3000018 177.850669,24.586999 177.468,24.797 C177.085331,25.007001 176.609336,25.112 176.04,25.112 C175.330663,25.112 174.775335,24.9416684 174.374,24.601 C173.972665,24.2603316 173.772,23.7866697 173.772,23.18 Z M178.266,21.514 C178.135333,21.6820008 177.902002,21.7893331 177.566,21.836 L176.39,22.046 C176.007331,22.1020003 175.727334,22.2069992 175.55,22.361 C175.372666,22.5150008 175.284,22.7366652 175.284,23.026 C175.284,23.3060014 175.377332,23.5346658 175.564,23.712 C175.750668,23.8893342 176.016665,23.978 176.362,23.978 C176.614001,23.978 176.854332,23.940667 177.083,23.866 C177.311668,23.791333 177.512332,23.6770008 177.685,23.523 C177.857668,23.3689992 177.997666,23.1776678 178.105,22.949 C178.212334,22.7203322 178.266,22.4520015 178.266,22.144 L178.266,21.514 Z M184.342,21.64 C184.342,21.0706638 184.423666,20.5620022 184.587,20.114 C184.750334,19.6659978 184.976665,19.2856682 185.266,18.973 C185.555335,18.6603318 185.891331,18.4200008 186.274,18.252 C186.656669,18.0839992 187.067331,18 187.506,18 C188.000669,18 188.429998,18.0933324 188.794,18.28 C189.158002,18.4666676 189.447332,18.7699979 189.662,19.19 L189.718,19.19 C189.680666,18.7419978 189.659667,18.3056688 189.655,17.881 C189.650333,17.4563312 189.648,17.1273345 189.648,16.894 L189.648,14.752 L191.16,14.752 L191.16,25 L189.718,25 L189.718,23.978 L189.662,23.978 C189.447332,24.3980021 189.141669,24.7013324 188.745,24.888 C188.348331,25.0746676 187.898003,25.168 187.394,25.168 C186.964665,25.168 186.563335,25.0910008 186.19,24.937 C185.816665,24.7829992 185.494668,24.5566682 185.224,24.258 C184.953332,23.9593318 184.738667,23.5906689 184.58,23.152 C184.421333,22.7133311 184.342,22.2093362 184.342,21.64 Z M185.91,21.64 C185.91,22.3960038 186.087332,22.969998 186.442,23.362 C186.796668,23.754002 187.239997,23.95 187.772,23.95 C188.313336,23.95 188.761332,23.7446687 189.116,23.334 C189.470668,22.9233313 189.648,22.3400038 189.648,21.584 C189.648,20.8279962 189.470668,20.2446687 189.116,19.834 C188.761332,19.4233313 188.313336,19.218 187.772,19.218 C187.501332,19.218 187.254001,19.2739994 187.03,19.386 C186.805999,19.4980006 186.610001,19.658999 186.442,19.869 C186.273999,20.0790011 186.143334,20.3333318 186.05,20.632 C185.956666,20.9306682 185.91,21.2666648 185.91,21.64 Z M192.728,21.598 C192.728,21.056664 192.811999,20.5643355 192.98,20.121 C193.148001,19.6776644 193.383665,19.2996682 193.687,18.987 C193.990335,18.6743318 194.347331,18.4316675 194.758,18.259 C195.168669,18.0863325 195.621331,18 196.116,18 C196.592002,18 197.025998,18.0746659 197.418,18.224 C197.810002,18.3733341 198.145999,18.5903319 198.426,18.875 C198.706001,19.1596681 198.922999,19.5073313 199.077,19.918 C199.231001,20.3286687 199.308,20.7999973 199.308,21.332 L199.308,21.836 L194.282,21.836 C194.319334,22.5080034 194.505998,23.0329981 194.842,23.411 C195.178002,23.7890019 195.621331,23.978 196.172,23.978 C196.657336,23.978 197.025999,23.8683344 197.278,23.649 C197.530001,23.4296656 197.693333,23.1800014 197.768,22.9 L199.238,22.9 C199.191333,23.2080015 199.088667,23.4996653 198.93,23.775 C198.771333,24.0503347 198.561335,24.2906656 198.3,24.496 C198.038665,24.7013344 197.728335,24.8646661 197.369,24.986 C197.009665,25.1073339 196.606002,25.168 196.158,25.168 C195.056661,25.168 194.20967,24.8553365 193.617,24.23 C193.02433,23.6046635 192.728,22.727339 192.728,21.598 Z M196.116,19.19 C195.667998,19.19 195.287668,19.3346652 194.975,19.624 C194.662332,19.9133348 194.454667,20.3146641 194.352,20.828 L197.768,20.828 C197.712,20.2679972 197.544001,19.8550013 197.264,19.589 C196.983999,19.3229987 196.601336,19.19 196.116,19.19 Z" id="Acercade" fill="#18191A" fill-rule="nonzero"></path>
        <rect id="divider" fill="#E9EBED" x="122" y="1" width="1" height="38"></rect>
        <path d="M74.724,15.368 L76.586,15.368 L80.17,25 L78.504,25 L77.678,22.662 L73.562,22.662 L72.736,25 L71.14,25 L74.724,15.368 Z M75.606,16.936 L74.038,21.346 L77.216,21.346 L75.662,16.936 L75.606,16.936 Z M80.366,18.168 L82.018,18.168 L83.796,23.432 L83.852,23.432 L85.63,18.168 L87.156,18.168 L84.342,25.952 C84.2393328,26.2320014 84.1156674,26.5049987 83.971,26.771 C83.8263326,27.0370013 83.649001,27.274999 83.439,27.485 C83.228999,27.6950011 82.9816681,27.8653327 82.697,27.996 C82.4123319,28.1266673 82.0880018,28.192 81.724,28.192 L80.968,28.192 L80.968,26.946 L81.416,26.946 C82.2000039,26.946 82.7506651,26.5026711 83.068,25.616 L83.278,25 L82.914,25 L80.366,18.168 Z M88.122,18.168 L89.634,18.168 L89.634,22.116 C89.634,22.7973367 89.7669987,23.2709987 90.033,23.537 C90.2990013,23.8030013 90.6513311,23.936 91.09,23.936 C91.5753358,23.936 91.9743318,23.740002 92.287,23.348 C92.5996682,22.955998 92.756,22.4053369 92.756,21.696 L92.756,18.168 L94.268,18.168 L94.268,25 L92.826,25 L92.826,24.006 L92.77,24.006 C92.377998,24.7806705 91.6873383,25.168 90.698,25.168 C90.3526649,25.168 90.0260015,25.1190005 89.718,25.021 C89.4099985,24.9229995 89.1370012,24.7620011 88.899,24.538 C88.6609988,24.3139989 88.4720007,24.0200018 88.332,23.656 C88.1919993,23.2919982 88.122,22.8440027 88.122,22.312 L88.122,18.168 Z M95.836,21.64 C95.836,21.0706638 95.9176658,20.5620022 96.081,20.114 C96.2443342,19.6659978 96.4706652,19.2856682 96.76,18.973 C97.0493348,18.6603318 97.3853314,18.4200008 97.768,18.252 C98.1506686,18.0839992 98.5613311,18 99,18 C99.4946691,18 99.9239982,18.0933324 100.288,18.28 C100.652002,18.4666676 100.941332,18.7699979 101.156,19.19 L101.212,19.19 C101.174666,18.7419978 101.153667,18.3056688 101.149,17.881 C101.144333,17.4563312 101.142,17.1273345 101.142,16.894 L101.142,14.752 L102.654,14.752 L102.654,25 L101.212,25 L101.212,23.978 L101.156,23.978 C100.941332,24.3980021 100.635669,24.7013324 100.239,24.888 C99.8423313,25.0746676 99.3920025,25.168 98.888,25.168 C98.4586645,25.168 98.0573352,25.0910008 97.684,24.937 C97.3106648,24.7829992 96.988668,24.5566682 96.718,24.258 C96.447332,23.9593318 96.2326675,23.5906689 96.074,23.152 C95.9153325,22.7133311 95.836,22.2093362 95.836,21.64 Z M97.404,21.64 C97.404,22.3960038 97.5813316,22.969998 97.936,23.362 C98.2906684,23.754002 98.7339973,23.95 99.266,23.95 C99.807336,23.95 100.255332,23.7446687 100.61,23.334 C100.964668,22.9233313 101.142,22.3400038 101.142,21.584 C101.142,20.8279962 100.964668,20.2446687 100.61,19.834 C100.255332,19.4233313 99.807336,19.218 99.266,19.218 C98.995332,19.218 98.7480011,19.2739994 98.524,19.386 C98.2999989,19.4980006 98.1040008,19.658999 97.936,19.869 C97.7679992,20.0790011 97.6373338,20.3333318 97.544,20.632 C97.4506662,20.9306682 97.404,21.2666648 97.404,21.64 Z M104.32,23.18 C104.32,22.5733303 104.494998,22.1066683 104.845,21.78 C105.195002,21.4533317 105.761996,21.2293339 106.546,21.108 L107.932,20.884 C108.109334,20.8559999 108.256333,20.8303334 108.373,20.807 C108.489667,20.7836665 108.580666,20.7533335 108.646,20.716 C108.711334,20.6786665 108.755667,20.6273337 108.779,20.562 C108.802333,20.4966663 108.814,20.4126672 108.814,20.31 C108.814,19.9833317 108.704334,19.7056678 108.485,19.477 C108.265666,19.2483322 107.927336,19.134 107.47,19.134 C107.012664,19.134 106.665001,19.2459989 106.427,19.47 C106.188999,19.6940011 106.056,19.9833316 106.028,20.338 L104.586,20.338 C104.632667,19.6286631 104.907997,19.0616688 105.412,18.637 C105.916003,18.2123312 106.601996,18 107.47,18 C108.431338,18 109.147664,18.2193311 109.619,18.658 C110.090336,19.0966689 110.326,19.7173293 110.326,20.52 L110.326,25 L108.884,25 L108.884,23.936 L108.828,23.936 C108.669333,24.3000018 108.398669,24.586999 108.016,24.797 C107.633331,25.007001 107.157336,25.112 106.588,25.112 C105.878663,25.112 105.323335,24.9416684 104.922,24.601 C104.520665,24.2603316 104.32,23.7866697 104.32,23.18 Z M108.814,21.514 C108.683333,21.6820008 108.450002,21.7893331 108.114,21.836 L106.938,22.046 C106.555331,22.1020003 106.275334,22.2069992 106.098,22.361 C105.920666,22.5150008 105.832,22.7366652 105.832,23.026 C105.832,23.3060014 105.925332,23.5346658 106.112,23.712 C106.298668,23.8893342 106.564665,23.978 106.91,23.978 C107.162001,23.978 107.402332,23.940667 107.631,23.866 C107.859668,23.791333 108.060332,23.6770008 108.233,23.523 C108.405668,23.3689992 108.545666,23.1776678 108.653,22.949 C108.760334,22.7203322 108.814,22.4520015 108.814,22.144 L108.814,21.514 Z" id="Ayuda" fill="#18191A" fill-rule="nonzero"></path>
    </g>
</svg>
