<?xml version="1.0" encoding="UTF-8"?>
<svg width="324px" height="40px" viewBox="0 0 324 40" version="1.1" xmlns="http://www.w3.org/2000/svg" xmlns:xlink="http://www.w3.org/1999/xlink">
    <!-- Generator: Sketch 53 (72520) - https://sketchapp.com -->
    <title>ui_fr</title>
    <desc>Created with Sketch.</desc>
    <g id="ui_fr" stroke="none" stroke-width="1" fill="none" fill-rule="evenodd">
        <path d="M67.5,6.00691225 C67.5,2.96387953 69.9580633,0.5 72.9989104,0.5 L319.00109,0.5 C322.040365,0.5 324.5,2.961375 324.5,6.00691225 L324.5,33.9930877 C324.5,37.0361205 322.041937,39.5 319.00109,39.5 L72.9989104,39.5 C69.9596354,39.5 67.5,37.038625 67.5,33.9930877 L67.5,6.00691225 Z" id="BG" stroke-opacity="0.11" stroke="#000000" fill="#FFFFFF"></path>
        <path d="M218.176,15.368 L220.22,15.368 L223.454,22.858 L223.496,22.858 L226.688,15.368 L228.704,15.368 L228.704,25 L227.122,25 L227.248,17.664 L227.192,17.664 L224.056,25 L222.838,25 L219.702,17.79 L219.646,17.79 L219.758,25 L218.176,25 L218.176,15.368 Z M230.426,21.598 C230.426,21.056664 230.509999,20.5643355 230.678,20.121 C230.846001,19.6776644 231.081665,19.2996682 231.385,18.987 C231.688335,18.6743318 232.045331,18.4316675 232.456,18.259 C232.866669,18.0863325 233.319331,18 233.814,18 C234.290002,18 234.723998,18.0746659 235.116,18.224 C235.508002,18.3733341 235.843999,18.5903319 236.124,18.875 C236.404001,19.1596681 236.620999,19.5073313 236.775,19.918 C236.929001,20.3286687 237.006,20.7999973 237.006,21.332 L237.006,21.836 L231.98,21.836 C232.017334,22.5080034 232.203998,23.0329981 232.54,23.411 C232.876002,23.7890019 233.319331,23.978 233.87,23.978 C234.355336,23.978 234.723999,23.8683344 234.976,23.649 C235.228001,23.4296656 235.391333,23.1800014 235.466,22.9 L236.936,22.9 C236.889333,23.2080015 236.786667,23.4996653 236.628,23.775 C236.469333,24.0503347 236.259335,24.2906656 235.998,24.496 C235.736665,24.7013344 235.426335,24.8646661 235.067,24.986 C234.707665,25.1073339 234.304002,25.168 233.856,25.168 C232.754661,25.168 231.90767,24.8553365 231.315,24.23 C230.72233,23.6046635 230.426,22.727339 230.426,21.598 Z M233.814,19.19 C233.365998,19.19 232.985668,19.3346652 232.673,19.624 C232.360332,19.9133348 232.152667,20.3146641 232.05,20.828 L235.466,20.828 C235.41,20.2679972 235.242001,19.8550013 234.962,19.589 C234.681999,19.3229987 234.299336,19.19 233.814,19.19 Z M238.518,18.168 L239.974,18.168 L239.974,19.162 L240.03,19.162 C240.226001,18.769998 240.501332,18.4783343 240.856,18.287 C241.210668,18.0956657 241.625998,18 242.102,18 C242.578002,18 243.009665,18.1026656 243.397,18.308 C243.784335,18.5133344 244.075999,18.8633309 244.272,19.358 C244.514668,18.8633309 244.831998,18.5133344 245.224,18.308 C245.616002,18.1026656 246.063997,18 246.568,18 C246.904002,18 247.218999,18.0489995 247.513,18.147 C247.807001,18.2450005 248.063666,18.4036656 248.283,18.623 C248.502334,18.8423344 248.674999,19.1269982 248.801,19.477 C248.927001,19.8270018 248.99,20.2586641 248.99,20.772 L248.99,25 L247.478,25 L247.478,20.954 C247.478,20.3193302 247.366001,19.8736679 247.142,19.617 C246.917999,19.3603321 246.591335,19.232 246.162,19.232 C245.704664,19.232 245.315002,19.4233314 244.993,19.806 C244.670998,20.1886686 244.51,20.7206633 244.51,21.402 L244.51,25 L242.998,25 L242.998,20.954 C242.998,20.3193302 242.881335,19.8736679 242.648,19.617 C242.414666,19.3603321 242.092669,19.232 241.682,19.232 C241.224664,19.232 240.835002,19.4233314 240.513,19.806 C240.190998,20.1886686 240.03,20.7253299 240.03,21.416 L240.03,25 L238.518,25 L238.518,18.168 Z M250.936,14.752 L252.448,14.752 L252.448,16.894 C252.448,17.1273345 252.445667,17.4563312 252.441,17.881 C252.436333,18.3056688 252.42,18.7419978 252.392,19.19 L252.448,19.19 C252.662668,18.7699979 252.968331,18.4666676 253.365,18.28 C253.761669,18.0933324 254.211997,18 254.716,18 C255.145335,18 255.546665,18.0769992 255.92,18.231 C256.293335,18.3850008 256.615332,18.6113318 256.886,18.91 C257.156668,19.2086682 257.371333,19.5773311 257.53,20.016 C257.688667,20.4546689 257.768,20.9586638 257.768,21.528 C257.768,22.0973362 257.686334,22.6059978 257.523,23.054 C257.359666,23.5020022 257.133335,23.8823318 256.844,24.195 C256.554665,24.5076682 256.218669,24.7479992 255.836,24.916 C255.453331,25.0840008 255.042669,25.168 254.604,25.168 C254.109331,25.168 253.680002,25.0746676 253.316,24.888 C252.951998,24.7013324 252.662668,24.3980021 252.448,23.978 L252.392,23.978 L252.392,25 L250.936,25 L250.936,14.752 Z M252.448,21.584 C252.448,21.9573352 252.494666,22.2909985 252.588,22.585 C252.681334,22.8790015 252.811999,23.1263323 252.98,23.327 C253.148001,23.5276677 253.346332,23.6816661 253.575,23.789 C253.803668,23.8963339 254.053332,23.95 254.324,23.95 C254.865336,23.95 255.310998,23.7353355 255.661,23.306 C256.011002,22.8766645 256.186,22.2840038 256.186,21.528 C256.186,20.7719962 256.011002,20.198002 255.661,19.806 C255.310998,19.413998 254.865336,19.218 254.324,19.218 C254.062665,19.218 253.820001,19.2693328 253.596,19.372 C253.371999,19.4746672 253.176001,19.6216657 253.008,19.813 C252.839999,20.0043343 252.707,20.2399986 252.609,20.52 C252.511,20.8000014 252.457333,21.1173316 252.448,21.472 L252.448,21.584 Z M259.336,18.168 L260.792,18.168 L260.792,19.162 L260.834,19.162 C261.002001,18.7979982 261.235332,18.5133344 261.534,18.308 C261.832668,18.1026656 262.201331,18 262.64,18 C262.780001,18 262.929333,18.0163332 263.088,18.049 C263.246667,18.0816668 263.414666,18.1586661 263.592,18.28 L263.2,19.624 C262.901332,19.4746659 262.621335,19.4 262.36,19.4 C262.107999,19.4 261.886334,19.4583328 261.695,19.575 C261.503666,19.6916673 261.345001,19.847999 261.219,20.044 C261.092999,20.240001 260.999667,20.4709987 260.939,20.737 C260.878333,21.0030013 260.848,21.2853318 260.848,21.584 L260.848,25 L259.336,25 L259.336,18.168 Z M264.124,21.598 C264.124,21.056664 264.207999,20.5643355 264.376,20.121 C264.544001,19.6776644 264.779665,19.2996682 265.083,18.987 C265.386335,18.6743318 265.743331,18.4316675 266.154,18.259 C266.564669,18.0863325 267.017331,18 267.512,18 C267.988002,18 268.421998,18.0746659 268.814,18.224 C269.206002,18.3733341 269.541999,18.5903319 269.822,18.875 C270.102001,19.1596681 270.318999,19.5073313 270.473,19.918 C270.627001,20.3286687 270.704,20.7999973 270.704,21.332 L270.704,21.836 L265.678,21.836 C265.715334,22.5080034 265.901998,23.0329981 266.238,23.411 C266.574002,23.7890019 267.017331,23.978 267.568,23.978 C268.053336,23.978 268.421999,23.8683344 268.674,23.649 C268.926001,23.4296656 269.089333,23.1800014 269.164,22.9 L270.634,22.9 C270.587333,23.2080015 270.484667,23.4996653 270.326,23.775 C270.167333,24.0503347 269.957335,24.2906656 269.696,24.496 C269.434665,24.7013344 269.124335,24.8646661 268.765,24.986 C268.405665,25.1073339 268.002002,25.168 267.554,25.168 C266.452661,25.168 265.60567,24.8553365 265.013,24.23 C264.42033,23.6046635 264.124,22.727339 264.124,21.598 Z M267.512,19.19 C267.063998,19.19 266.683668,19.3346652 266.371,19.624 C266.058332,19.9133348 265.850667,20.3146641 265.748,20.828 L269.164,20.828 C269.108,20.2679972 268.940001,19.8550013 268.66,19.589 C268.379999,19.3229987 267.997336,19.19 267.512,19.19 Z M275.45,15.368 L279.356,15.368 C279.916003,15.368 280.412998,15.4449992 280.847,15.599 C281.281002,15.7530008 281.644999,15.9676653 281.939,16.243 C282.233001,16.5183347 282.456999,16.8496647 282.611,17.237 C282.765001,17.6243353 282.842,18.0466644 282.842,18.504 C282.842,18.970669 282.765001,19.399998 282.611,19.792 C282.456999,20.184002 282.233001,20.5246652 281.939,20.814 C281.644999,21.1033348 281.281002,21.3296658 280.847,21.493 C280.412998,21.6563341 279.916003,21.738 279.356,21.738 L277.032,21.738 L277.032,25 L275.45,25 L275.45,15.368 Z M277.032,16.684 L277.032,20.436 L279.286,20.436 C279.612668,20.436 279.899665,20.3870005 280.147,20.289 C280.394335,20.1909995 280.599666,20.0533342 280.763,19.876 C280.926334,19.6986658 281.047666,19.4956678 281.127,19.267 C281.206334,19.0383322 281.246,18.788668 281.246,18.518 C281.246,17.976664 281.085002,17.5356684 280.763,17.195 C280.440998,16.8543316 279.94867,16.684 279.286,16.684 L277.032,16.684 Z M284.466,14.752 L285.978,14.752 L285.978,25 L284.466,25 L284.466,14.752 Z M287.924,18.168 L289.436,18.168 L289.436,22.116 C289.436,22.7973367 289.568999,23.2709987 289.835,23.537 C290.101001,23.8030013 290.453331,23.936 290.892,23.936 C291.377336,23.936 291.776332,23.740002 292.089,23.348 C292.401668,22.955998 292.558,22.4053369 292.558,21.696 L292.558,18.168 L294.07,18.168 L294.07,25 L292.628,25 L292.628,24.006 L292.572,24.006 C292.179998,24.7806705 291.489338,25.168 290.5,25.168 C290.154665,25.168 289.828002,25.1190005 289.52,25.021 C289.211998,24.9229995 288.939001,24.7620011 288.701,24.538 C288.462999,24.3139989 288.274001,24.0200018 288.134,23.656 C287.993999,23.2919982 287.924,22.8440027 287.924,22.312 L287.924,18.168 Z M297.066,22.956 C297.066,23.1613344 297.108,23.3363326 297.192,23.481 C297.276,23.6256674 297.387999,23.7446662 297.528,23.838 C297.668001,23.9313338 297.828999,23.9989998 298.011,24.041 C298.193001,24.0830002 298.377332,24.104 298.564,24.104 C299.077336,24.104 299.450666,24.0200008 299.684,23.852 C299.917335,23.6839992 300.034,23.4320017 300.034,23.096 C300.034,22.8439987 299.957001,22.6550006 299.803,22.529 C299.648999,22.4029994 299.399335,22.3120003 299.054,22.256 L297.794,22.046 C297.541999,22.0086665 297.294668,21.9503337 297.052,21.871 C296.809332,21.7916663 296.594668,21.6796674 296.408,21.535 C296.221332,21.3903326 296.069667,21.2083344 295.953,20.989 C295.836333,20.7696656 295.778,20.4966683 295.778,20.17 C295.778,19.8246649 295.847999,19.516668 295.988,19.246 C296.128001,18.975332 296.323999,18.7490009 296.576,18.567 C296.828001,18.3849991 297.124332,18.2450005 297.465,18.147 C297.805668,18.0489995 298.176665,18 298.578,18 C298.970002,18 299.336332,18.0466662 299.677,18.14 C300.017668,18.2333338 300.313999,18.3709991 300.566,18.553 C300.818001,18.7350009 301.013999,18.9636653 301.154,19.239 C301.294001,19.5143347 301.364,19.8339982 301.364,20.198 L299.95,20.198 C299.95,19.8433316 299.824001,19.5656677 299.572,19.365 C299.319999,19.1643323 298.988669,19.064 298.578,19.064 C298.176665,19.064 297.852335,19.1479992 297.605,19.316 C297.357665,19.4840008 297.234,19.7173318 297.234,20.016 C297.234,20.2493345 297.313333,20.4289994 297.472,20.555 C297.630667,20.6810006 297.915331,20.781333 298.326,20.856 L299.586,21.066 C299.847335,21.1126669 300.094666,21.1756663 300.328,21.255 C300.561335,21.3343337 300.768999,21.4463326 300.951,21.591 C301.133001,21.7356674 301.277666,21.9223322 301.385,22.151 C301.492334,22.3796678 301.546,22.6619983 301.546,22.998 C301.546,23.3620018 301.473667,23.6816653 301.329,23.957 C301.184333,24.2323347 300.981335,24.4586658 300.72,24.636 C300.458665,24.8133342 300.146002,24.9463329 299.782,25.035 C299.417998,25.1236671 299.012002,25.168 298.564,25.168 C297.658662,25.168 296.942336,24.9813352 296.415,24.608 C295.887664,24.2346648 295.624,23.6840036 295.624,22.956 L297.066,22.956 Z M304.906,21.808 C304.906,21.4906651 304.938666,21.2083346 305.004,20.961 C305.069334,20.7136654 305.157999,20.4966676 305.27,20.31 C305.382001,20.1233324 305.510333,19.9600007 305.655,19.82 C305.799667,19.6799993 305.951333,19.5540006 306.11,19.442 L306.446,19.19 C306.679335,19.0033324 306.882332,18.812001 307.055,18.616 C307.227668,18.419999 307.314,18.1633349 307.314,17.846 C307.314,17.453998 307.178668,17.1250013 306.908,16.859 C306.637332,16.5929987 306.268669,16.46 305.802,16.46 C305.493998,16.46 305.232668,16.5089995 305.018,16.607 C304.803332,16.7050005 304.626001,16.8379992 304.486,17.006 C304.345999,17.1740008 304.243334,17.3676656 304.178,17.587 C304.112666,17.8063344 304.08,18.0373321 304.08,18.28 L302.61,18.28 C302.61,17.887998 302.672999,17.5053352 302.799,17.132 C302.925001,16.7586648 303.116332,16.4296681 303.373,16.145 C303.629668,15.8603319 303.958665,15.6316675 304.36,15.459 C304.761335,15.2863325 305.241997,15.2 305.802,15.2 C306.250002,15.2 306.660665,15.2583327 307.034,15.375 C307.407335,15.4916672 307.729332,15.6619989 308,15.886 C308.270668,16.1100011 308.480666,16.3806651 308.63,16.698 C308.779334,17.0153349 308.854,17.3746647 308.854,17.776 C308.854,18.0560014 308.819,18.3033323 308.749,18.518 C308.679,18.7326677 308.588001,18.9239992 308.476,19.092 C308.363999,19.2600008 308.235667,19.411666 308.091,19.547 C307.946333,19.682334 307.799334,19.8106661 307.65,19.932 L307.314,20.184 C307.052665,20.3706676 306.828668,20.5783322 306.642,20.807 C306.455332,21.0356678 306.362,21.3319982 306.362,21.696 L306.362,22.172 L304.906,22.172 L304.906,21.808 Z M304.794,23.32 L306.46,23.32 L306.46,25 L304.794,25 L304.794,23.32 Z" id="MembrePlus?" fill="#18191A" fill-rule="nonzero"></path>
        <rect id="divider" fill="#E9EBED" x="204" y="1" width="1" height="38"></rect>
        <path d="M137.724,15.368 L139.586,15.368 L143.17,25 L141.504,25 L140.678,22.662 L136.562,22.662 L135.736,25 L134.14,25 L137.724,15.368 Z M138.606,16.936 L137.038,21.346 L140.216,21.346 L138.662,16.936 L138.606,16.936 Z M136.072,11.952 L137.752,11.952 L139.18,14.248 L138.116,14.248 L136.072,11.952 Z M148.924,28.08 L147.412,28.08 L147.412,18.168 L148.868,18.168 L148.868,19.19 L148.924,19.19 C149.138668,18.7699979 149.444331,18.4666676 149.841,18.28 C150.237669,18.0933324 150.687997,18 151.192,18 C151.621335,18 152.022665,18.0769992 152.396,18.231 C152.769335,18.3850008 153.091332,18.6113318 153.362,18.91 C153.632668,19.2086682 153.847333,19.5773311 154.006,20.016 C154.164667,20.4546689 154.244,20.9586638 154.244,21.528 C154.244,22.0973362 154.162334,22.6059978 153.999,23.054 C153.835666,23.5020022 153.609335,23.8823318 153.32,24.195 C153.030665,24.5076682 152.694669,24.7479992 152.312,24.916 C151.929331,25.0840008 151.518669,25.168 151.08,25.168 C150.585331,25.168 150.156002,25.0746676 149.792,24.888 C149.427998,24.7013324 149.138668,24.3980021 148.924,23.978 L148.868,23.978 C148.896,24.4260022 148.912333,24.8623312 148.917,25.287 C148.921667,25.7116688 148.924,26.0406655 148.924,26.274 L148.924,28.08 Z M152.662,21.528 C152.662,20.7719962 152.487002,20.198002 152.137,19.806 C151.786998,19.413998 151.341336,19.218 150.8,19.218 C150.538665,19.218 150.296001,19.2693328 150.072,19.372 C149.847999,19.4746672 149.652001,19.6216657 149.484,19.813 C149.315999,20.0043343 149.183,20.2399986 149.085,20.52 C148.987,20.8000014 148.933333,21.1173316 148.924,21.472 L148.924,21.584 C148.924,21.9573352 148.970666,22.2909985 149.064,22.585 C149.157334,22.8790015 149.287999,23.1263323 149.456,23.327 C149.624001,23.5276677 149.822332,23.6816661 150.051,23.789 C150.279668,23.8963339 150.529332,23.95 150.8,23.95 C151.341336,23.95 151.786998,23.7353355 152.137,23.306 C152.487002,22.8766645 152.662,22.2840038 152.662,21.528 Z M155.812,18.168 L157.268,18.168 L157.268,19.162 L157.31,19.162 C157.478001,18.7979982 157.711332,18.5133344 158.01,18.308 C158.308668,18.1026656 158.677331,18 159.116,18 C159.256001,18 159.405333,18.0163332 159.564,18.049 C159.722667,18.0816668 159.890666,18.1586661 160.068,18.28 L159.676,19.624 C159.377332,19.4746659 159.097335,19.4 158.836,19.4 C158.583999,19.4 158.362334,19.4583328 158.171,19.575 C157.979666,19.6916673 157.821001,19.847999 157.695,20.044 C157.568999,20.240001 157.475667,20.4709987 157.415,20.737 C157.354333,21.0030013 157.324,21.2853318 157.324,21.584 L157.324,25 L155.812,25 L155.812,18.168 Z M160.614,21.584 C160.614,21.0333306 160.700332,20.5363355 160.873,20.093 C161.045668,19.6496645 161.288332,19.2740015 161.601,18.966 C161.913668,18.6579985 162.282331,18.4200008 162.707,18.252 C163.131669,18.0839992 163.595997,18 164.1,18 C164.632003,18 165.112665,18.0816659 165.542,18.245 C165.971335,18.4083342 166.337665,18.6439985 166.641,18.952 C166.944335,19.2600015 167.177666,19.6356645 167.341,20.079 C167.504334,20.5223356 167.586,21.0239972 167.586,21.584 C167.586,22.1346694 167.499668,22.6316645 167.327,23.075 C167.154332,23.5183355 166.914002,23.8939985 166.606,24.202 C166.297998,24.5100015 165.929335,24.7479992 165.5,24.916 C165.070665,25.0840008 164.604003,25.168 164.1,25.168 C163.567997,25.168 163.087335,25.0863341 162.658,24.923 C162.228665,24.7596659 161.862335,24.5240015 161.559,24.216 C161.255665,23.9079985 161.022334,23.5323355 160.859,23.089 C160.695666,22.6456644 160.614,22.1440028 160.614,21.584 Z M162.182,21.584 C162.182,22.3026703 162.356998,22.8766645 162.707,23.306 C163.057002,23.7353355 163.52133,23.95 164.1,23.95 C164.67867,23.95 165.142998,23.7353355 165.493,23.306 C165.843002,22.8766645 166.018,22.3026703 166.018,21.584 C166.018,20.8373296 165.843002,20.2563354 165.493,19.841 C165.142998,19.4256646 164.67867,19.218 164.1,19.218 C163.52133,19.218 163.057002,19.4326645 162.707,19.862 C162.356998,20.2913355 162.182,20.8653297 162.182,21.584 Z M170.68,28.08 L169.168,28.08 L169.168,18.168 L170.624,18.168 L170.624,19.19 L170.68,19.19 C170.894668,18.7699979 171.200331,18.4666676 171.597,18.28 C171.993669,18.0933324 172.443997,18 172.948,18 C173.377335,18 173.778665,18.0769992 174.152,18.231 C174.525335,18.3850008 174.847332,18.6113318 175.118,18.91 C175.388668,19.2086682 175.603333,19.5773311 175.762,20.016 C175.920667,20.4546689 176,20.9586638 176,21.528 C176,22.0973362 175.918334,22.6059978 175.755,23.054 C175.591666,23.5020022 175.365335,23.8823318 175.076,24.195 C174.786665,24.5076682 174.450669,24.7479992 174.068,24.916 C173.685331,25.0840008 173.274669,25.168 172.836,25.168 C172.341331,25.168 171.912002,25.0746676 171.548,24.888 C171.183998,24.7013324 170.894668,24.3980021 170.68,23.978 L170.624,23.978 C170.652,24.4260022 170.668333,24.8623312 170.673,25.287 C170.677667,25.7116688 170.68,26.0406655 170.68,26.274 L170.68,28.08 Z M174.418,21.528 C174.418,20.7719962 174.243002,20.198002 173.893,19.806 C173.542998,19.413998 173.097336,19.218 172.556,19.218 C172.294665,19.218 172.052001,19.2693328 171.828,19.372 C171.603999,19.4746672 171.408001,19.6216657 171.24,19.813 C171.071999,20.0043343 170.939,20.2399986 170.841,20.52 C170.743,20.8000014 170.689333,21.1173316 170.68,21.472 L170.68,21.584 C170.68,21.9573352 170.726666,22.2909985 170.82,22.585 C170.913334,22.8790015 171.043999,23.1263323 171.212,23.327 C171.380001,23.5276677 171.578332,23.6816661 171.807,23.789 C172.035668,23.8963339 172.285332,23.95 172.556,23.95 C173.097336,23.95 173.542998,23.7353355 173.893,23.306 C174.243002,22.8766645 174.418,22.2840038 174.418,21.528 Z M177.092,21.584 C177.092,21.0333306 177.178332,20.5363355 177.351,20.093 C177.523668,19.6496645 177.766332,19.2740015 178.079,18.966 C178.391668,18.6579985 178.760331,18.4200008 179.185,18.252 C179.609669,18.0839992 180.073997,18 180.578,18 C181.110003,18 181.590665,18.0816659 182.02,18.245 C182.449335,18.4083342 182.815665,18.6439985 183.119,18.952 C183.422335,19.2600015 183.655666,19.6356645 183.819,20.079 C183.982334,20.5223356 184.064,21.0239972 184.064,21.584 C184.064,22.1346694 183.977668,22.6316645 183.805,23.075 C183.632332,23.5183355 183.392002,23.8939985 183.084,24.202 C182.775998,24.5100015 182.407335,24.7479992 181.978,24.916 C181.548665,25.0840008 181.082003,25.168 180.578,25.168 C180.045997,25.168 179.565335,25.0863341 179.136,24.923 C178.706665,24.7596659 178.340335,24.5240015 178.037,24.216 C177.733665,23.9079985 177.500334,23.5323355 177.337,23.089 C177.173666,22.6456644 177.092,22.1440028 177.092,21.584 Z M178.66,21.584 C178.66,22.3026703 178.834998,22.8766645 179.185,23.306 C179.535002,23.7353355 179.99933,23.95 180.578,23.95 C181.15667,23.95 181.620998,23.7353355 181.971,23.306 C182.321002,22.8766645 182.496,22.3026703 182.496,21.584 C182.496,20.8373296 182.321002,20.2563354 181.971,19.841 C181.620998,19.4256646 181.15667,19.218 180.578,19.218 C179.99933,19.218 179.535002,19.4326645 179.185,19.862 C178.834998,20.2913355 178.66,20.8653297 178.66,21.584 Z M186.598,22.956 C186.598,23.1613344 186.64,23.3363326 186.724,23.481 C186.808,23.6256674 186.919999,23.7446662 187.06,23.838 C187.200001,23.9313338 187.360999,23.9989998 187.543,24.041 C187.725001,24.0830002 187.909332,24.104 188.096,24.104 C188.609336,24.104 188.982665,24.0200008 189.216,23.852 C189.449334,23.6839992 189.566,23.4320017 189.566,23.096 C189.566,22.8439987 189.489001,22.6550006 189.335,22.529 C189.180999,22.4029994 188.931335,22.3120003 188.586,22.256 L187.326,22.046 C187.073999,22.0086665 186.826668,21.9503337 186.584,21.871 C186.341332,21.7916663 186.126668,21.6796674 185.94,21.535 C185.753332,21.3903326 185.601667,21.2083344 185.485,20.989 C185.368333,20.7696656 185.31,20.4966683 185.31,20.17 C185.31,19.8246649 185.379999,19.516668 185.52,19.246 C185.660001,18.975332 185.855999,18.7490009 186.108,18.567 C186.360001,18.3849991 186.656332,18.2450005 186.997,18.147 C187.337668,18.0489995 187.708665,18 188.11,18 C188.502002,18 188.868332,18.0466662 189.209,18.14 C189.549668,18.2333338 189.845999,18.3709991 190.098,18.553 C190.350001,18.7350009 190.545999,18.9636653 190.686,19.239 C190.826001,19.5143347 190.896,19.8339982 190.896,20.198 L189.482,20.198 C189.482,19.8433316 189.356001,19.5656677 189.104,19.365 C188.851999,19.1643323 188.520669,19.064 188.11,19.064 C187.708665,19.064 187.384335,19.1479992 187.137,19.316 C186.889665,19.4840008 186.766,19.7173318 186.766,20.016 C186.766,20.2493345 186.845333,20.4289994 187.004,20.555 C187.162667,20.6810006 187.447331,20.781333 187.858,20.856 L189.118,21.066 C189.379335,21.1126669 189.626666,21.1756663 189.86,21.255 C190.093334,21.3343337 190.300999,21.4463326 190.483,21.591 C190.665001,21.7356674 190.809666,21.9223322 190.917,22.151 C191.024334,22.3796678 191.078,22.6619983 191.078,22.998 C191.078,23.3620018 191.005667,23.6816653 190.861,23.957 C190.716333,24.2323347 190.513335,24.4586658 190.252,24.636 C189.990665,24.8133342 189.678002,24.9463329 189.314,25.035 C188.949998,25.1236671 188.544002,25.168 188.096,25.168 C187.190662,25.168 186.474336,24.9813352 185.947,24.608 C185.419664,24.2346648 185.156,23.6840036 185.156,22.956 L186.598,22.956 Z" id="Àpropos" fill="#18191A" fill-rule="nonzero"></path>
        <rect id="divider" fill="#E9EBED" x="121" y="1" width="1" height="38"></rect>
        <path d="M83.724,15.368 L85.586,15.368 L89.17,25 L87.504,25 L86.678,22.662 L82.562,22.662 L81.736,25 L80.14,25 L83.724,15.368 Z M84.606,16.936 L83.038,21.346 L86.216,21.346 L84.662,16.936 L84.606,16.936 Z M90.276,14.752 L91.9,14.752 L91.9,16.292 L90.276,16.292 L90.276,14.752 Z M90.332,18.168 L91.844,18.168 L91.844,25 L90.332,25 L90.332,18.168 Z M93.426,21.64 C93.426,21.0706638 93.5076658,20.5620022 93.671,20.114 C93.8343342,19.6659978 94.0606652,19.2856682 94.35,18.973 C94.6393348,18.6603318 94.9753314,18.4200008 95.358,18.252 C95.7406686,18.0839992 96.1513311,18 96.59,18 C97.0846691,18 97.5139982,18.0933324 97.878,18.28 C98.2420018,18.4666676 98.5313323,18.7699979 98.746,19.19 L98.802,19.19 C98.7646665,18.7419978 98.7436667,18.3056688 98.739,17.881 C98.7343333,17.4563312 98.732,17.1273345 98.732,16.894 L98.732,14.752 L100.244,14.752 L100.244,25 L98.802,25 L98.802,23.978 L98.746,23.978 C98.5313323,24.3980021 98.2256687,24.7013324 97.829,24.888 C97.4323313,25.0746676 96.9820025,25.168 96.478,25.168 C96.0486645,25.168 95.6473352,25.0910008 95.274,24.937 C94.9006648,24.7829992 94.578668,24.5566682 94.308,24.258 C94.037332,23.9593318 93.8226675,23.5906689 93.664,23.152 C93.5053325,22.7133311 93.426,22.2093362 93.426,21.64 Z M94.994,21.64 C94.994,22.3960038 95.1713316,22.969998 95.526,23.362 C95.8806684,23.754002 96.3239973,23.95 96.856,23.95 C97.397336,23.95 97.8453316,23.7446687 98.2,23.334 C98.5546684,22.9233313 98.732,22.3400038 98.732,21.584 C98.732,20.8279962 98.5546684,20.2446687 98.2,19.834 C97.8453316,19.4233313 97.397336,19.218 96.856,19.218 C96.585332,19.218 96.3380011,19.2739994 96.114,19.386 C95.8899989,19.4980006 95.6940008,19.658999 95.526,19.869 C95.3579992,20.0790011 95.2273338,20.3333318 95.134,20.632 C95.0406662,20.9306682 94.994,21.2666648 94.994,21.64 Z M101.812,21.598 C101.812,21.056664 101.895999,20.5643355 102.064,20.121 C102.232001,19.6776644 102.467665,19.2996682 102.771,18.987 C103.074335,18.6743318 103.431331,18.4316675 103.842,18.259 C104.252669,18.0863325 104.705331,18 105.2,18 C105.676002,18 106.109998,18.0746659 106.502,18.224 C106.894002,18.3733341 107.229999,18.5903319 107.51,18.875 C107.790001,19.1596681 108.006999,19.5073313 108.161,19.918 C108.315001,20.3286687 108.392,20.7999973 108.392,21.332 L108.392,21.836 L103.366,21.836 C103.403334,22.5080034 103.589998,23.0329981 103.926,23.411 C104.262002,23.7890019 104.705331,23.978 105.256,23.978 C105.741336,23.978 106.109999,23.8683344 106.362,23.649 C106.614001,23.4296656 106.777333,23.1800014 106.852,22.9 L108.322,22.9 C108.275333,23.2080015 108.172667,23.4996653 108.014,23.775 C107.855333,24.0503347 107.645335,24.2906656 107.384,24.496 C107.122665,24.7013344 106.812335,24.8646661 106.453,24.986 C106.093665,25.1073339 105.690002,25.168 105.242,25.168 C104.140661,25.168 103.29367,24.8553365 102.701,24.23 C102.10833,23.6046635 101.812,22.727339 101.812,21.598 Z M105.2,19.19 C104.751998,19.19 104.371668,19.3346652 104.059,19.624 C103.746332,19.9133348 103.538667,20.3146641 103.436,20.828 L106.852,20.828 C106.796,20.2679972 106.628001,19.8550013 106.348,19.589 C106.067999,19.3229987 105.685336,19.19 105.2,19.19 Z" id="Aide" fill="#18191A" fill-rule="nonzero"></path>
    </g>
</svg>