<?xml version="1.0" encoding="UTF-8"?>
<svg width="324px" height="40px" viewBox="0 0 324 40" version="1.1" xmlns="http://www.w3.org/2000/svg" xmlns:xlink="http://www.w3.org/1999/xlink">
    <!-- Generator: Sketch 53 (72520) - https://sketchapp.com -->
    <title>ui_it</title>
    <desc>Created with Sketch.</desc>
    <g id="ui_it" stroke="none" stroke-width="1" fill="none" fill-rule="evenodd">
        <path d="M116.5,6.00691225 C116.5,2.96479136 118.961276,0.5 122.001563,0.5 L318.998437,0.5 C322.039119,0.5 324.5,2.96131566 324.5,6.00691225 L324.5,33.9930877 C324.5,37.0352086 322.038724,39.5 318.998437,39.5 L122.001563,39.5 C118.960881,39.5 116.5,37.0386843 116.5,33.9930877 L116.5,6.00691225 Z" id="BG" stroke-opacity="0.11" stroke="#000000" fill="#FFFFFF"></path>
        <path d="M253.176,15.368 L254.758,15.368 L254.758,19.456 L259.602,19.456 L259.602,15.368 L261.198,15.368 L261.198,25 L259.602,25 L259.602,20.8 L254.758,20.8 L254.758,25 L253.176,25 L253.176,15.368 Z M263.004,23.18 C263.004,22.5733303 263.178998,22.1066683 263.529,21.78 C263.879002,21.4533317 264.445996,21.2293339 265.23,21.108 L266.616,20.884 C266.793334,20.8559999 266.940333,20.8303334 267.057,20.807 C267.173667,20.7836665 267.264666,20.7533335 267.33,20.716 C267.395334,20.6786665 267.439667,20.6273337 267.463,20.562 C267.486333,20.4966663 267.498,20.4126672 267.498,20.31 C267.498,19.9833317 267.388334,19.7056678 267.169,19.477 C266.949666,19.2483322 266.611336,19.134 266.154,19.134 C265.696664,19.134 265.349001,19.2459989 265.111,19.47 C264.872999,19.6940011 264.74,19.9833316 264.712,20.338 L263.27,20.338 C263.316667,19.6286631 263.591997,19.0616688 264.096,18.637 C264.600003,18.2123312 265.285996,18 266.154,18 C267.115338,18 267.831664,18.2193311 268.303,18.658 C268.774336,19.0966689 269.01,19.7173293 269.01,20.52 L269.01,25 L267.568,25 L267.568,23.936 L267.512,23.936 C267.353333,24.3000018 267.082669,24.5869989 266.7,24.797 C266.317331,25.007001 265.841336,25.112 265.272,25.112 C264.562663,25.112 264.007335,24.9416684 263.606,24.601 C263.204665,24.2603316 263.004,23.7866697 263.004,23.18 Z M267.498,21.514 C267.367333,21.6820008 267.134002,21.7893331 266.798,21.836 L265.622,22.046 C265.239331,22.1020003 264.959334,22.2069992 264.782,22.361 C264.604666,22.5150008 264.516,22.7366652 264.516,23.026 C264.516,23.3060014 264.609332,23.5346658 264.796,23.712 C264.982668,23.8893342 265.248665,23.978 265.594,23.978 C265.846001,23.978 266.086332,23.940667 266.315,23.866 C266.543668,23.791333 266.744332,23.6770008 266.917,23.523 C267.089668,23.3689992 267.229666,23.1776678 267.337,22.949 C267.444334,22.7203322 267.498,22.4520015 267.498,22.144 L267.498,21.514 Z M270.914,14.752 L272.538,14.752 L272.538,16.292 L270.914,16.292 L270.914,14.752 Z M270.97,18.168 L272.482,18.168 L272.482,25 L270.97,25 L270.97,18.168 Z M277.774,15.368 L281.68,15.368 C282.240003,15.368 282.736998,15.4449992 283.171,15.599 C283.605002,15.7530008 283.968999,15.9676653 284.263,16.243 C284.557001,16.5183347 284.780999,16.8496647 284.935,17.237 C285.089001,17.6243353 285.166,18.0466644 285.166,18.504 C285.166,18.970669 285.089001,19.399998 284.935,19.792 C284.780999,20.184002 284.557001,20.5246652 284.263,20.814 C283.968999,21.1033348 283.605002,21.3296658 283.171,21.493 C282.736998,21.6563341 282.240003,21.738 281.68,21.738 L279.356,21.738 L279.356,25 L277.774,25 L277.774,15.368 Z M279.356,16.684 L279.356,20.436 L281.61,20.436 C281.936668,20.436 282.223665,20.3870005 282.471,20.289 C282.718335,20.1909995 282.923666,20.0533342 283.087,19.876 C283.250334,19.6986658 283.371666,19.4956678 283.451,19.267 C283.530334,19.0383322 283.57,18.788668 283.57,18.518 C283.57,17.976664 283.409002,17.5356684 283.087,17.195 C282.764998,16.8543316 282.27267,16.684 281.61,16.684 L279.356,16.684 Z M286.79,14.752 L288.302,14.752 L288.302,25 L286.79,25 L286.79,14.752 Z M290.248,18.168 L291.76,18.168 L291.76,22.116 C291.76,22.7973367 291.892999,23.2709987 292.159,23.537 C292.425001,23.8030013 292.777331,23.936 293.216,23.936 C293.701336,23.936 294.100332,23.740002 294.413,23.348 C294.725668,22.955998 294.882,22.4053369 294.882,21.696 L294.882,18.168 L296.394,18.168 L296.394,25 L294.952,25 L294.952,24.006 L294.896,24.006 C294.503998,24.7806705 293.813338,25.168 292.824,25.168 C292.478665,25.168 292.152002,25.1190005 291.844,25.021 C291.535998,24.9229995 291.263001,24.7620011 291.025,24.538 C290.786999,24.3139989 290.598001,24.0200018 290.458,23.656 C290.317999,23.2919982 290.248,22.8440027 290.248,22.312 L290.248,18.168 Z M299.39,22.956 C299.39,23.1613344 299.432,23.3363326 299.516,23.481 C299.6,23.6256674 299.711999,23.7446662 299.852,23.838 C299.992001,23.9313338 300.152999,23.9989998 300.335,24.041 C300.517001,24.0830002 300.701332,24.104 300.888,24.104 C301.401336,24.104 301.774665,24.0200008 302.008,23.852 C302.241334,23.6839992 302.358,23.4320017 302.358,23.096 C302.358,22.8439987 302.281001,22.6550006 302.127,22.529 C301.972999,22.4029994 301.723335,22.3120003 301.378,22.256 L300.118,22.046 C299.865999,22.0086665 299.618668,21.9503337 299.376,21.871 C299.133332,21.7916663 298.918668,21.6796674 298.732,21.535 C298.545332,21.3903326 298.393667,21.2083344 298.277,20.989 C298.160333,20.7696656 298.102,20.4966683 298.102,20.17 C298.102,19.8246649 298.171999,19.516668 298.312,19.246 C298.452001,18.975332 298.647999,18.7490009 298.9,18.567 C299.152001,18.3849991 299.448332,18.2450005 299.789,18.147 C300.129668,18.0489995 300.500665,18 300.902,18 C301.294002,18 301.660332,18.0466662 302.001,18.14 C302.341668,18.2333338 302.637999,18.3709991 302.89,18.553 C303.142001,18.7350009 303.337999,18.9636653 303.478,19.239 C303.618001,19.5143347 303.688,19.8339982 303.688,20.198 L302.274,20.198 C302.274,19.8433316 302.148001,19.5656677 301.896,19.365 C301.643999,19.1643323 301.312669,19.064 300.902,19.064 C300.500665,19.064 300.176335,19.1479992 299.929,19.316 C299.681665,19.4840008 299.558,19.7173318 299.558,20.016 C299.558,20.2493345 299.637333,20.4289994 299.796,20.555 C299.954667,20.6810006 300.239331,20.781333 300.65,20.856 L301.91,21.066 C302.171335,21.1126669 302.418665,21.1756663 302.652,21.255 C302.885334,21.3343337 303.092999,21.4463326 303.275,21.591 C303.457001,21.7356674 303.601666,21.9223322 303.709,22.151 C303.816334,22.3796678 303.87,22.6619983 303.87,22.998 C303.87,23.3620018 303.797667,23.6816653 303.653,23.957 C303.508333,24.2323347 303.305335,24.4586658 303.044,24.636 C302.782665,24.8133342 302.470002,24.9463329 302.106,25.035 C301.741998,25.1236671 301.336002,25.168 300.888,25.168 C299.982662,25.168 299.266336,24.9813352 298.739,24.608 C298.211664,24.2346648 297.948,23.6840036 297.948,22.956 L299.39,22.956 Z M307.23,21.808 C307.23,21.4906651 307.262666,21.2083346 307.328,20.961 C307.393334,20.7136654 307.481999,20.4966676 307.594,20.31 C307.706001,20.1233324 307.834333,19.9600007 307.979,19.82 C308.123667,19.6799993 308.275333,19.5540006 308.434,19.442 L308.77,19.19 C309.003334,19.0033324 309.206332,18.812001 309.379,18.616 C309.551668,18.419999 309.638,18.1633349 309.638,17.846 C309.638,17.453998 309.502668,17.1250013 309.232,16.859 C308.961332,16.5929987 308.592669,16.46 308.126,16.46 C307.817998,16.46 307.556668,16.5089995 307.342,16.607 C307.127332,16.7050005 306.950001,16.8379992 306.81,17.006 C306.669999,17.1740008 306.567334,17.3676656 306.502,17.587 C306.436666,17.8063344 306.404,18.0373321 306.404,18.28 L304.934,18.28 C304.934,17.887998 304.996999,17.5053352 305.123,17.132 C305.249001,16.7586648 305.440332,16.4296681 305.697,16.145 C305.953668,15.8603319 306.282665,15.6316675 306.684,15.459 C307.085335,15.2863325 307.565997,15.2 308.126,15.2 C308.574002,15.2 308.984665,15.2583327 309.358,15.375 C309.731335,15.4916672 310.053332,15.6619989 310.324,15.886 C310.594668,16.1100011 310.804666,16.3806651 310.954,16.698 C311.103334,17.0153349 311.178,17.3746647 311.178,17.776 C311.178,18.0560014 311.143,18.3033323 311.073,18.518 C311.003,18.7326677 310.912001,18.9239992 310.8,19.092 C310.687999,19.2600008 310.559667,19.411666 310.415,19.547 C310.270333,19.682334 310.123334,19.8106661 309.974,19.932 L309.638,20.184 C309.376665,20.3706676 309.152668,20.5783322 308.966,20.807 C308.779332,21.0356678 308.686,21.3319982 308.686,21.696 L308.686,22.172 L307.23,22.172 L307.23,21.808 Z M307.118,23.32 L308.784,23.32 L308.784,25 L307.118,25 L307.118,23.32 Z" id="HaiPlus?" fill="#18191A" fill-rule="nonzero"></path>
        <rect id="divider" fill="#E9EBED" x="240" y="1" width="1" height="38"></rect>
        <path d="M192.724,15.368 L194.586,15.368 L198.17,25 L196.504,25 L195.678,22.662 L191.562,22.662 L190.736,25 L189.14,25 L192.724,15.368 Z M193.606,16.936 L192.038,21.346 L195.216,21.346 L193.662,16.936 L193.606,16.936 Z M199.332,14.752 L200.844,14.752 L200.844,16.894 C200.844,17.1273345 200.841667,17.4563312 200.837,17.881 C200.832333,18.3056688 200.816,18.7419978 200.788,19.19 L200.844,19.19 C201.058668,18.7699979 201.364331,18.4666676 201.761,18.28 C202.157669,18.0933324 202.607997,18 203.112,18 C203.541335,18 203.942665,18.0769992 204.316,18.231 C204.689335,18.3850008 205.011332,18.6113318 205.282,18.91 C205.552668,19.2086682 205.767333,19.5773311 205.926,20.016 C206.084667,20.4546689 206.164,20.9586638 206.164,21.528 C206.164,22.0973362 206.082334,22.6059978 205.919,23.054 C205.755666,23.5020022 205.529335,23.8823318 205.24,24.195 C204.950665,24.5076682 204.614669,24.7479992 204.232,24.916 C203.849331,25.0840008 203.438669,25.168 203,25.168 C202.505331,25.168 202.076002,25.0746676 201.712,24.888 C201.347998,24.7013324 201.058668,24.3980021 200.844,23.978 L200.788,23.978 L200.788,25 L199.332,25 L199.332,14.752 Z M200.844,21.584 C200.844,21.9573352 200.890666,22.2909985 200.984,22.585 C201.077334,22.8790015 201.207999,23.1263323 201.376,23.327 C201.544001,23.5276677 201.742332,23.6816661 201.971,23.789 C202.199668,23.8963339 202.449332,23.95 202.72,23.95 C203.261336,23.95 203.706998,23.7353355 204.057,23.306 C204.407002,22.8766645 204.582,22.2840038 204.582,21.528 C204.582,20.7719962 204.407002,20.198002 204.057,19.806 C203.706998,19.413998 203.261336,19.218 202.72,19.218 C202.458665,19.218 202.216001,19.2693328 201.992,19.372 C201.767999,19.4746672 201.572001,19.6216657 201.404,19.813 C201.235999,20.0043343 201.103,20.2399986 201.005,20.52 C200.907,20.8000014 200.853333,21.1173316 200.844,21.472 L200.844,21.584 Z M207.256,21.584 C207.256,21.0333306 207.342332,20.5363355 207.515,20.093 C207.687668,19.6496644 207.930332,19.2740015 208.243,18.966 C208.555668,18.6579985 208.924331,18.4200008 209.349,18.252 C209.773669,18.0839992 210.237997,18 210.742,18 C211.274003,18 211.754665,18.0816658 212.184,18.245 C212.613335,18.4083341 212.979665,18.6439985 213.283,18.952 C213.586335,19.2600015 213.819666,19.6356644 213.983,20.079 C214.146334,20.5223355 214.228,21.0239972 214.228,21.584 C214.228,22.1346694 214.141668,22.6316644 213.969,23.075 C213.796332,23.5183355 213.556002,23.8939985 213.248,24.202 C212.939998,24.5100015 212.571335,24.7479992 212.142,24.916 C211.712665,25.0840008 211.246003,25.168 210.742,25.168 C210.209997,25.168 209.729335,25.0863341 209.3,24.923 C208.870665,24.7596658 208.504335,24.5240015 208.201,24.216 C207.897665,23.9079985 207.664334,23.5323355 207.501,23.089 C207.337666,22.6456644 207.256,22.1440028 207.256,21.584 Z M208.824,21.584 C208.824,22.3026703 208.998998,22.8766645 209.349,23.306 C209.699002,23.7353355 210.16333,23.95 210.742,23.95 C211.32067,23.95 211.784998,23.7353355 212.135,23.306 C212.485002,22.8766645 212.66,22.3026703 212.66,21.584 C212.66,20.8373296 212.485002,20.2563354 212.135,19.841 C211.784998,19.4256646 211.32067,19.218 210.742,19.218 C210.16333,19.218 209.699002,19.4326645 209.349,19.862 C208.998998,20.2913355 208.824,20.8653297 208.824,21.584 Z M215.698,18.168 L217.21,18.168 L217.21,22.116 C217.21,22.7973367 217.342999,23.2709987 217.609,23.537 C217.875001,23.8030013 218.227331,23.936 218.666,23.936 C219.151336,23.936 219.550332,23.740002 219.863,23.348 C220.175668,22.955998 220.332,22.4053369 220.332,21.696 L220.332,18.168 L221.844,18.168 L221.844,25 L220.402,25 L220.402,24.006 L220.346,24.006 C219.953998,24.7806705 219.263338,25.168 218.274,25.168 C217.928665,25.168 217.602002,25.1190005 217.294,25.021 C216.985998,24.9229995 216.713001,24.7620011 216.475,24.538 C216.236999,24.3139989 216.048001,24.0200018 215.908,23.656 C215.767999,23.2919982 215.698,22.8440027 215.698,22.312 L215.698,18.168 Z M224.098,19.344 L222.81,19.344 L222.81,18.168 L224.098,18.168 L224.098,16.096 L225.61,16.096 L225.61,18.168 L227.36,18.168 L227.36,19.344 L225.61,19.344 L225.61,22.816 C225.61,23.1426683 225.679999,23.3783326 225.82,23.523 C225.960001,23.6676674 226.197998,23.74 226.534,23.74 L227.36,23.74 L227.36,25 L226.338,25 C225.553996,25 224.984668,24.8366683 224.63,24.51 C224.275332,24.1833317 224.098,23.6466704 224.098,22.9 L224.098,19.344 Z" id="About" fill="#18191A" fill-rule="nonzero"></path>
        <rect id="divider" fill="#E9EBED" x="176" y="1" width="1" height="38"></rect>
        <path d="M133.724,15.368 L135.586,15.368 L139.17,25 L137.504,25 L136.678,22.662 L132.562,22.662 L131.736,25 L130.14,25 L133.724,15.368 Z M134.606,16.936 L133.038,21.346 L136.216,21.346 L134.662,16.936 L134.606,16.936 Z M140.276,14.752 L141.9,14.752 L141.9,16.292 L140.276,16.292 L140.276,14.752 Z M140.332,18.168 L141.844,18.168 L141.844,25 L140.332,25 L140.332,18.168 Z M143.79,18.168 L145.302,18.168 L145.302,22.116 C145.302,22.7973367 145.434999,23.2709987 145.701,23.537 C145.967001,23.8030013 146.319331,23.936 146.758,23.936 C147.243336,23.936 147.642332,23.740002 147.955,23.348 C148.267668,22.955998 148.424,22.4053369 148.424,21.696 L148.424,18.168 L149.936,18.168 L149.936,25 L148.494,25 L148.494,24.006 L148.438,24.006 C148.045998,24.7806705 147.355338,25.168 146.366,25.168 C146.020665,25.168 145.694002,25.1190005 145.386,25.021 C145.077998,24.9229995 144.805001,24.7620011 144.567,24.538 C144.328999,24.3139989 144.140001,24.0200018 144,23.656 C143.859999,23.2919982 143.79,22.8440027 143.79,22.312 L143.79,18.168 Z M152.19,19.344 L150.902,19.344 L150.902,18.168 L152.19,18.168 L152.19,16.096 L153.702,16.096 L153.702,18.168 L155.452,18.168 L155.452,19.344 L153.702,19.344 L153.702,22.816 C153.702,23.1426683 153.771999,23.3783326 153.912,23.523 C154.052001,23.6676674 154.289998,23.74 154.626,23.74 L155.452,23.74 L155.452,25 L154.43,25 C153.645996,25 153.076668,24.8366683 152.722,24.51 C152.367332,24.1833317 152.19,23.6466704 152.19,22.9 L152.19,19.344 Z M156.334,21.584 C156.334,21.0333306 156.420332,20.5363355 156.593,20.093 C156.765668,19.6496644 157.008332,19.2740015 157.321,18.966 C157.633668,18.6579985 158.002331,18.4200008 158.427,18.252 C158.851669,18.0839992 159.315997,18 159.82,18 C160.352003,18 160.832665,18.0816658 161.262,18.245 C161.691335,18.4083341 162.057665,18.6439985 162.361,18.952 C162.664335,19.2600015 162.897666,19.6356644 163.061,20.079 C163.224334,20.5223355 163.306,21.0239972 163.306,21.584 C163.306,22.1346694 163.219668,22.6316644 163.047,23.075 C162.874332,23.5183355 162.634002,23.8939985 162.326,24.202 C162.017998,24.5100015 161.649335,24.7479992 161.22,24.916 C160.790665,25.0840008 160.324003,25.168 159.82,25.168 C159.287997,25.168 158.807335,25.0863341 158.378,24.923 C157.948665,24.7596658 157.582335,24.5240015 157.279,24.216 C156.975665,23.9079985 156.742334,23.5323355 156.579,23.089 C156.415666,22.6456644 156.334,22.1440028 156.334,21.584 Z M157.902,21.584 C157.902,22.3026703 158.076998,22.8766645 158.427,23.306 C158.777002,23.7353355 159.24133,23.95 159.82,23.95 C160.39867,23.95 160.862998,23.7353355 161.213,23.306 C161.563002,22.8766645 161.738,22.3026703 161.738,21.584 C161.738,20.8373296 161.563002,20.2563354 161.213,19.841 C160.862998,19.4256646 160.39867,19.218 159.82,19.218 C159.24133,19.218 158.777002,19.4326645 158.427,19.862 C158.076998,20.2913355 157.902,20.8653297 157.902,21.584 Z" id="Aiuto" fill="#18191A" fill-rule="nonzero"></path>
    </g>
</svg>