<?xml version="1.0" encoding="UTF-8"?>
<svg width="320px" height="40px" viewBox="0 0 320 40" version="1.1" xmlns="http://www.w3.org/2000/svg" xmlns:xlink="http://www.w3.org/1999/xlink">
    <!-- Generator: Sketch 53 (72520) - https://sketchapp.com -->
    <title>ul_nl</title>
    <desc>Created with Sketch.</desc>
    <g id="ul_nl" stroke="none" stroke-width="1" fill="none" fill-rule="evenodd">
        <path d="M150.5,6.00691225 C150.5,2.96269047 152.9565,0.5 156.00055,0.5 L314.99945,0.5 C318.039594,0.5 320.5,2.9613383 320.5,6.00691225 L320.5,33.9930877 C320.5,37.0373095 318.0435,39.5 314.99945,39.5 L156.00055,39.5 C152.960406,39.5 150.5,37.0386617 150.5,33.9930877 L150.5,6.00691225 Z" id="BG" stroke="#D4D7D8" fill="#FFFFFF"></path>
        <path d="M274.176,15.368 L278.082,15.368 C278.642003,15.368 279.138998,15.4449992 279.573,15.599 C280.007002,15.7530008 280.370999,15.9676653 280.665,16.243 C280.959001,16.5183347 281.182999,16.8496647 281.337,17.237 C281.491001,17.6243353 281.568,18.0466644 281.568,18.504 C281.568,18.970669 281.491001,19.399998 281.337,19.792 C281.182999,20.184002 280.959001,20.5246652 280.665,20.814 C280.370999,21.1033348 280.007002,21.3296658 279.573,21.493 C279.138998,21.6563341 278.642003,21.738 278.082,21.738 L275.758,21.738 L275.758,25 L274.176,25 L274.176,15.368 Z M275.758,16.684 L275.758,20.436 L278.012,20.436 C278.338668,20.436 278.625665,20.3870005 278.873,20.289 C279.120335,20.1909995 279.325666,20.0533342 279.489,19.876 C279.652334,19.6986658 279.773666,19.4956678 279.853,19.267 C279.932334,19.0383322 279.972,18.788668 279.972,18.518 C279.972,17.976664 279.811002,17.5356684 279.489,17.195 C279.166998,16.8543316 278.67467,16.684 278.012,16.684 L275.758,16.684 Z M283.192,14.752 L284.704,14.752 L284.704,25 L283.192,25 L283.192,14.752 Z M286.65,18.168 L288.162,18.168 L288.162,22.116 C288.162,22.7973367 288.294999,23.2709987 288.561,23.537 C288.827001,23.8030013 289.179331,23.936 289.618,23.936 C290.103336,23.936 290.502332,23.740002 290.815,23.348 C291.127668,22.955998 291.284,22.4053369 291.284,21.696 L291.284,18.168 L292.796,18.168 L292.796,25 L291.354,25 L291.354,24.006 L291.298,24.006 C290.905998,24.7806705 290.215338,25.168 289.226,25.168 C288.880665,25.168 288.554002,25.1190005 288.246,25.021 C287.937998,24.9229995 287.665001,24.7620011 287.427,24.538 C287.188999,24.3139989 287.000001,24.0200018 286.86,23.656 C286.719999,23.2919982 286.65,22.8440027 286.65,22.312 L286.65,18.168 Z M295.792,22.956 C295.792,23.1613344 295.834,23.3363326 295.918,23.481 C296.002,23.6256674 296.113999,23.7446662 296.254,23.838 C296.394001,23.9313338 296.554999,23.9989998 296.737,24.041 C296.919001,24.0830002 297.103332,24.104 297.29,24.104 C297.803336,24.104 298.176666,24.0200008 298.41,23.852 C298.643334,23.6839992 298.76,23.4320017 298.76,23.096 C298.76,22.8439987 298.683001,22.6550006 298.529,22.529 C298.374999,22.4029994 298.125335,22.3120003 297.78,22.256 L296.52,22.046 C296.267999,22.0086665 296.020668,21.9503337 295.778,21.871 C295.535332,21.7916663 295.320668,21.6796674 295.134,21.535 C294.947332,21.3903326 294.795667,21.2083344 294.679,20.989 C294.562333,20.7696656 294.504,20.4966683 294.504,20.17 C294.504,19.8246649 294.573999,19.516668 294.714,19.246 C294.854001,18.975332 295.049999,18.7490009 295.302,18.567 C295.554001,18.3849991 295.850332,18.2450005 296.191,18.147 C296.531668,18.0489995 296.902665,18 297.304,18 C297.696002,18 298.062332,18.0466662 298.403,18.14 C298.743668,18.2333338 299.039999,18.3709991 299.292,18.553 C299.544001,18.7350009 299.739999,18.9636653 299.88,19.239 C300.020001,19.5143347 300.09,19.8339982 300.09,20.198 L298.676,20.198 C298.676,19.8433316 298.550001,19.5656677 298.298,19.365 C298.045999,19.1643323 297.714669,19.064 297.304,19.064 C296.902665,19.064 296.578335,19.1479992 296.331,19.316 C296.083665,19.4840008 295.96,19.7173318 295.96,20.016 C295.96,20.2493345 296.039333,20.4289994 296.198,20.555 C296.356667,20.6810006 296.641331,20.781333 297.052,20.856 L298.312,21.066 C298.573335,21.1126669 298.820666,21.1756663 299.054,21.255 C299.287334,21.3343337 299.494999,21.4463326 299.677,21.591 C299.859001,21.7356674 300.003666,21.9223322 300.111,22.151 C300.218334,22.3796678 300.272,22.6619983 300.272,22.998 C300.272,23.3620018 300.199667,23.6816653 300.055,23.957 C299.910333,24.2323347 299.707335,24.4586658 299.446,24.636 C299.184665,24.8133342 298.872002,24.9463329 298.508,25.035 C298.143998,25.1236671 297.738002,25.168 297.29,25.168 C296.384662,25.168 295.668336,24.9813352 295.141,24.608 C294.613664,24.2346648 294.35,23.6840036 294.35,22.956 L295.792,22.956 Z M303.632,21.808 C303.632,21.4906651 303.664666,21.2083346 303.73,20.961 C303.795334,20.7136654 303.883999,20.4966676 303.996,20.31 C304.108001,20.1233324 304.236333,19.9600007 304.381,19.82 C304.525667,19.6799993 304.677333,19.5540006 304.836,19.442 L305.172,19.19 C305.405334,19.0033324 305.608332,18.812001 305.781,18.616 C305.953668,18.419999 306.04,18.1633349 306.04,17.846 C306.04,17.453998 305.904668,17.1250013 305.634,16.859 C305.363332,16.5929987 304.994669,16.46 304.528,16.46 C304.219998,16.46 303.958668,16.5089995 303.744,16.607 C303.529332,16.7050005 303.352001,16.8379992 303.212,17.006 C303.071999,17.1740008 302.969334,17.3676656 302.904,17.587 C302.838666,17.8063344 302.806,18.0373321 302.806,18.28 L301.336,18.28 C301.336,17.887998 301.398999,17.5053352 301.525,17.132 C301.651001,16.7586648 301.842332,16.4296681 302.099,16.145 C302.355668,15.8603319 302.684665,15.6316675 303.086,15.459 C303.487335,15.2863325 303.967997,15.2 304.528,15.2 C304.976002,15.2 305.386665,15.2583327 305.76,15.375 C306.133335,15.4916672 306.455332,15.6619989 306.726,15.886 C306.996668,16.1100011 307.206666,16.3806651 307.356,16.698 C307.505334,17.0153349 307.58,17.3746647 307.58,17.776 C307.58,18.0560014 307.545,18.3033323 307.475,18.518 C307.405,18.7326677 307.314001,18.9239992 307.202,19.092 C307.089999,19.2600008 306.961667,19.411666 306.817,19.547 C306.672333,19.682334 306.525334,19.8106661 306.376,19.932 L306.04,20.184 C305.778665,20.3706676 305.554668,20.5783322 305.368,20.807 C305.181332,21.0356678 305.088,21.3319982 305.088,21.696 L305.088,22.172 L303.632,22.172 L303.632,21.808 Z M303.52,23.32 L305.186,23.32 L305.186,25 L303.52,25 L303.52,23.32 Z" id="Plus?" fill="#18191A" fill-rule="nonzero"></path>
        <rect id="divider" fill="#D4D7D8" x="260" y="1" width="1" height="38"></rect>
        <path d="M217.616,20.184 C217.616,19.4653297 217.730332,18.8026697 217.959,18.196 C218.187668,17.5893303 218.511998,17.0643355 218.932,16.621 C219.352002,16.1776645 219.855997,15.8300013 220.444,15.578 C221.032003,15.3259987 221.689996,15.2 222.418,15.2 C223.127337,15.2 223.77833,15.3259987 224.371,15.578 C224.96367,15.8300013 225.472331,16.1776645 225.897,16.621 C226.321669,17.0643355 226.650666,17.5893303 226.884,18.196 C227.117334,18.8026697 227.234,19.4653297 227.234,20.184 C227.234,20.9026703 227.117334,21.5653303 226.884,22.172 C226.650666,22.7786697 226.321669,23.3036644 225.897,23.747 C225.472331,24.1903356 224.96367,24.5379987 224.371,24.79 C223.77833,25.0420013 223.127337,25.168 222.418,25.168 C221.689996,25.168 221.032003,25.0420013 220.444,24.79 C219.855997,24.5379987 219.352002,24.1903356 218.932,23.747 C218.511998,23.3036644 218.187668,22.7786697 217.959,22.172 C217.730332,21.5653303 217.616,20.9026703 217.616,20.184 Z M219.254,20.184 C219.254,20.7066693 219.328666,21.1849978 219.478,21.619 C219.627334,22.0530022 219.841999,22.4309984 220.122,22.753 C220.402001,23.0750016 220.735665,23.3246658 221.123,23.502 C221.510335,23.6793342 221.941998,23.768 222.418,23.768 C222.894002,23.768 223.327998,23.6770009 223.72,23.495 C224.112002,23.3129991 224.447999,23.0633349 224.728,22.746 C225.008001,22.4286651 225.222666,22.0506689 225.372,21.612 C225.521334,21.1733311 225.596,20.6973359 225.596,20.184 C225.596,19.6706641 225.521334,19.1946689 225.372,18.756 C225.222666,18.3173311 225.008001,17.9393349 224.728,17.622 C224.447999,17.3046651 224.112002,17.0550009 223.72,16.873 C223.327998,16.6909991 222.894002,16.6 222.418,16.6 C221.941998,16.6 221.510335,16.6886658 221.123,16.866 C220.735665,17.0433342 220.402001,17.2929984 220.122,17.615 C219.841999,17.9370016 219.627334,18.3173311 219.478,18.756 C219.328666,19.1946689 219.254,19.6706641 219.254,20.184 Z M227.906,18.168 L229.558,18.168 L231.336,23.432 L231.392,23.432 L233.17,18.168 L234.696,18.168 L232.218,25 L230.454,25 L227.906,18.168 Z M235.284,21.598 C235.284,21.056664 235.367999,20.5643355 235.536,20.121 C235.704001,19.6776644 235.939665,19.2996682 236.243,18.987 C236.546335,18.6743318 236.903331,18.4316675 237.314,18.259 C237.724669,18.0863325 238.177331,18 238.672,18 C239.148002,18 239.581998,18.0746659 239.974,18.224 C240.366002,18.3733341 240.701999,18.5903319 240.982,18.875 C241.262001,19.1596681 241.478999,19.5073313 241.633,19.918 C241.787001,20.3286687 241.864,20.7999973 241.864,21.332 L241.864,21.836 L236.838,21.836 C236.875334,22.5080034 237.061998,23.0329981 237.398,23.411 C237.734002,23.7890019 238.177331,23.978 238.728,23.978 C239.213336,23.978 239.581999,23.8683344 239.834,23.649 C240.086001,23.4296656 240.249333,23.1800014 240.324,22.9 L241.794,22.9 C241.747333,23.2080015 241.644667,23.4996653 241.486,23.775 C241.327333,24.0503347 241.117335,24.2906656 240.856,24.496 C240.594665,24.7013344 240.284335,24.8646661 239.925,24.986 C239.565665,25.1073339 239.162002,25.168 238.714,25.168 C237.612661,25.168 236.76567,24.8553365 236.173,24.23 C235.58033,23.6046635 235.284,22.727339 235.284,21.598 Z M238.672,19.19 C238.223998,19.19 237.843668,19.3346652 237.531,19.624 C237.218332,19.9133348 237.010667,20.3146641 236.908,20.828 L240.324,20.828 C240.268,20.2679972 240.100001,19.8550013 239.82,19.589 C239.539999,19.3229987 239.157336,19.19 238.672,19.19 Z M243.376,18.168 L244.832,18.168 L244.832,19.162 L244.874,19.162 C245.042001,18.7979982 245.275332,18.5133344 245.574,18.308 C245.872668,18.1026656 246.241331,18 246.68,18 C246.820001,18 246.969333,18.0163332 247.128,18.049 C247.286667,18.0816668 247.454666,18.1586661 247.632,18.28 L247.24,19.624 C246.941332,19.4746659 246.661335,19.4 246.4,19.4 C246.147999,19.4 245.926334,19.4583328 245.735,19.575 C245.543666,19.6916673 245.385001,19.847999 245.259,20.044 C245.132999,20.240001 245.039667,20.4709987 244.979,20.737 C244.918333,21.0030013 244.888,21.2853318 244.888,21.584 L244.888,25 L243.376,25 L243.376,18.168 Z" id="Over" fill="#18191A" fill-rule="nonzero"></path>
        <rect id="divider" fill="#D4D7D8" x="204" y="1" width="1" height="38"></rect>
        <path d="M164.176,15.368 L165.758,15.368 L165.758,19.456 L170.602,19.456 L170.602,15.368 L172.198,15.368 L172.198,25 L170.602,25 L170.602,20.8 L165.758,20.8 L165.758,25 L164.176,25 L164.176,15.368 Z M173.906,21.598 C173.906,21.056664 173.989999,20.5643355 174.158,20.121 C174.326001,19.6776644 174.561665,19.2996682 174.865,18.987 C175.168335,18.6743318 175.525331,18.4316675 175.936,18.259 C176.346669,18.0863325 176.799331,18 177.294,18 C177.770002,18 178.203998,18.0746659 178.596,18.224 C178.988002,18.3733341 179.323999,18.5903319 179.604,18.875 C179.884001,19.1596681 180.100999,19.5073313 180.255,19.918 C180.409001,20.3286687 180.486,20.7999973 180.486,21.332 L180.486,21.836 L175.46,21.836 C175.497334,22.5080034 175.683998,23.0329981 176.02,23.411 C176.356002,23.7890019 176.799331,23.978 177.35,23.978 C177.835336,23.978 178.203999,23.8683344 178.456,23.649 C178.708001,23.4296656 178.871333,23.1800014 178.946,22.9 L180.416,22.9 C180.369333,23.2080015 180.266667,23.4996653 180.108,23.775 C179.949333,24.0503347 179.739335,24.2906656 179.478,24.496 C179.216665,24.7013344 178.906335,24.8646661 178.547,24.986 C178.187665,25.1073339 177.784002,25.168 177.336,25.168 C176.234661,25.168 175.38767,24.8553365 174.795,24.23 C174.20233,23.6046635 173.906,22.727339 173.906,21.598 Z M177.294,19.19 C176.845998,19.19 176.465668,19.3346652 176.153,19.624 C175.840332,19.9133348 175.632667,20.3146641 175.53,20.828 L178.946,20.828 C178.89,20.2679972 178.722001,19.8550013 178.442,19.589 C178.161999,19.3229987 177.779336,19.19 177.294,19.19 Z M181.998,14.752 L183.51,14.752 L183.51,25 L181.998,25 L181.998,14.752 Z M187.08,28.08 L185.568,28.08 L185.568,18.168 L187.024,18.168 L187.024,19.19 L187.08,19.19 C187.294668,18.7699979 187.600331,18.4666676 187.997,18.28 C188.393669,18.0933324 188.843997,18 189.348,18 C189.777335,18 190.178665,18.0769992 190.552,18.231 C190.925335,18.3850008 191.247332,18.6113318 191.518,18.91 C191.788668,19.2086682 192.003333,19.5773311 192.162,20.016 C192.320667,20.4546689 192.4,20.9586638 192.4,21.528 C192.4,22.0973362 192.318334,22.6059978 192.155,23.054 C191.991666,23.5020022 191.765335,23.8823318 191.476,24.195 C191.186665,24.5076682 190.850669,24.7479992 190.468,24.916 C190.085331,25.0840008 189.674669,25.168 189.236,25.168 C188.741331,25.168 188.312002,25.0746676 187.948,24.888 C187.583998,24.7013324 187.294668,24.3980021 187.08,23.978 L187.024,23.978 C187.052,24.4260022 187.068333,24.8623312 187.073,25.287 C187.077667,25.7116688 187.08,26.0406655 187.08,26.274 L187.08,28.08 Z M190.818,21.528 C190.818,20.7719962 190.643002,20.198002 190.293,19.806 C189.942998,19.413998 189.497336,19.218 188.956,19.218 C188.694665,19.218 188.452001,19.2693328 188.228,19.372 C188.003999,19.4746672 187.808001,19.6216657 187.64,19.813 C187.471999,20.0043343 187.339,20.2399986 187.241,20.52 C187.143,20.8000014 187.089333,21.1173316 187.08,21.472 L187.08,21.584 C187.08,21.9573352 187.126666,22.2909985 187.22,22.585 C187.313334,22.8790015 187.443999,23.1263323 187.612,23.327 C187.780001,23.5276677 187.978332,23.6816661 188.207,23.789 C188.435668,23.8963339 188.685332,23.95 188.956,23.95 C189.497336,23.95 189.942998,23.7353355 190.293,23.306 C190.643002,22.8766645 190.818,22.2840038 190.818,21.528 Z" id="Help" fill="#18191A" fill-rule="nonzero"></path>
    </g>
</svg>