<?xml version="1.0" encoding="UTF-8"?>
<svg width="324px" height="40px" viewBox="0 0 324 40" version="1.1" xmlns="http://www.w3.org/2000/svg" xmlns:xlink="http://www.w3.org/1999/xlink">
    <!-- Generator: Sketch 53 (72520) - https://sketchapp.com -->
    <title>ui_nb</title>
    <desc>Created with Sketch.</desc>
    <g id="ui_nb" stroke="none" stroke-width="1" fill="none" fill-rule="evenodd">
        <path d="M111.5,6.00691225 C111.5,2.96436096 113.962441,0.5 117.005519,0.5 L318.994481,0.5 C322.037261,0.5 324.5,2.96122714 324.5,6.00691225 L324.5,33.9930877 C324.5,37.035639 322.037559,39.5 318.994481,39.5 L117.005519,39.5 C113.962739,39.5 111.5,37.0387729 111.5,33.9930877 L111.5,6.00691225 Z" id="BG" stroke-opacity="0.11" stroke="#000000" fill="#FFFFFF"></path>
        <path d="M232.176,15.368 L233.758,15.368 L233.758,19.456 L238.602,19.456 L238.602,15.368 L240.198,15.368 L240.198,25 L238.602,25 L238.602,20.8 L233.758,20.8 L233.758,25 L232.176,25 L232.176,15.368 Z M242.004,23.18 C242.004,22.5733303 242.178998,22.1066683 242.529,21.78 C242.879002,21.4533317 243.445996,21.2293339 244.23,21.108 L245.616,20.884 C245.793334,20.8559999 245.940333,20.8303334 246.057,20.807 C246.173667,20.7836665 246.264666,20.7533335 246.33,20.716 C246.395334,20.6786665 246.439667,20.6273337 246.463,20.562 C246.486333,20.4966663 246.498,20.4126672 246.498,20.31 C246.498,19.9833317 246.388334,19.7056678 246.169,19.477 C245.949666,19.2483322 245.611336,19.134 245.154,19.134 C244.696664,19.134 244.349001,19.2459989 244.111,19.47 C243.872999,19.6940011 243.74,19.9833316 243.712,20.338 L242.27,20.338 C242.316667,19.6286631 242.591997,19.0616688 243.096,18.637 C243.600003,18.2123312 244.285996,18 245.154,18 C246.115338,18 246.831664,18.2193311 247.303,18.658 C247.774336,19.0966689 248.01,19.7173293 248.01,20.52 L248.01,25 L246.568,25 L246.568,23.936 L246.512,23.936 C246.353333,24.3000018 246.082669,24.586999 245.7,24.797 C245.317331,25.007001 244.841336,25.112 244.272,25.112 C243.562663,25.112 243.007335,24.9416684 242.606,24.601 C242.204665,24.2603316 242.004,23.7866697 242.004,23.18 Z M246.498,21.514 C246.367333,21.6820008 246.134002,21.7893331 245.798,21.836 L244.622,22.046 C244.239331,22.1020003 243.959334,22.2069992 243.782,22.361 C243.604666,22.5150008 243.516,22.7366652 243.516,23.026 C243.516,23.3060014 243.609332,23.5346658 243.796,23.712 C243.982668,23.8893342 244.248665,23.978 244.594,23.978 C244.846001,23.978 245.086332,23.940667 245.315,23.866 C245.543668,23.791333 245.744332,23.6770008 245.917,23.523 C246.089668,23.3689992 246.229666,23.1776678 246.337,22.949 C246.444334,22.7203322 246.498,22.4520015 246.498,22.144 L246.498,21.514 Z M249.97,18.168 L251.426,18.168 L251.426,19.162 L251.468,19.162 C251.636001,18.7979982 251.869332,18.5133344 252.168,18.308 C252.466668,18.1026656 252.835331,18 253.274,18 C253.414001,18 253.563333,18.0163332 253.722,18.049 C253.880667,18.0816668 254.048666,18.1586661 254.226,18.28 L253.834,19.624 C253.535332,19.4746659 253.255335,19.4 252.994,19.4 C252.741999,19.4 252.520334,19.4583328 252.329,19.575 C252.137666,19.6916673 251.979001,19.847999 251.853,20.044 C251.726999,20.240001 251.633667,20.4709987 251.573,20.737 C251.512333,21.0030013 251.482,21.2853318 251.482,21.584 L251.482,25 L249.97,25 L249.97,18.168 Z M257.852,21.64 C257.852,21.0706638 257.933666,20.5620022 258.097,20.114 C258.260334,19.6659978 258.486665,19.2856682 258.776,18.973 C259.065335,18.6603318 259.401331,18.4200008 259.784,18.252 C260.166669,18.0839992 260.577331,18 261.016,18 C261.510669,18 261.939998,18.0933324 262.304,18.28 C262.668002,18.4666676 262.957332,18.7699979 263.172,19.19 L263.228,19.19 C263.190666,18.7419978 263.169667,18.3056688 263.165,17.881 C263.160333,17.4563312 263.158,17.1273345 263.158,16.894 L263.158,14.752 L264.67,14.752 L264.67,25 L263.228,25 L263.228,23.978 L263.172,23.978 C262.957332,24.3980021 262.651669,24.7013324 262.255,24.888 C261.858331,25.0746676 261.408003,25.168 260.904,25.168 C260.474665,25.168 260.073335,25.0910008 259.7,24.937 C259.326665,24.7829992 259.004668,24.5566682 258.734,24.258 C258.463332,23.9593318 258.248667,23.5906689 258.09,23.152 C257.931333,22.7133311 257.852,22.2093362 257.852,21.64 Z M259.42,21.64 C259.42,22.3960038 259.597332,22.969998 259.952,23.362 C260.306668,23.754002 260.749997,23.95 261.282,23.95 C261.823336,23.95 262.271332,23.7446687 262.626,23.334 C262.980668,22.9233313 263.158,22.3400038 263.158,21.584 C263.158,20.8279962 262.980668,20.2446687 262.626,19.834 C262.271332,19.4233313 261.823336,19.218 261.282,19.218 C261.011332,19.218 260.764001,19.2739994 260.54,19.386 C260.315999,19.4980006 260.120001,19.658999 259.952,19.869 C259.783999,20.0790011 259.653334,20.3333318 259.56,20.632 C259.466666,20.9306682 259.42,21.2666648 259.42,21.64 Z M266.616,18.168 L268.128,18.168 L268.128,22.116 C268.128,22.7973367 268.260999,23.2709987 268.527,23.537 C268.793001,23.8030013 269.145331,23.936 269.584,23.936 C270.069336,23.936 270.468332,23.740002 270.781,23.348 C271.093668,22.955998 271.25,22.4053369 271.25,21.696 L271.25,18.168 L272.762,18.168 L272.762,25 L271.32,25 L271.32,24.006 L271.264,24.006 C270.871998,24.7806705 270.181338,25.168 269.192,25.168 C268.846665,25.168 268.520002,25.1190005 268.212,25.021 C267.903998,24.9229995 267.631001,24.7620011 267.393,24.538 C267.154999,24.3139989 266.966001,24.0200018 266.826,23.656 C266.685999,23.2919982 266.616,22.8440027 266.616,22.312 L266.616,18.168 Z M278.04,15.368 L281.946,15.368 C282.506003,15.368 283.002998,15.4449992 283.437,15.599 C283.871002,15.7530008 284.234999,15.9676653 284.529,16.243 C284.823001,16.5183347 285.046999,16.8496647 285.201,17.237 C285.355001,17.6243353 285.432,18.0466644 285.432,18.504 C285.432,18.970669 285.355001,19.399998 285.201,19.792 C285.046999,20.184002 284.823001,20.5246652 284.529,20.814 C284.234999,21.1033348 283.871002,21.3296658 283.437,21.493 C283.002998,21.6563341 282.506003,21.738 281.946,21.738 L279.622,21.738 L279.622,25 L278.04,25 L278.04,15.368 Z M279.622,16.684 L279.622,20.436 L281.876,20.436 C282.202668,20.436 282.489665,20.3870005 282.737,20.289 C282.984335,20.1909995 283.189666,20.0533342 283.353,19.876 C283.516334,19.6986658 283.637666,19.4956678 283.717,19.267 C283.796334,19.0383322 283.836,18.788668 283.836,18.518 C283.836,17.976664 283.675002,17.5356684 283.353,17.195 C283.030998,16.8543316 282.53867,16.684 281.876,16.684 L279.622,16.684 Z M287.056,14.752 L288.568,14.752 L288.568,25 L287.056,25 L287.056,14.752 Z M290.514,18.168 L292.026,18.168 L292.026,22.116 C292.026,22.7973367 292.158999,23.2709987 292.425,23.537 C292.691001,23.8030013 293.043331,23.936 293.482,23.936 C293.967336,23.936 294.366332,23.740002 294.679,23.348 C294.991668,22.955998 295.148,22.4053369 295.148,21.696 L295.148,18.168 L296.66,18.168 L296.66,25 L295.218,25 L295.218,24.006 L295.162,24.006 C294.769998,24.7806705 294.079338,25.168 293.09,25.168 C292.744665,25.168 292.418002,25.1190005 292.11,25.021 C291.801998,24.9229995 291.529001,24.7620011 291.291,24.538 C291.052999,24.3139989 290.864001,24.0200018 290.724,23.656 C290.583999,23.2919982 290.514,22.8440027 290.514,22.312 L290.514,18.168 Z M299.656,22.956 C299.656,23.1613344 299.698,23.3363326 299.782,23.481 C299.866,23.6256674 299.977999,23.7446662 300.118,23.838 C300.258001,23.9313338 300.418999,23.9989998 300.601,24.041 C300.783001,24.0830002 300.967332,24.104 301.154,24.104 C301.667336,24.104 302.040665,24.0200008 302.274,23.852 C302.507334,23.6839992 302.624,23.4320017 302.624,23.096 C302.624,22.8439987 302.547001,22.6550006 302.393,22.529 C302.238999,22.4029994 301.989335,22.3120003 301.644,22.256 L300.384,22.046 C300.131999,22.0086665 299.884668,21.9503337 299.642,21.871 C299.399332,21.7916663 299.184668,21.6796674 298.998,21.535 C298.811332,21.3903326 298.659667,21.2083344 298.543,20.989 C298.426333,20.7696656 298.368,20.4966683 298.368,20.17 C298.368,19.8246649 298.437999,19.516668 298.578,19.246 C298.718001,18.975332 298.913999,18.7490009 299.166,18.567 C299.418001,18.3849991 299.714332,18.2450005 300.055,18.147 C300.395668,18.0489995 300.766665,18 301.168,18 C301.560002,18 301.926332,18.0466662 302.267,18.14 C302.607668,18.2333338 302.903999,18.3709991 303.156,18.553 C303.408001,18.7350009 303.603999,18.9636653 303.744,19.239 C303.884001,19.5143347 303.954,19.8339982 303.954,20.198 L302.54,20.198 C302.54,19.8433316 302.414001,19.5656677 302.162,19.365 C301.909999,19.1643323 301.578669,19.064 301.168,19.064 C300.766665,19.064 300.442335,19.1479992 300.195,19.316 C299.947665,19.4840008 299.824,19.7173318 299.824,20.016 C299.824,20.2493345 299.903333,20.4289994 300.062,20.555 C300.220667,20.6810006 300.505331,20.781333 300.916,20.856 L302.176,21.066 C302.437335,21.1126669 302.684665,21.1756663 302.918,21.255 C303.151334,21.3343337 303.358999,21.4463326 303.541,21.591 C303.723001,21.7356674 303.867666,21.9223322 303.975,22.151 C304.082334,22.3796678 304.136,22.6619983 304.136,22.998 C304.136,23.3620018 304.063667,23.6816653 303.919,23.957 C303.774333,24.2323347 303.571335,24.4586658 303.31,24.636 C303.048665,24.8133342 302.736002,24.9463329 302.372,25.035 C302.007998,25.1236671 301.602002,25.168 301.154,25.168 C300.248662,25.168 299.532336,24.9813352 299.005,24.608 C298.477664,24.2346648 298.214,23.6840036 298.214,22.956 L299.656,22.956 Z M307.496,21.808 C307.496,21.4906651 307.528666,21.2083346 307.594,20.961 C307.659334,20.7136654 307.747999,20.4966676 307.86,20.31 C307.972001,20.1233324 308.100333,19.9600007 308.245,19.82 C308.389667,19.6799993 308.541333,19.5540006 308.7,19.442 L309.036,19.19 C309.269335,19.0033324 309.472332,18.812001 309.645,18.616 C309.817668,18.419999 309.904,18.1633349 309.904,17.846 C309.904,17.453998 309.768668,17.1250013 309.498,16.859 C309.227332,16.5929987 308.858669,16.46 308.392,16.46 C308.083998,16.46 307.822668,16.5089995 307.608,16.607 C307.393332,16.7050005 307.216001,16.8379992 307.076,17.006 C306.935999,17.1740008 306.833334,17.3676656 306.768,17.587 C306.702666,17.8063344 306.67,18.0373321 306.67,18.28 L305.2,18.28 C305.2,17.887998 305.262999,17.5053352 305.389,17.132 C305.515001,16.7586648 305.706332,16.4296681 305.963,16.145 C306.219668,15.8603319 306.548665,15.6316675 306.95,15.459 C307.351335,15.2863325 307.831997,15.2 308.392,15.2 C308.840002,15.2 309.250665,15.2583327 309.624,15.375 C309.997335,15.4916672 310.319332,15.6619989 310.59,15.886 C310.860668,16.1100011 311.070666,16.3806651 311.22,16.698 C311.369334,17.0153349 311.444,17.3746647 311.444,17.776 C311.444,18.0560014 311.409,18.3033323 311.339,18.518 C311.269,18.7326677 311.178001,18.9239992 311.066,19.092 C310.953999,19.2600008 310.825667,19.411666 310.681,19.547 C310.536333,19.682334 310.389334,19.8106661 310.24,19.932 L309.904,20.184 C309.642665,20.3706676 309.418668,20.5783322 309.232,20.807 C309.045332,21.0356678 308.952,21.3319982 308.952,21.696 L308.952,22.172 L307.496,22.172 L307.496,21.808 Z M307.384,23.32 L309.05,23.32 L309.05,25 L307.384,25 L307.384,23.32 Z" id="HarduPlus?" fill="#18191A" fill-rule="nonzero"></path>
        <rect id="divider" fill="#E9EBED" x="218" y="1" width="1" height="38"></rect>
        <path d="M183.616,20.184 C183.616,19.4653297 183.730332,18.8026697 183.959,18.196 C184.187668,17.5893303 184.511998,17.0643355 184.932,16.621 C185.352002,16.1776645 185.855997,15.8300013 186.444,15.578 C187.032003,15.3259987 187.689996,15.2 188.418,15.2 C189.127337,15.2 189.77833,15.3259987 190.371,15.578 C190.96367,15.8300013 191.472331,16.1776645 191.897,16.621 C192.321669,17.0643355 192.650666,17.5893303 192.884,18.196 C193.117334,18.8026697 193.234,19.4653297 193.234,20.184 C193.234,20.9026703 193.117334,21.5653303 192.884,22.172 C192.650666,22.7786697 192.321669,23.3036644 191.897,23.747 C191.472331,24.1903356 190.96367,24.5379987 190.371,24.79 C189.77833,25.0420013 189.127337,25.168 188.418,25.168 C187.689996,25.168 187.032003,25.0420013 186.444,24.79 C185.855997,24.5379987 185.352002,24.1903356 184.932,23.747 C184.511998,23.3036644 184.187668,22.7786697 183.959,22.172 C183.730332,21.5653303 183.616,20.9026703 183.616,20.184 Z M185.254,20.184 C185.254,20.7066693 185.328666,21.1849978 185.478,21.619 C185.627334,22.0530022 185.841999,22.4309984 186.122,22.753 C186.402001,23.0750016 186.735665,23.3246658 187.123,23.502 C187.510335,23.6793342 187.941998,23.768 188.418,23.768 C188.894002,23.768 189.327998,23.6770009 189.72,23.495 C190.112002,23.3129991 190.447999,23.0633349 190.728,22.746 C191.008001,22.4286651 191.222666,22.0506689 191.372,21.612 C191.521334,21.1733311 191.596,20.6973359 191.596,20.184 C191.596,19.6706641 191.521334,19.1946689 191.372,18.756 C191.222666,18.3173311 191.008001,17.9393349 190.728,17.622 C190.447999,17.3046651 190.112002,17.0550009 189.72,16.873 C189.327998,16.6909991 188.894002,16.6 188.418,16.6 C187.941998,16.6 187.510335,16.6886658 187.123,16.866 C186.735665,17.0433342 186.402001,17.2929984 186.122,17.615 C185.841999,17.9370016 185.627334,18.3173311 185.478,18.756 C185.328666,19.1946689 185.254,19.6706641 185.254,20.184 Z M194.872,18.168 L196.328,18.168 L196.328,19.162 L196.384,19.162 C196.580001,18.769998 196.855332,18.4783343 197.21,18.287 C197.564668,18.0956657 197.979998,18 198.456,18 C198.932002,18 199.363665,18.1026656 199.751,18.308 C200.138335,18.5133344 200.429999,18.8633309 200.626,19.358 C200.868668,18.8633309 201.185998,18.5133344 201.578,18.308 C201.970002,18.1026656 202.417997,18 202.922,18 C203.258002,18 203.572999,18.0489995 203.867,18.147 C204.161001,18.2450005 204.417666,18.4036656 204.637,18.623 C204.856334,18.8423344 205.028999,19.1269982 205.155,19.477 C205.281001,19.8270018 205.344,20.2586641 205.344,20.772 L205.344,25 L203.832,25 L203.832,20.954 C203.832,20.3193302 203.720001,19.8736679 203.496,19.617 C203.271999,19.3603321 202.945335,19.232 202.516,19.232 C202.058664,19.232 201.669002,19.4233314 201.347,19.806 C201.024998,20.1886686 200.864,20.7206633 200.864,21.402 L200.864,25 L199.352,25 L199.352,20.954 C199.352,20.3193302 199.235334,19.8736679 199.002,19.617 C198.768665,19.3603321 198.446669,19.232 198.036,19.232 C197.578664,19.232 197.189002,19.4233314 196.867,19.806 C196.544998,20.1886686 196.384,20.7253299 196.384,21.416 L196.384,25 L194.872,25 L194.872,18.168 Z" id="Om" fill="#18191A" fill-rule="nonzero"></path>
        <rect id="divider" fill="#E9EBED" x="170" y="1" width="1" height="38"></rect>
        <path d="M126.176,15.368 L127.758,15.368 L127.758,19.456 L132.602,19.456 L132.602,15.368 L134.198,15.368 L134.198,25 L132.602,25 L132.602,20.8 L127.758,20.8 L127.758,25 L126.176,25 L126.176,15.368 Z M136.34,14.752 L137.964,14.752 L137.964,16.292 L136.34,16.292 L136.34,14.752 Z M136.396,18.168 L137.908,18.168 L137.908,25.994 C137.908,26.3113349 137.873,26.598332 137.803,26.855 C137.733,27.111668 137.614001,27.3309991 137.446,27.513 C137.277999,27.6950009 137.056335,27.8349995 136.781,27.933 C136.505665,28.0310005 136.167335,28.08 135.766,28.08 L135.248,28.08 L135.248,26.82 L135.598,26.82 C135.896668,26.82 136.104333,26.7430008 136.221,26.589 C136.337667,26.4349992 136.396,26.1853351 136.396,25.84 L136.396,18.168 Z M139.476,21.598 C139.476,21.056664 139.559999,20.5643355 139.728,20.121 C139.896001,19.6776644 140.131665,19.2996682 140.435,18.987 C140.738335,18.6743318 141.095331,18.4316675 141.506,18.259 C141.916669,18.0863325 142.369331,18 142.864,18 C143.340002,18 143.773998,18.0746659 144.166,18.224 C144.558002,18.3733341 144.893999,18.5903319 145.174,18.875 C145.454001,19.1596681 145.670999,19.5073313 145.825,19.918 C145.979001,20.3286687 146.056,20.7999973 146.056,21.332 L146.056,21.836 L141.03,21.836 C141.067334,22.5080034 141.253998,23.0329981 141.59,23.411 C141.926002,23.7890019 142.369331,23.978 142.92,23.978 C143.405336,23.978 143.773999,23.8683344 144.026,23.649 C144.278001,23.4296656 144.441333,23.1800014 144.516,22.9 L145.986,22.9 C145.939333,23.2080015 145.836667,23.4996653 145.678,23.775 C145.519333,24.0503347 145.309335,24.2906656 145.048,24.496 C144.786665,24.7013344 144.476335,24.8646661 144.117,24.986 C143.757665,25.1073339 143.354002,25.168 142.906,25.168 C141.804661,25.168 140.95767,24.8553365 140.365,24.23 C139.77233,23.6046635 139.476,22.727339 139.476,21.598 Z M142.864,19.19 C142.415998,19.19 142.035668,19.3346652 141.723,19.624 C141.410332,19.9133348 141.202667,20.3146641 141.1,20.828 L144.516,20.828 C144.46,20.2679972 144.292001,19.8550013 144.012,19.589 C143.731999,19.3229987 143.349336,19.19 142.864,19.19 Z M147.568,14.752 L149.08,14.752 L149.08,25 L147.568,25 L147.568,14.752 Z M152.65,28.08 L151.138,28.08 L151.138,18.168 L152.594,18.168 L152.594,19.19 L152.65,19.19 C152.864668,18.7699979 153.170331,18.4666676 153.567,18.28 C153.963669,18.0933324 154.413997,18 154.918,18 C155.347335,18 155.748665,18.0769992 156.122,18.231 C156.495335,18.3850008 156.817332,18.6113318 157.088,18.91 C157.358668,19.2086682 157.573333,19.5773311 157.732,20.016 C157.890667,20.4546689 157.97,20.9586638 157.97,21.528 C157.97,22.0973362 157.888334,22.6059978 157.725,23.054 C157.561666,23.5020022 157.335335,23.8823318 157.046,24.195 C156.756665,24.5076682 156.420669,24.7479992 156.038,24.916 C155.655331,25.0840008 155.244669,25.168 154.806,25.168 C154.311331,25.168 153.882002,25.0746676 153.518,24.888 C153.153998,24.7013324 152.864668,24.3980021 152.65,23.978 L152.594,23.978 C152.622,24.4260022 152.638333,24.8623312 152.643,25.287 C152.647667,25.7116688 152.65,26.0406655 152.65,26.274 L152.65,28.08 Z M156.388,21.528 C156.388,20.7719962 156.213002,20.198002 155.863,19.806 C155.512998,19.413998 155.067336,19.218 154.526,19.218 C154.264665,19.218 154.022001,19.2693328 153.798,19.372 C153.573999,19.4746672 153.378001,19.6216657 153.21,19.813 C153.041999,20.0043343 152.909,20.2399986 152.811,20.52 C152.713,20.8000014 152.659333,21.1173316 152.65,21.472 L152.65,21.584 C152.65,21.9573352 152.696666,22.2909985 152.79,22.585 C152.883334,22.8790015 153.013999,23.1263323 153.182,23.327 C153.350001,23.5276677 153.548332,23.6816661 153.777,23.789 C154.005668,23.8963339 154.255332,23.95 154.526,23.95 C155.067336,23.95 155.512998,23.7353355 155.863,23.306 C156.213002,22.8766645 156.388,22.2840038 156.388,21.528 Z" id="Hjelp" fill="#18191A" fill-rule="nonzero"></path>
    </g>
</svg>
