<?xml version="1.0" encoding="UTF-8"?>
<svg width="324px" height="40px" viewBox="0 0 324 40" version="1.1" xmlns="http://www.w3.org/2000/svg" xmlns:xlink="http://www.w3.org/1999/xlink">
    <!-- Generator: Sketch 53 (72520) - https://sketchapp.com -->
    <title>ui_pt</title>
    <desc>Created with Sketch.</desc>
    <g id="ui_pt" stroke="none" stroke-width="1" fill="none" fill-rule="evenodd">
        <path d="M53.5,6.00691225 C53.5,2.96305836 55.9593327,0.5 59.0046099,0.5 L318.99539,0.5 C322.037688,0.5 324.5,2.96124747 324.5,6.00691225 L324.5,33.9930877 C324.5,37.0369416 322.040667,39.5 318.99539,39.5 L59.0046099,39.5 C55.9623121,39.5 53.5,37.0387525 53.5,33.9930877 L53.5,6.00691225 Z" id="BG" stroke-opacity="0.11" stroke="#000000" fill="#FFFFFF"></path>
        <path d="M217.504,21.738 L219.072,21.738 L219.072,22.186 C219.072,22.4940015 219.107,22.7529989 219.177,22.963 C219.247,23.173001 219.344999,23.3409994 219.471,23.467 C219.597001,23.5930006 219.743999,23.6839997 219.912,23.74 C220.080001,23.7960003 220.266666,23.824 220.472,23.824 C220.677334,23.824 220.863999,23.7960003 221.032,23.74 C221.200001,23.6839997 221.346999,23.5930006 221.473,23.467 C221.599001,23.3409994 221.697,23.1706677 221.767,22.956 C221.837,22.7413323 221.872,22.4753349 221.872,22.158 L221.872,15.368 L223.454,15.368 L223.454,22.158 C223.454,22.7086694 223.381667,23.1753314 223.237,23.558 C223.092333,23.9406686 222.889335,24.2509988 222.628,24.489 C222.366665,24.7270012 222.054002,24.8996661 221.69,25.007 C221.325998,25.1143339 220.920002,25.168 220.472,25.168 C220.033331,25.168 219.634335,25.1143339 219.275,25.007 C218.915665,24.8996661 218.603001,24.7293345 218.337,24.496 C218.070999,24.2626655 217.865667,23.9593352 217.721,23.586 C217.576333,23.2126648 217.504,22.7600027 217.504,22.228 L217.504,21.738 Z M225.106,23.18 C225.106,22.5733303 225.280998,22.1066683 225.631,21.78 C225.981002,21.4533317 226.547996,21.2293339 227.332,21.108 L228.718,20.884 C228.895334,20.8559999 229.042333,20.8303334 229.159,20.807 C229.275667,20.7836665 229.366666,20.7533335 229.432,20.716 C229.497334,20.6786665 229.541667,20.6273337 229.565,20.562 C229.588333,20.4966663 229.6,20.4126672 229.6,20.31 C229.6,19.9833317 229.490334,19.7056678 229.271,19.477 C229.051666,19.2483322 228.713336,19.134 228.256,19.134 C227.798664,19.134 227.451001,19.2459989 227.213,19.47 C226.974999,19.6940011 226.842,19.9833316 226.814,20.338 L225.372,20.338 C225.418667,19.6286631 225.693997,19.0616688 226.198,18.637 C226.702003,18.2123312 227.387996,18 228.256,18 C229.217338,18 229.933664,18.2193311 230.405,18.658 C230.876336,19.0966689 231.112,19.7173293 231.112,20.52 L231.112,25 L229.67,25 L229.67,23.936 L229.614,23.936 C229.455333,24.3000018 229.184669,24.586999 228.802,24.797 C228.419331,25.007001 227.943336,25.112 227.374,25.112 C226.664663,25.112 226.109335,24.9416684 225.708,24.601 C225.306665,24.2603316 225.106,23.7866697 225.106,23.18 Z M229.6,21.514 C229.469333,21.6820008 229.236002,21.7893331 228.9,21.836 L227.724,22.046 C227.341331,22.1020003 227.061334,22.2069992 226.884,22.361 C226.706666,22.5150008 226.618,22.7366652 226.618,23.026 C226.618,23.3060014 226.711332,23.5346658 226.898,23.712 C227.084668,23.8893342 227.350665,23.978 227.696,23.978 C227.948001,23.978 228.188332,23.940667 228.417,23.866 C228.645668,23.791333 228.846332,23.6770008 229.019,23.523 C229.191668,23.3689992 229.331666,23.1776678 229.439,22.949 C229.546334,22.7203322 229.6,22.4520015 229.6,22.144 L229.6,21.514 Z M229.124,14.752 L230.804,14.752 L228.76,17.048 L227.696,17.048 L229.124,14.752 Z M236.362,19.344 L235.074,19.344 L235.074,18.168 L236.362,18.168 L236.362,16.096 L237.874,16.096 L237.874,18.168 L239.624,18.168 L239.624,19.344 L237.874,19.344 L237.874,22.816 C237.874,23.1426683 237.943999,23.3783326 238.084,23.523 C238.224001,23.6676674 238.461998,23.74 238.798,23.74 L239.624,23.74 L239.624,25 L238.602,25 C237.817996,25 237.248668,24.8366683 236.894,24.51 C236.539332,24.1833317 236.362,23.6466704 236.362,22.9 L236.362,19.344 Z M240.492,21.598 C240.492,21.056664 240.575999,20.5643355 240.744,20.121 C240.912001,19.6776644 241.147665,19.2996682 241.451,18.987 C241.754335,18.6743318 242.111331,18.4316675 242.522,18.259 C242.932669,18.0863325 243.385331,18 243.88,18 C244.356002,18 244.789998,18.0746659 245.182,18.224 C245.574002,18.3733341 245.909999,18.5903319 246.19,18.875 C246.470001,19.1596681 246.686999,19.5073313 246.841,19.918 C246.995001,20.3286687 247.072,20.7999973 247.072,21.332 L247.072,21.836 L242.046,21.836 C242.083334,22.5080034 242.269998,23.0329981 242.606,23.411 C242.942002,23.7890019 243.385331,23.978 243.936,23.978 C244.421336,23.978 244.789999,23.8683344 245.042,23.649 C245.294001,23.4296656 245.457333,23.1800014 245.532,22.9 L247.002,22.9 C246.955333,23.2080015 246.852667,23.4996653 246.694,23.775 C246.535333,24.0503347 246.325335,24.2906656 246.064,24.496 C245.802665,24.7013344 245.492335,24.8646661 245.133,24.986 C244.773665,25.1073339 244.370002,25.168 243.922,25.168 C242.820661,25.168 241.97367,24.8553365 241.381,24.23 C240.78833,23.6046635 240.492,22.727339 240.492,21.598 Z M243.88,19.19 C243.431998,19.19 243.051668,19.3346652 242.739,19.624 C242.426332,19.9133348 242.218667,20.3146641 242.116,20.828 L245.532,20.828 C245.476,20.2679972 245.308001,19.8550013 245.028,19.589 C244.747999,19.3229987 244.365336,19.19 243.88,19.19 Z M248.584,18.168 L250.04,18.168 L250.04,19.162 L250.096,19.162 C250.488002,18.3873295 251.192662,18 252.21,18 C252.546002,18 252.870332,18.0489995 253.183,18.147 C253.495668,18.2450005 253.768665,18.4059989 254.002,18.63 C254.235335,18.8540011 254.421999,19.1479982 254.562,19.512 C254.702001,19.8760018 254.772,20.3239973 254.772,20.856 L254.772,25 L253.26,25 L253.26,21.052 C253.26,20.3706633 253.129335,19.8970013 252.868,19.631 C252.606665,19.3649987 252.252002,19.232 251.804,19.232 C251.318664,19.232 250.912668,19.4256647 250.586,19.813 C250.259332,20.2003353 250.096,20.7393299 250.096,21.43 L250.096,25 L248.584,25 L248.584,18.168 Z M257.67,22.956 C257.67,23.1613344 257.712,23.3363326 257.796,23.481 C257.88,23.6256674 257.991999,23.7446662 258.132,23.838 C258.272001,23.9313338 258.432999,23.9989998 258.615,24.041 C258.797001,24.0830002 258.981332,24.104 259.168,24.104 C259.681336,24.104 260.054665,24.0200008 260.288,23.852 C260.521334,23.6839992 260.638,23.4320017 260.638,23.096 C260.638,22.8439987 260.561001,22.6550006 260.407,22.529 C260.252999,22.4029994 260.003335,22.3120003 259.658,22.256 L258.398,22.046 C258.145999,22.0086665 257.898668,21.9503337 257.656,21.871 C257.413332,21.7916663 257.198668,21.6796674 257.012,21.535 C256.825332,21.3903326 256.673667,21.2083344 256.557,20.989 C256.440333,20.7696656 256.382,20.4966683 256.382,20.17 C256.382,19.8246649 256.451999,19.516668 256.592,19.246 C256.732001,18.975332 256.927999,18.7490009 257.18,18.567 C257.432001,18.3849991 257.728332,18.2450005 258.069,18.147 C258.409668,18.0489995 258.780665,18 259.182,18 C259.574002,18 259.940332,18.0466662 260.281,18.14 C260.621668,18.2333338 260.917999,18.3709991 261.17,18.553 C261.422001,18.7350009 261.617999,18.9636653 261.758,19.239 C261.898001,19.5143347 261.968,19.8339982 261.968,20.198 L260.554,20.198 C260.554,19.8433316 260.428001,19.5656677 260.176,19.365 C259.923999,19.1643323 259.592669,19.064 259.182,19.064 C258.780665,19.064 258.456335,19.1479992 258.209,19.316 C257.961665,19.4840008 257.838,19.7173318 257.838,20.016 C257.838,20.2493345 257.917333,20.4289994 258.076,20.555 C258.234667,20.6810006 258.519331,20.781333 258.93,20.856 L260.19,21.066 C260.451335,21.1126669 260.698666,21.1756663 260.932,21.255 C261.165334,21.3343337 261.372999,21.4463326 261.555,21.591 C261.737001,21.7356674 261.881666,21.9223322 261.989,22.151 C262.096334,22.3796678 262.15,22.6619983 262.15,22.998 C262.15,23.3620018 262.077667,23.6816653 261.933,23.957 C261.788333,24.2323347 261.585335,24.4586658 261.324,24.636 C261.062665,24.8133342 260.750002,24.9463329 260.386,25.035 C260.021998,25.1236671 259.616002,25.168 259.168,25.168 C258.262662,25.168 257.546336,24.9813352 257.019,24.608 C256.491664,24.2346648 256.228,23.6840036 256.228,22.956 L257.67,22.956 Z M266.364,21.584 C266.364,21.0333306 266.450332,20.5363355 266.623,20.093 C266.795668,19.6496645 267.038332,19.2740015 267.351,18.966 C267.663668,18.6579985 268.032331,18.4200008 268.457,18.252 C268.881669,18.0839992 269.345997,18 269.85,18 C270.382003,18 270.862665,18.0816659 271.292,18.245 C271.721335,18.4083342 272.087665,18.6439985 272.391,18.952 C272.694335,19.2600015 272.927666,19.6356645 273.091,20.079 C273.254334,20.5223356 273.336,21.0239972 273.336,21.584 C273.336,22.1346694 273.249668,22.6316645 273.077,23.075 C272.904332,23.5183355 272.664002,23.8939985 272.356,24.202 C272.047998,24.5100015 271.679335,24.7479992 271.25,24.916 C270.820665,25.0840008 270.354003,25.168 269.85,25.168 C269.317997,25.168 268.837335,25.0863341 268.408,24.923 C267.978665,24.7596659 267.612335,24.5240015 267.309,24.216 C267.005665,23.9079985 266.772334,23.5323355 266.609,23.089 C266.445666,22.6456644 266.364,22.1440028 266.364,21.584 Z M267.932,21.584 C267.932,22.3026703 268.106998,22.8766645 268.457,23.306 C268.807002,23.7353355 269.27133,23.95 269.85,23.95 C270.42867,23.95 270.892998,23.7353355 271.243,23.306 C271.593002,22.8766645 271.768,22.3026703 271.768,21.584 C271.768,20.8373296 271.593002,20.2563354 271.243,19.841 C270.892998,19.4256646 270.42867,19.218 269.85,19.218 C269.27133,19.218 268.807002,19.4326645 268.457,19.862 C268.106998,20.2913355 267.932,20.8653297 267.932,21.584 Z M278.152,15.368 L282.058,15.368 C282.618003,15.368 283.114998,15.4449992 283.549,15.599 C283.983002,15.7530008 284.346999,15.9676653 284.641,16.243 C284.935001,16.5183347 285.158999,16.8496647 285.313,17.237 C285.467001,17.6243353 285.544,18.0466644 285.544,18.504 C285.544,18.970669 285.467001,19.399998 285.313,19.792 C285.158999,20.184002 284.935001,20.5246652 284.641,20.814 C284.346999,21.1033348 283.983002,21.3296658 283.549,21.493 C283.114998,21.6563341 282.618003,21.738 282.058,21.738 L279.734,21.738 L279.734,25 L278.152,25 L278.152,15.368 Z M279.734,16.684 L279.734,20.436 L281.988,20.436 C282.314668,20.436 282.601665,20.3870005 282.849,20.289 C283.096335,20.1909995 283.301666,20.0533342 283.465,19.876 C283.628334,19.6986658 283.749666,19.4956678 283.829,19.267 C283.908334,19.0383322 283.948,18.788668 283.948,18.518 C283.948,17.976664 283.787002,17.5356684 283.465,17.195 C283.142998,16.8543316 282.65067,16.684 281.988,16.684 L279.734,16.684 Z M287.168,14.752 L288.68,14.752 L288.68,25 L287.168,25 L287.168,14.752 Z M290.626,18.168 L292.138,18.168 L292.138,22.116 C292.138,22.7973367 292.270999,23.2709987 292.537,23.537 C292.803001,23.8030013 293.155331,23.936 293.594,23.936 C294.079336,23.936 294.478332,23.740002 294.791,23.348 C295.103668,22.955998 295.26,22.4053369 295.26,21.696 L295.26,18.168 L296.772,18.168 L296.772,25 L295.33,25 L295.33,24.006 L295.274,24.006 C294.881998,24.7806705 294.191338,25.168 293.202,25.168 C292.856665,25.168 292.530002,25.1190005 292.222,25.021 C291.913998,24.9229995 291.641001,24.7620011 291.403,24.538 C291.164999,24.3139989 290.976001,24.0200018 290.836,23.656 C290.695999,23.2919982 290.626,22.8440027 290.626,22.312 L290.626,18.168 Z M299.768,22.956 C299.768,23.1613344 299.81,23.3363326 299.894,23.481 C299.978,23.6256674 300.089999,23.7446662 300.23,23.838 C300.370001,23.9313338 300.530999,23.9989998 300.713,24.041 C300.895001,24.0830002 301.079332,24.104 301.266,24.104 C301.779336,24.104 302.152666,24.0200008 302.386,23.852 C302.619335,23.6839992 302.736,23.4320017 302.736,23.096 C302.736,22.8439987 302.659001,22.6550006 302.505,22.529 C302.350999,22.4029994 302.101335,22.3120003 301.756,22.256 L300.496,22.046 C300.243999,22.0086665 299.996668,21.9503337 299.754,21.871 C299.511332,21.7916663 299.296668,21.6796674 299.11,21.535 C298.923332,21.3903326 298.771667,21.2083344 298.655,20.989 C298.538333,20.7696656 298.48,20.4966683 298.48,20.17 C298.48,19.8246649 298.549999,19.516668 298.69,19.246 C298.830001,18.975332 299.025999,18.7490009 299.278,18.567 C299.530001,18.3849991 299.826332,18.2450005 300.167,18.147 C300.507668,18.0489995 300.878665,18 301.28,18 C301.672002,18 302.038332,18.0466662 302.379,18.14 C302.719668,18.2333338 303.015999,18.3709991 303.268,18.553 C303.520001,18.7350009 303.715999,18.9636653 303.856,19.239 C303.996001,19.5143347 304.066,19.8339982 304.066,20.198 L302.652,20.198 C302.652,19.8433316 302.526001,19.5656677 302.274,19.365 C302.021999,19.1643323 301.690669,19.064 301.28,19.064 C300.878665,19.064 300.554335,19.1479992 300.307,19.316 C300.059665,19.4840008 299.936,19.7173318 299.936,20.016 C299.936,20.2493345 300.015333,20.4289994 300.174,20.555 C300.332667,20.6810006 300.617331,20.781333 301.028,20.856 L302.288,21.066 C302.549335,21.1126669 302.796666,21.1756663 303.03,21.255 C303.263335,21.3343337 303.470999,21.4463326 303.653,21.591 C303.835001,21.7356674 303.979666,21.9223322 304.087,22.151 C304.194334,22.3796678 304.248,22.6619983 304.248,22.998 C304.248,23.3620018 304.175667,23.6816653 304.031,23.957 C303.886333,24.2323347 303.683335,24.4586658 303.422,24.636 C303.160665,24.8133342 302.848002,24.9463329 302.484,25.035 C302.119998,25.1236671 301.714002,25.168 301.266,25.168 C300.360662,25.168 299.644336,24.9813352 299.117,24.608 C298.589664,24.2346648 298.326,23.6840036 298.326,22.956 L299.768,22.956 Z M307.608,21.808 C307.608,21.4906651 307.640666,21.2083346 307.706,20.961 C307.771334,20.7136654 307.859999,20.4966676 307.972,20.31 C308.084001,20.1233324 308.212333,19.9600007 308.357,19.82 C308.501667,19.6799993 308.653333,19.5540006 308.812,19.442 L309.148,19.19 C309.381335,19.0033324 309.584332,18.812001 309.757,18.616 C309.929668,18.419999 310.016,18.1633349 310.016,17.846 C310.016,17.453998 309.880668,17.1250013 309.61,16.859 C309.339332,16.5929987 308.970669,16.46 308.504,16.46 C308.195998,16.46 307.934668,16.5089995 307.72,16.607 C307.505332,16.7050005 307.328001,16.8379992 307.188,17.006 C307.047999,17.1740008 306.945334,17.3676656 306.88,17.587 C306.814666,17.8063344 306.782,18.0373321 306.782,18.28 L305.312,18.28 C305.312,17.887998 305.374999,17.5053352 305.501,17.132 C305.627001,16.7586648 305.818332,16.4296681 306.075,16.145 C306.331668,15.8603319 306.660665,15.6316675 307.062,15.459 C307.463335,15.2863325 307.943997,15.2 308.504,15.2 C308.952002,15.2 309.362665,15.2583327 309.736,15.375 C310.109335,15.4916672 310.431332,15.6619989 310.702,15.886 C310.972668,16.1100011 311.182666,16.3806651 311.332,16.698 C311.481334,17.0153349 311.556,17.3746647 311.556,17.776 C311.556,18.0560014 311.521,18.3033323 311.451,18.518 C311.381,18.7326677 311.290001,18.9239992 311.178,19.092 C311.065999,19.2600008 310.937667,19.411666 310.793,19.547 C310.648333,19.682334 310.501334,19.8106661 310.352,19.932 L310.016,20.184 C309.754665,20.3706676 309.530668,20.5783322 309.344,20.807 C309.157332,21.0356678 309.064,21.3319982 309.064,21.696 L309.064,22.172 L307.608,22.172 L307.608,21.808 Z M307.496,23.32 L309.162,23.32 L309.162,25 L307.496,25 L307.496,23.32 Z" id="JátensoPlus?" fill="#18191A" fill-rule="nonzero"></path>
        <rect id="divider" fill="#E9EBED" x="204" y="1" width="1" height="38"></rect>
        <path d="M132.724,15.368 L134.586,15.368 L138.17,25 L136.504,25 L135.678,22.662 L131.562,22.662 L130.736,25 L129.14,25 L132.724,15.368 Z M133.606,16.936 L132.038,21.346 L135.216,21.346 L133.662,16.936 L133.606,16.936 Z M138.842,21.584 C138.842,21.0333306 138.925999,20.5363355 139.094,20.093 C139.262001,19.6496645 139.497665,19.2740015 139.801,18.966 C140.104335,18.6579985 140.463665,18.4200008 140.879,18.252 C141.294335,18.0839992 141.749331,18 142.244,18 C142.720002,18 143.142331,18.0653327 143.511,18.196 C143.879669,18.3266673 144.194665,18.5063322 144.456,18.735 C144.717335,18.9636678 144.920333,19.2389984 145.065,19.561 C145.209667,19.8830016 145.305333,20.239998 145.352,20.632 L143.868,20.632 C143.802666,20.2119979 143.641668,19.8713346 143.385,19.61 C143.128332,19.3486654 142.748003,19.218 142.244,19.218 C141.973332,19.218 141.726001,19.2739994 141.502,19.386 C141.277999,19.4980006 141.086667,19.658999 140.928,19.869 C140.769333,20.0790011 140.643334,20.3286652 140.55,20.618 C140.456666,20.9073348 140.41,21.2293316 140.41,21.584 C140.41,21.9386684 140.456666,22.2606652 140.55,22.55 C140.643334,22.8393348 140.769333,23.088999 140.928,23.299 C141.086667,23.509001 141.277999,23.6699994 141.502,23.782 C141.726001,23.8940006 141.973332,23.95 142.244,23.95 C142.748003,23.95 143.128332,23.8193346 143.385,23.558 C143.641668,23.2966654 143.802666,22.9560021 143.868,22.536 L145.352,22.536 C145.305333,22.928002 145.209667,23.2849984 145.065,23.607 C144.920333,23.9290016 144.717335,24.2043322 144.456,24.433 C144.194665,24.6616678 143.879669,24.8413327 143.511,24.972 C143.142331,25.1026673 142.720002,25.168 142.244,25.168 C141.721331,25.168 141.250002,25.0863341 140.83,24.923 C140.409998,24.7596659 140.053001,24.5240015 139.759,24.216 C139.464999,23.9079985 139.238667,23.5323355 139.08,23.089 C138.921333,22.6456644 138.842,22.1440028 138.842,21.584 Z M146.318,21.598 C146.318,21.056664 146.401999,20.5643355 146.57,20.121 C146.738001,19.6776644 146.973665,19.2996682 147.277,18.987 C147.580335,18.6743318 147.937331,18.4316675 148.348,18.259 C148.758669,18.0863325 149.211331,18 149.706,18 C150.182002,18 150.615998,18.0746659 151.008,18.224 C151.400002,18.3733341 151.735999,18.5903319 152.016,18.875 C152.296001,19.1596681 152.512999,19.5073313 152.667,19.918 C152.821001,20.3286687 152.898,20.7999973 152.898,21.332 L152.898,21.836 L147.872,21.836 C147.909334,22.5080034 148.095998,23.0329981 148.432,23.411 C148.768002,23.7890019 149.211331,23.978 149.762,23.978 C150.247336,23.978 150.615999,23.8683344 150.868,23.649 C151.120001,23.4296656 151.283333,23.1800014 151.358,22.9 L152.828,22.9 C152.781333,23.2080015 152.678667,23.4996653 152.52,23.775 C152.361333,24.0503347 152.151335,24.2906656 151.89,24.496 C151.628665,24.7013344 151.318335,24.8646661 150.959,24.986 C150.599665,25.1073339 150.196002,25.168 149.748,25.168 C148.646661,25.168 147.79967,24.8553365 147.207,24.23 C146.61433,23.6046635 146.318,22.727339 146.318,21.598 Z M149.706,19.19 C149.257998,19.19 148.877668,19.3346652 148.565,19.624 C148.252332,19.9133348 148.044667,20.3146641 147.942,20.828 L151.358,20.828 C151.302,20.2679972 151.134001,19.8550013 150.854,19.589 C150.573999,19.3229987 150.191336,19.19 149.706,19.19 Z M154.41,18.168 L155.866,18.168 L155.866,19.162 L155.908,19.162 C156.076001,18.7979982 156.309332,18.5133344 156.608,18.308 C156.906668,18.1026656 157.275331,18 157.714,18 C157.854001,18 158.003333,18.0163332 158.162,18.049 C158.320667,18.0816668 158.488666,18.1586661 158.666,18.28 L158.274,19.624 C157.975332,19.4746659 157.695335,19.4 157.434,19.4 C157.181999,19.4 156.960334,19.4583328 156.769,19.575 C156.577666,19.6916673 156.419001,19.847999 156.293,20.044 C156.166999,20.240001 156.073667,20.4709987 156.013,20.737 C155.952333,21.0030013 155.922,21.2853318 155.922,21.584 L155.922,25 L154.41,25 L154.41,18.168 Z M159.198,21.584 C159.198,21.0333306 159.281999,20.5363355 159.45,20.093 C159.618001,19.6496645 159.853665,19.2740015 160.157,18.966 C160.460335,18.6579985 160.819665,18.4200008 161.235,18.252 C161.650335,18.0839992 162.105331,18 162.6,18 C163.076002,18 163.498331,18.0653327 163.867,18.196 C164.235669,18.3266673 164.550665,18.5063322 164.812,18.735 C165.073335,18.9636678 165.276333,19.2389984 165.421,19.561 C165.565667,19.8830016 165.661333,20.239998 165.708,20.632 L164.224,20.632 C164.158666,20.2119979 163.997668,19.8713346 163.741,19.61 C163.484332,19.3486654 163.104003,19.218 162.6,19.218 C162.329332,19.218 162.082001,19.2739994 161.858,19.386 C161.633999,19.4980006 161.442667,19.658999 161.284,19.869 C161.125333,20.0790011 160.999334,20.3286652 160.906,20.618 C160.812666,20.9073348 160.766,21.2293316 160.766,21.584 C160.766,21.9386684 160.812666,22.2606652 160.906,22.55 C160.999334,22.8393348 161.125333,23.088999 161.284,23.299 C161.442667,23.509001 161.633999,23.6699994 161.858,23.782 C162.082001,23.8940006 162.329332,23.95 162.6,23.95 C163.104003,23.95 163.484332,23.8193346 163.741,23.558 C163.997668,23.2966654 164.158666,22.9560021 164.224,22.536 L165.708,22.536 C165.661333,22.928002 165.565667,23.2849984 165.421,23.607 C165.276333,23.9290016 165.073335,24.2043322 164.812,24.433 C164.550665,24.6616678 164.235669,24.8413327 163.867,24.972 C163.498331,25.1026673 163.076002,25.168 162.6,25.168 C162.077331,25.168 161.606002,25.0863341 161.186,24.923 C160.765998,24.7596659 160.409001,24.5240015 160.115,24.216 C159.820999,23.9079985 159.594667,23.5323355 159.436,23.089 C159.277333,22.6456644 159.198,22.1440028 159.198,21.584 Z M166.772,23.18 C166.772,22.5733303 166.946998,22.1066683 167.297,21.78 C167.647002,21.4533317 168.213996,21.2293339 168.998,21.108 L170.384,20.884 C170.561334,20.8559999 170.708333,20.8303334 170.825,20.807 C170.941667,20.7836665 171.032666,20.7533335 171.098,20.716 C171.163334,20.6786665 171.207667,20.6273337 171.231,20.562 C171.254333,20.4966663 171.266,20.4126672 171.266,20.31 C171.266,19.9833317 171.156334,19.7056678 170.937,19.477 C170.717666,19.2483322 170.379336,19.134 169.922,19.134 C169.464664,19.134 169.117001,19.2459989 168.879,19.47 C168.640999,19.6940011 168.508,19.9833316 168.48,20.338 L167.038,20.338 C167.084667,19.6286631 167.359997,19.0616688 167.864,18.637 C168.368003,18.2123312 169.053996,18 169.922,18 C170.883338,18 171.599664,18.2193311 172.071,18.658 C172.542336,19.0966689 172.778,19.7173293 172.778,20.52 L172.778,25 L171.336,25 L171.336,23.936 L171.28,23.936 C171.121333,24.3000018 170.850669,24.586999 170.468,24.797 C170.085331,25.007001 169.609336,25.112 169.04,25.112 C168.330663,25.112 167.775335,24.9416684 167.374,24.601 C166.972665,24.2603316 166.772,23.7866697 166.772,23.18 Z M171.266,21.514 C171.135333,21.6820008 170.902002,21.7893331 170.566,21.836 L169.39,22.046 C169.007331,22.1020003 168.727334,22.2069992 168.55,22.361 C168.372666,22.5150008 168.284,22.7366652 168.284,23.026 C168.284,23.3060014 168.377332,23.5346658 168.564,23.712 C168.750668,23.8893342 169.016665,23.978 169.362,23.978 C169.614001,23.978 169.854332,23.940667 170.083,23.866 C170.311668,23.791333 170.512332,23.6770008 170.685,23.523 C170.857668,23.3689992 170.997666,23.1776678 171.105,22.949 C171.212334,22.7203322 171.266,22.4520015 171.266,22.144 L171.266,21.514 Z M177.342,21.64 C177.342,21.0706638 177.423666,20.5620022 177.587,20.114 C177.750334,19.6659978 177.976665,19.2856682 178.266,18.973 C178.555335,18.6603318 178.891331,18.4200008 179.274,18.252 C179.656669,18.0839992 180.067331,18 180.506,18 C181.000669,18 181.429998,18.0933324 181.794,18.28 C182.158002,18.4666676 182.447332,18.7699979 182.662,19.19 L182.718,19.19 C182.680666,18.7419978 182.659667,18.3056688 182.655,17.881 C182.650333,17.4563312 182.648,17.1273345 182.648,16.894 L182.648,14.752 L184.16,14.752 L184.16,25 L182.718,25 L182.718,23.978 L182.662,23.978 C182.447332,24.3980021 182.141669,24.7013324 181.745,24.888 C181.348331,25.0746676 180.898003,25.168 180.394,25.168 C179.964665,25.168 179.563335,25.0910008 179.19,24.937 C178.816665,24.7829992 178.494668,24.5566682 178.224,24.258 C177.953332,23.9593318 177.738667,23.5906689 177.58,23.152 C177.421333,22.7133311 177.342,22.2093362 177.342,21.64 Z M178.91,21.64 C178.91,22.3960038 179.087332,22.969998 179.442,23.362 C179.796668,23.754002 180.239997,23.95 180.772,23.95 C181.313336,23.95 181.761332,23.7446687 182.116,23.334 C182.470668,22.9233313 182.648,22.3400038 182.648,21.584 C182.648,20.8279962 182.470668,20.2446687 182.116,19.834 C181.761332,19.4233313 181.313336,19.218 180.772,19.218 C180.501332,19.218 180.254001,19.2739994 180.03,19.386 C179.805999,19.4980006 179.610001,19.658999 179.442,19.869 C179.273999,20.0790011 179.143334,20.3333318 179.05,20.632 C178.956666,20.9306682 178.91,21.2666648 178.91,21.64 Z M185.728,21.598 C185.728,21.056664 185.811999,20.5643355 185.98,20.121 C186.148001,19.6776644 186.383665,19.2996682 186.687,18.987 C186.990335,18.6743318 187.347331,18.4316675 187.758,18.259 C188.168669,18.0863325 188.621331,18 189.116,18 C189.592002,18 190.025998,18.0746659 190.418,18.224 C190.810002,18.3733341 191.145999,18.5903319 191.426,18.875 C191.706001,19.1596681 191.922999,19.5073313 192.077,19.918 C192.231001,20.3286687 192.308,20.7999973 192.308,21.332 L192.308,21.836 L187.282,21.836 C187.319334,22.5080034 187.505998,23.0329981 187.842,23.411 C188.178002,23.7890019 188.621331,23.978 189.172,23.978 C189.657336,23.978 190.025999,23.8683344 190.278,23.649 C190.530001,23.4296656 190.693333,23.1800014 190.768,22.9 L192.238,22.9 C192.191333,23.2080015 192.088667,23.4996653 191.93,23.775 C191.771333,24.0503347 191.561335,24.2906656 191.3,24.496 C191.038665,24.7013344 190.728335,24.8646661 190.369,24.986 C190.009665,25.1073339 189.606002,25.168 189.158,25.168 C188.056661,25.168 187.20967,24.8553365 186.617,24.23 C186.02433,23.6046635 185.728,22.727339 185.728,21.598 Z M189.116,19.19 C188.667998,19.19 188.287668,19.3346652 187.975,19.624 C187.662332,19.9133348 187.454667,20.3146641 187.352,20.828 L190.768,20.828 C190.712,20.2679972 190.544001,19.8550013 190.264,19.589 C189.983999,19.3229987 189.601336,19.19 189.116,19.19 Z" id="Acercade" fill="#18191A" fill-rule="nonzero"></path>
        <rect id="divider" fill="#E9EBED" x="115" y="1" width="1" height="38"></rect>
        <path d="M69.724,15.368 L71.586,15.368 L75.17,25 L73.504,25 L72.678,22.662 L68.562,22.662 L67.736,25 L66.14,25 L69.724,15.368 Z M70.606,16.936 L69.038,21.346 L72.216,21.346 L70.662,16.936 L70.606,16.936 Z M76.276,14.752 L77.9,14.752 L77.9,16.292 L76.276,16.292 L76.276,14.752 Z M76.332,18.168 L77.844,18.168 L77.844,25.994 C77.844,26.3113349 77.8090004,26.598332 77.739,26.855 C77.6689997,27.111668 77.5500008,27.3309991 77.382,27.513 C77.2139992,27.6950009 76.9923347,27.8349995 76.717,27.933 C76.4416653,28.0310005 76.1033353,28.08 75.702,28.08 L75.184,28.08 L75.184,26.82 L75.534,26.82 C75.8326682,26.82 76.0403328,26.7430008 76.157,26.589 C76.2736673,26.4349992 76.332,26.1853351 76.332,25.84 L76.332,18.168 Z M79.79,18.168 L81.302,18.168 L81.302,22.116 C81.302,22.7973367 81.4349987,23.2709987 81.701,23.537 C81.9670013,23.8030013 82.3193311,23.936 82.758,23.936 C83.2433358,23.936 83.6423318,23.740002 83.955,23.348 C84.2676682,22.955998 84.424,22.4053369 84.424,21.696 L84.424,18.168 L85.936,18.168 L85.936,25 L84.494,25 L84.494,24.006 L84.438,24.006 C84.045998,24.7806705 83.3553383,25.168 82.366,25.168 C82.0206649,25.168 81.6940015,25.1190005 81.386,25.021 C81.0779985,24.9229995 80.8050012,24.7620011 80.567,24.538 C80.3289988,24.3139989 80.1400007,24.0200018 80,23.656 C79.8599993,23.2919982 79.79,22.8440027 79.79,22.312 L79.79,18.168 Z M87.504,21.64 C87.504,21.0706638 87.5856658,20.5620022 87.749,20.114 C87.9123341,19.6659978 88.1386652,19.2856682 88.428,18.973 C88.7173348,18.6603318 89.0533314,18.4200008 89.436,18.252 C89.8186686,18.0839992 90.2293311,18 90.668,18 C91.1626691,18 91.5919982,18.0933324 91.956,18.28 C92.3200018,18.4666676 92.6093323,18.7699979 92.824,19.19 L92.88,19.19 C92.8426665,18.7419978 92.8216667,18.3056688 92.817,17.881 C92.8123333,17.4563312 92.81,17.1273345 92.81,16.894 L92.81,14.752 L94.322,14.752 L94.322,25 L92.88,25 L92.88,23.978 L92.824,23.978 C92.6093323,24.3980021 92.3036686,24.7013324 91.907,24.888 C91.5103314,25.0746676 91.0600025,25.168 90.556,25.168 C90.1266645,25.168 89.7253352,25.0910008 89.352,24.937 C88.9786648,24.7829992 88.656668,24.5566682 88.386,24.258 C88.115332,23.9593318 87.9006675,23.5906689 87.742,23.152 C87.5833325,22.7133311 87.504,22.2093362 87.504,21.64 Z M89.072,21.64 C89.072,22.3960038 89.2493316,22.969998 89.604,23.362 C89.9586684,23.754002 90.4019973,23.95 90.934,23.95 C91.475336,23.95 91.9233316,23.7446687 92.278,23.334 C92.6326684,22.9233313 92.81,22.3400038 92.81,21.584 C92.81,20.8279962 92.6326684,20.2446687 92.278,19.834 C91.9233316,19.4233313 91.475336,19.218 90.934,19.218 C90.663332,19.218 90.4160011,19.2739994 90.192,19.386 C89.9679989,19.4980006 89.7720008,19.658999 89.604,19.869 C89.4359992,20.0790011 89.3053338,20.3333318 89.212,20.632 C89.1186662,20.9306682 89.072,21.2666648 89.072,21.64 Z M95.988,23.18 C95.988,22.5733303 96.1629983,22.1066683 96.513,21.78 C96.8630017,21.4533317 97.4299961,21.2293339 98.214,21.108 L99.6,20.884 C99.7773342,20.8559999 99.9243327,20.8303334 100.041,20.807 C100.157667,20.7836665 100.248666,20.7533335 100.314,20.716 C100.379334,20.6786665 100.423667,20.6273337 100.447,20.562 C100.470333,20.4966663 100.482,20.4126672 100.482,20.31 C100.482,19.9833317 100.372334,19.7056678 100.153,19.477 C99.9336656,19.2483322 99.5953356,19.134 99.138,19.134 C98.6806644,19.134 98.3330012,19.2459989 98.095,19.47 C97.8569988,19.6940011 97.7240001,19.9833316 97.696,20.338 L96.254,20.338 C96.3006669,19.6286631 96.5759975,19.0616688 97.08,18.637 C97.5840025,18.2123312 98.2699957,18 99.138,18 C100.099338,18 100.815664,18.2193311 101.287,18.658 C101.758336,19.0966689 101.994,19.7173293 101.994,20.52 L101.994,25 L100.552,25 L100.552,23.936 L100.496,23.936 C100.337333,24.3000018 100.066669,24.586999 99.684,24.797 C99.3013314,25.007001 98.8253362,25.112 98.256,25.112 C97.5466631,25.112 96.9913353,24.9416684 96.59,24.601 C96.1886647,24.2603316 95.988,23.7866697 95.988,23.18 Z M100.482,21.514 C100.351333,21.6820008 100.118002,21.7893331 99.782,21.836 L98.606,22.046 C98.2233314,22.1020003 97.9433342,22.2069992 97.766,22.361 C97.5886658,22.5150008 97.5,22.7366652 97.5,23.026 C97.5,23.3060014 97.5933324,23.5346658 97.78,23.712 C97.9666676,23.8893342 98.2326649,23.978 98.578,23.978 C98.8300013,23.978 99.0703322,23.940667 99.299,23.866 C99.5276678,23.791333 99.7283325,23.6770008 99.901,23.523 C100.073668,23.3689992 100.213666,23.1776678 100.321,22.949 C100.428334,22.7203322 100.482,22.4520015 100.482,22.144 L100.482,21.514 Z" id="Ajuda" fill="#18191A" fill-rule="nonzero"></path>
    </g>
</svg>
