<?xml version="1.0" encoding="UTF-8"?>
<svg width="324px" height="40px" viewBox="0 0 324 40" version="1.1" xmlns="http://www.w3.org/2000/svg" xmlns:xlink="http://www.w3.org/1999/xlink">
    <!-- Generator: Sketch 53 (72520) - https://sketchapp.com -->
    <title>ui_tk</title>
    <desc>Created with Sketch.</desc>
    <g id="ui_tk" stroke="none" stroke-width="1" fill="none" fill-rule="evenodd">
        <path d="M34.5,6.00691225 C34.5,2.96680534 36.9650218,0.5 40.0009023,0.5 L318.999098,0.5 C322.039429,0.5 324.5,2.96133043 324.5,6.00691225 L324.5,33.9930877 C324.5,37.0331947 322.034978,39.5 318.999098,39.5 L40.0009023,39.5 C36.9605709,39.5 34.5,37.0386696 34.5,33.9930877 L34.5,6.00691225 Z" id="BG" stroke="#D4D7D8" fill="#FFFFFF"></path>
        <path d="M202.176,15.368 L206.082,15.368 C206.642003,15.368 207.138998,15.4449992 207.573,15.599 C208.007002,15.7530008 208.370999,15.9676653 208.665,16.243 C208.959001,16.5183347 209.182999,16.8496647 209.337,17.237 C209.491001,17.6243353 209.568,18.0466644 209.568,18.504 C209.568,18.970669 209.491001,19.399998 209.337,19.792 C209.182999,20.184002 208.959001,20.5246652 208.665,20.814 C208.370999,21.1033348 208.007002,21.3296658 207.573,21.493 C207.138998,21.6563341 206.642003,21.738 206.082,21.738 L203.758,21.738 L203.758,25 L202.176,25 L202.176,15.368 Z M203.758,16.684 L203.758,20.436 L206.012,20.436 C206.338668,20.436 206.625665,20.3870005 206.873,20.289 C207.120335,20.1909995 207.325666,20.0533342 207.489,19.876 C207.652334,19.6986658 207.773666,19.4956678 207.853,19.267 C207.932334,19.0383322 207.972,18.788668 207.972,18.518 C207.972,17.976664 207.811002,17.5356684 207.489,17.195 C207.166998,16.8543316 206.67467,16.684 206.012,16.684 L203.758,16.684 Z M211.192,14.752 L212.704,14.752 L212.704,25 L211.192,25 L211.192,14.752 Z M214.65,18.168 L216.162,18.168 L216.162,22.116 C216.162,22.7973367 216.294999,23.2709987 216.561,23.537 C216.827001,23.8030013 217.179331,23.936 217.618,23.936 C218.103336,23.936 218.502332,23.740002 218.815,23.348 C219.127668,22.955998 219.284,22.4053369 219.284,21.696 L219.284,18.168 L220.796,18.168 L220.796,25 L219.354,25 L219.354,24.006 L219.298,24.006 C218.905998,24.7806705 218.215338,25.168 217.226,25.168 C216.880665,25.168 216.554002,25.1190005 216.246,25.021 C215.937998,24.9229995 215.665001,24.7620011 215.427,24.538 C215.188999,24.3139989 215.000001,24.0200018 214.86,23.656 C214.719999,23.2919982 214.65,22.8440027 214.65,22.312 L214.65,18.168 Z M223.792,22.956 C223.792,23.1613344 223.834,23.3363326 223.918,23.481 C224.002,23.6256674 224.113999,23.7446662 224.254,23.838 C224.394001,23.9313338 224.554999,23.9989998 224.737,24.041 C224.919001,24.0830002 225.103332,24.104 225.29,24.104 C225.803336,24.104 226.176666,24.0200008 226.41,23.852 C226.643334,23.6839992 226.76,23.4320017 226.76,23.096 C226.76,22.8439987 226.683001,22.6550006 226.529,22.529 C226.374999,22.4029994 226.125335,22.3120003 225.78,22.256 L224.52,22.046 C224.267999,22.0086665 224.020668,21.9503337 223.778,21.871 C223.535332,21.7916663 223.320668,21.6796674 223.134,21.535 C222.947332,21.3903326 222.795667,21.2083344 222.679,20.989 C222.562333,20.7696656 222.504,20.4966683 222.504,20.17 C222.504,19.8246649 222.573999,19.516668 222.714,19.246 C222.854001,18.975332 223.049999,18.7490009 223.302,18.567 C223.554001,18.3849991 223.850332,18.2450005 224.191,18.147 C224.531668,18.0489995 224.902665,18 225.304,18 C225.696002,18 226.062332,18.0466662 226.403,18.14 C226.743668,18.2333338 227.039999,18.3709991 227.292,18.553 C227.544001,18.7350009 227.739999,18.9636653 227.88,19.239 C228.020001,19.5143347 228.09,19.8339982 228.09,20.198 L226.676,20.198 C226.676,19.8433316 226.550001,19.5656677 226.298,19.365 C226.045999,19.1643323 225.714669,19.064 225.304,19.064 C224.902665,19.064 224.578335,19.1479992 224.331,19.316 C224.083665,19.4840008 223.96,19.7173318 223.96,20.016 C223.96,20.2493345 224.039333,20.4289994 224.198,20.555 C224.356667,20.6810006 224.641331,20.781333 225.052,20.856 L226.312,21.066 C226.573335,21.1126669 226.820665,21.1756663 227.054,21.255 C227.287334,21.3343337 227.494999,21.4463326 227.677,21.591 C227.859001,21.7356674 228.003666,21.9223322 228.111,22.151 C228.218334,22.3796678 228.272,22.6619983 228.272,22.998 C228.272,23.3620018 228.199667,23.6816653 228.055,23.957 C227.910333,24.2323347 227.707335,24.4586658 227.446,24.636 C227.184665,24.8133342 226.872002,24.9463329 226.508,25.035 C226.143998,25.1236671 225.738002,25.168 225.29,25.168 C224.384662,25.168 223.668336,24.9813352 223.141,24.608 C222.613664,24.2346648 222.35,23.6840036 222.35,22.956 L223.792,22.956 Z M229.714,16.642 L229.714,15.368 L231.156,15.368 L231.156,16.642 L230.918,19.106 L229.952,19.106 L229.714,16.642 Z M232.92,18.168 L234.432,18.168 L234.432,22.116 C234.432,22.7973367 234.564999,23.2709987 234.831,23.537 C235.097001,23.8030013 235.449331,23.936 235.888,23.936 C236.373336,23.936 236.772332,23.740002 237.085,23.348 C237.397668,22.955998 237.554,22.4053369 237.554,21.696 L237.554,18.168 L239.066,18.168 L239.066,25 L237.624,25 L237.624,24.006 L237.568,24.006 C237.175998,24.7806705 236.485338,25.168 235.496,25.168 C235.150665,25.168 234.824002,25.1190005 234.516,25.021 C234.207998,24.9229995 233.935001,24.7620011 233.697,24.538 C233.458999,24.3139989 233.270001,24.0200018 233.13,23.656 C232.989999,23.2919982 232.92,22.8440027 232.92,22.312 L232.92,18.168 Z M241.11,18.168 L242.566,18.168 L242.566,19.162 L242.622,19.162 C243.014002,18.3873295 243.718662,18 244.736,18 C245.072002,18 245.396332,18.0489995 245.709,18.147 C246.021668,18.2450005 246.294666,18.4059989 246.528,18.63 C246.761335,18.8540011 246.947999,19.1479982 247.088,19.512 C247.228001,19.8760018 247.298,20.3239973 247.298,20.856 L247.298,25 L245.786,25 L245.786,21.052 C245.786,20.3706633 245.655335,19.8970013 245.394,19.631 C245.132665,19.3649987 244.778002,19.232 244.33,19.232 C243.844664,19.232 243.438668,19.4256647 243.112,19.813 C242.785332,20.2003353 242.622,20.7393299 242.622,21.43 L242.622,25 L241.11,25 L241.11,18.168 Z M249.132,18.168 L250.644,18.168 L250.644,22.116 C250.644,22.7973367 250.776999,23.2709987 251.043,23.537 C251.309001,23.8030013 251.661331,23.936 252.1,23.936 C252.585336,23.936 252.984332,23.740002 253.297,23.348 C253.609668,22.955998 253.766,22.4053369 253.766,21.696 L253.766,18.168 L255.278,18.168 L255.278,25 L253.836,25 L253.836,24.006 L253.78,24.006 C253.387998,24.7806705 252.697338,25.168 251.708,25.168 C251.362665,25.168 251.036002,25.1190005 250.728,25.021 C250.419998,24.9229995 250.147001,24.7620011 249.909,24.538 C249.670999,24.3139989 249.482001,24.0200018 249.342,23.656 C249.201999,23.2919982 249.132,22.8440027 249.132,22.312 L249.132,18.168 Z M256.748,18.168 L262.25,18.168 L262.25,19.106 L258.736,23.81 L262.306,23.81 L262.306,25 L256.79,25 L256.79,24.146 L260.374,19.358 L256.748,19.358 L256.748,18.168 Z M265.89,18.168 L267.542,18.168 L269.32,23.432 L269.376,23.432 L271.154,18.168 L272.68,18.168 L270.202,25 L268.438,25 L265.89,18.168 Z M273.366,23.18 C273.366,22.5733303 273.540998,22.1066683 273.891,21.78 C274.241002,21.4533317 274.807996,21.2293339 275.592,21.108 L276.978,20.884 C277.155334,20.8559999 277.302333,20.8303334 277.419,20.807 C277.535667,20.7836665 277.626666,20.7533335 277.692,20.716 C277.757334,20.6786665 277.801667,20.6273337 277.825,20.562 C277.848333,20.4966663 277.86,20.4126672 277.86,20.31 C277.86,19.9833317 277.750334,19.7056678 277.531,19.477 C277.311666,19.2483322 276.973336,19.134 276.516,19.134 C276.058664,19.134 275.711001,19.2459989 275.473,19.47 C275.234999,19.6940011 275.102,19.9833316 275.074,20.338 L273.632,20.338 C273.678667,19.6286631 273.953997,19.0616688 274.458,18.637 C274.962003,18.2123312 275.647996,18 276.516,18 C277.477338,18 278.193664,18.2193311 278.665,18.658 C279.136336,19.0966689 279.372,19.7173293 279.372,20.52 L279.372,25 L277.93,25 L277.93,23.936 L277.874,23.936 C277.715333,24.3000018 277.444669,24.586999 277.062,24.797 C276.679331,25.007001 276.203336,25.112 275.634,25.112 C274.924663,25.112 274.369335,24.9416684 273.968,24.601 C273.566665,24.2603316 273.366,23.7866697 273.366,23.18 Z M277.86,21.514 C277.729333,21.6820008 277.496002,21.7893331 277.16,21.836 L275.984,22.046 C275.601331,22.1020003 275.321334,22.2069992 275.144,22.361 C274.966666,22.5150008 274.878,22.7366652 274.878,23.026 C274.878,23.3060014 274.971332,23.5346658 275.158,23.712 C275.344668,23.8893342 275.610665,23.978 275.956,23.978 C276.208001,23.978 276.448332,23.940667 276.677,23.866 C276.905668,23.791333 277.106332,23.6770008 277.279,23.523 C277.451668,23.3689992 277.591666,23.1776678 277.699,22.949 C277.806334,22.7203322 277.86,22.4520015 277.86,22.144 L277.86,21.514 Z M281.332,18.168 L282.788,18.168 L282.788,19.162 L282.83,19.162 C282.998001,18.7979982 283.231332,18.5133344 283.53,18.308 C283.828668,18.1026656 284.197331,18 284.636,18 C284.776001,18 284.925333,18.0163332 285.084,18.049 C285.242667,18.0816668 285.410666,18.1586661 285.588,18.28 L285.196,19.624 C284.897332,19.4746659 284.617335,19.4 284.356,19.4 C284.103999,19.4 283.882334,19.4583328 283.691,19.575 C283.499666,19.6916673 283.341001,19.847999 283.215,20.044 C283.088999,20.240001 282.995667,20.4709987 282.935,20.737 C282.874333,21.0030013 282.844,21.2853318 282.844,21.584 L282.844,25 L281.332,25 L281.332,18.168 Z M289.69,18.168 L291.146,18.168 L291.146,19.162 L291.202,19.162 C291.398001,18.769998 291.673332,18.4783343 292.028,18.287 C292.382668,18.0956657 292.797998,18 293.274,18 C293.750002,18 294.181665,18.1026656 294.569,18.308 C294.956335,18.5133344 295.247999,18.8633309 295.444,19.358 C295.686668,18.8633309 296.003998,18.5133344 296.396,18.308 C296.788002,18.1026656 297.235997,18 297.74,18 C298.076002,18 298.390999,18.0489995 298.685,18.147 C298.979001,18.2450005 299.235666,18.4036656 299.455,18.623 C299.674334,18.8423344 299.846999,19.1269982 299.973,19.477 C300.099001,19.8270018 300.162,20.2586641 300.162,20.772 L300.162,25 L298.65,25 L298.65,20.954 C298.65,20.3193302 298.538001,19.8736679 298.314,19.617 C298.089999,19.3603321 297.763335,19.232 297.334,19.232 C296.876664,19.232 296.487002,19.4233314 296.165,19.806 C295.842998,20.1886686 295.682,20.7206633 295.682,21.402 L295.682,25 L294.17,25 L294.17,20.954 C294.17,20.3193302 294.053335,19.8736679 293.82,19.617 C293.586665,19.3603321 293.264669,19.232 292.854,19.232 C292.396664,19.232 292.007002,19.4233314 291.685,19.806 C291.362998,20.1886686 291.202,20.7253299 291.202,21.416 L291.202,25 L289.69,25 L289.69,18.168 Z M302.108,18.168 L303.62,18.168 L303.62,25 L302.108,25 L302.108,18.168 Z M307.428,21.808 C307.428,21.4906651 307.460666,21.2083346 307.526,20.961 C307.591334,20.7136654 307.679999,20.4966676 307.792,20.31 C307.904001,20.1233324 308.032333,19.9600007 308.177,19.82 C308.321667,19.6799993 308.473333,19.5540006 308.632,19.442 L308.968,19.19 C309.201335,19.0033324 309.404332,18.812001 309.577,18.616 C309.749668,18.419999 309.836,18.1633349 309.836,17.846 C309.836,17.453998 309.700668,17.1250013 309.43,16.859 C309.159332,16.5929987 308.790669,16.46 308.324,16.46 C308.015998,16.46 307.754668,16.5089995 307.54,16.607 C307.325332,16.7050005 307.148001,16.8379992 307.008,17.006 C306.867999,17.1740008 306.765334,17.3676656 306.7,17.587 C306.634666,17.8063344 306.602,18.0373321 306.602,18.28 L305.132,18.28 C305.132,17.887998 305.194999,17.5053352 305.321,17.132 C305.447001,16.7586648 305.638332,16.4296681 305.895,16.145 C306.151668,15.8603319 306.480665,15.6316675 306.882,15.459 C307.283335,15.2863325 307.763997,15.2 308.324,15.2 C308.772002,15.2 309.182665,15.2583327 309.556,15.375 C309.929335,15.4916672 310.251332,15.6619989 310.522,15.886 C310.792668,16.1100011 311.002666,16.3806651 311.152,16.698 C311.301334,17.0153349 311.376,17.3746647 311.376,17.776 C311.376,18.0560014 311.341,18.3033323 311.271,18.518 C311.201,18.7326677 311.110001,18.9239992 310.998,19.092 C310.885999,19.2600008 310.757667,19.411666 310.613,19.547 C310.468333,19.682334 310.321334,19.8106661 310.172,19.932 L309.836,20.184 C309.574665,20.3706676 309.350668,20.5783322 309.164,20.807 C308.977332,21.0356678 308.884,21.3319982 308.884,21.696 L308.884,22.172 L307.428,22.172 L307.428,21.808 Z M307.316,23.32 L308.982,23.32 L308.982,25 L307.316,25 L307.316,23.32 Z" id="Plus'unuzvarmı?" fill="#18191A" fill-rule="nonzero"></path>
        <rect id="divider" fill="#D4D7D8" x="189" y="1" width="1" height="38"></rect>
        <path d="M117.176,15.368 L118.758,15.368 L118.758,19.456 L123.602,19.456 L123.602,15.368 L125.198,15.368 L125.198,25 L123.602,25 L123.602,20.8 L118.758,20.8 L118.758,25 L117.176,25 L117.176,15.368 Z M127.004,23.18 C127.004,22.5733303 127.178998,22.1066683 127.529,21.78 C127.879002,21.4533317 128.445996,21.2293339 129.23,21.108 L130.616,20.884 C130.793334,20.8559999 130.940333,20.8303334 131.057,20.807 C131.173667,20.7836665 131.264666,20.7533335 131.33,20.716 C131.395334,20.6786665 131.439667,20.6273337 131.463,20.562 C131.486333,20.4966663 131.498,20.4126672 131.498,20.31 C131.498,19.9833317 131.388334,19.7056678 131.169,19.477 C130.949666,19.2483322 130.611336,19.134 130.154,19.134 C129.696664,19.134 129.349001,19.2459989 129.111,19.47 C128.872999,19.6940011 128.74,19.9833316 128.712,20.338 L127.27,20.338 C127.316667,19.6286631 127.591997,19.0616688 128.096,18.637 C128.600003,18.2123312 129.285996,18 130.154,18 C131.115338,18 131.831664,18.2193311 132.303,18.658 C132.774336,19.0966689 133.01,19.7173293 133.01,20.52 L133.01,25 L131.568,25 L131.568,23.936 L131.512,23.936 C131.353333,24.3000018 131.082669,24.586999 130.7,24.797 C130.317331,25.007001 129.841336,25.112 129.272,25.112 C128.562663,25.112 128.007335,24.9416684 127.606,24.601 C127.204665,24.2603316 127.004,23.7866697 127.004,23.18 Z M131.498,21.514 C131.367333,21.6820008 131.134002,21.7893331 130.798,21.836 L129.622,22.046 C129.239331,22.1020003 128.959334,22.2069992 128.782,22.361 C128.604666,22.5150008 128.516,22.7366652 128.516,23.026 C128.516,23.3060014 128.609332,23.5346658 128.796,23.712 C128.982668,23.8893342 129.248665,23.978 129.594,23.978 C129.846001,23.978 130.086332,23.940667 130.315,23.866 C130.543668,23.791333 130.744332,23.6770008 130.917,23.523 C131.089668,23.3689992 131.229666,23.1776678 131.337,22.949 C131.444334,22.7203322 131.498,22.4520015 131.498,22.144 L131.498,21.514 Z M134.97,14.752 L136.482,14.752 L136.482,21.234 L139.296,18.168 L141.004,18.168 L138.456,20.912 L141.27,25 L139.506,25 L137.448,21.976 L136.482,23.026 L136.482,25 L134.97,25 L134.97,14.752 Z M142.348,14.752 L143.86,14.752 L143.86,21.234 L146.674,18.168 L148.382,18.168 L145.834,20.912 L148.648,25 L146.884,25 L144.826,21.976 L143.86,23.026 L143.86,25 L142.348,25 L142.348,14.752 Z M149.726,18.168 L151.238,18.168 L151.238,25 L149.726,25 L149.726,18.168 Z M153.296,18.168 L154.752,18.168 L154.752,19.162 L154.808,19.162 C155.200002,18.3873295 155.904662,18 156.922,18 C157.258002,18 157.582332,18.0489995 157.895,18.147 C158.207668,18.2450005 158.480665,18.4059989 158.714,18.63 C158.947335,18.8540011 159.133999,19.1479982 159.274,19.512 C159.414001,19.8760018 159.484,20.3239973 159.484,20.856 L159.484,25 L157.972,25 L157.972,21.052 C157.972,20.3706633 157.841335,19.8970013 157.58,19.631 C157.318665,19.3649987 156.964002,19.232 156.516,19.232 C156.030664,19.232 155.624668,19.4256647 155.298,19.813 C154.971332,20.2003353 154.808,20.7393299 154.808,21.43 L154.808,25 L153.296,25 L153.296,18.168 Z M160.954,21.64 C160.954,21.0706638 161.035666,20.5620022 161.199,20.114 C161.362334,19.6659978 161.588665,19.2856682 161.878,18.973 C162.167335,18.6603318 162.503331,18.4200008 162.886,18.252 C163.268669,18.0839992 163.679331,18 164.118,18 C164.612669,18 165.041998,18.0933324 165.406,18.28 C165.770002,18.4666676 166.059332,18.7699979 166.274,19.19 L166.33,19.19 C166.292666,18.7419978 166.271667,18.3056688 166.267,17.881 C166.262333,17.4563312 166.26,17.1273345 166.26,16.894 L166.26,14.752 L167.772,14.752 L167.772,25 L166.33,25 L166.33,23.978 L166.274,23.978 C166.059332,24.3980021 165.753669,24.7013324 165.357,24.888 C164.960331,25.0746676 164.510003,25.168 164.006,25.168 C163.576665,25.168 163.175335,25.0910008 162.802,24.937 C162.428665,24.7829992 162.106668,24.5566682 161.836,24.258 C161.565332,23.9593318 161.350667,23.5906689 161.192,23.152 C161.033333,22.7133311 160.954,22.2093362 160.954,21.64 Z M162.522,21.64 C162.522,22.3960038 162.699332,22.969998 163.054,23.362 C163.408668,23.754002 163.851997,23.95 164.384,23.95 C164.925336,23.95 165.373332,23.7446687 165.728,23.334 C166.082668,22.9233313 166.26,22.3400038 166.26,21.584 C166.26,20.8279962 166.082668,20.2446687 165.728,19.834 C165.373332,19.4233313 164.925336,19.218 164.384,19.218 C164.113332,19.218 163.866001,19.2739994 163.642,19.386 C163.417999,19.4980006 163.222001,19.658999 163.054,19.869 C162.885999,20.0790011 162.755334,20.3333318 162.662,20.632 C162.568666,20.9306682 162.522,21.2666648 162.522,21.64 Z M169.438,23.18 C169.438,22.5733303 169.612998,22.1066683 169.963,21.78 C170.313002,21.4533317 170.879996,21.2293339 171.664,21.108 L173.05,20.884 C173.227334,20.8559999 173.374333,20.8303334 173.491,20.807 C173.607667,20.7836665 173.698666,20.7533335 173.764,20.716 C173.829334,20.6786665 173.873667,20.6273337 173.897,20.562 C173.920333,20.4966663 173.932,20.4126672 173.932,20.31 C173.932,19.9833317 173.822334,19.7056678 173.603,19.477 C173.383666,19.2483322 173.045336,19.134 172.588,19.134 C172.130664,19.134 171.783001,19.2459989 171.545,19.47 C171.306999,19.6940011 171.174,19.9833316 171.146,20.338 L169.704,20.338 C169.750667,19.6286631 170.025997,19.0616688 170.53,18.637 C171.034003,18.2123312 171.719996,18 172.588,18 C173.549338,18 174.265664,18.2193311 174.737,18.658 C175.208336,19.0966689 175.444,19.7173293 175.444,20.52 L175.444,25 L174.002,25 L174.002,23.936 L173.946,23.936 C173.787333,24.3000018 173.516669,24.586999 173.134,24.797 C172.751331,25.007001 172.275336,25.112 171.706,25.112 C170.996663,25.112 170.441335,24.9416684 170.04,24.601 C169.638665,24.2603316 169.438,23.7866697 169.438,23.18 Z M173.932,21.514 C173.801333,21.6820008 173.568002,21.7893331 173.232,21.836 L172.056,22.046 C171.673331,22.1020003 171.393334,22.2069992 171.216,22.361 C171.038666,22.5150008 170.95,22.7366652 170.95,23.026 C170.95,23.3060014 171.043332,23.5346658 171.23,23.712 C171.416668,23.8893342 171.682665,23.978 172.028,23.978 C172.280001,23.978 172.520332,23.940667 172.749,23.866 C172.977668,23.791333 173.178332,23.6770008 173.351,23.523 C173.523668,23.3689992 173.663666,23.1776678 173.771,22.949 C173.878334,22.7203322 173.932,22.4520015 173.932,22.144 L173.932,21.514 Z" id="Hakkında" fill="#18191A" fill-rule="nonzero"></path>
        <rect id="divider" fill="#D4D7D8" x="103" y="1" width="1" height="38"></rect>
        <path d="M49.64,21.276 L46.154,15.368 L47.946,15.368 L50.438,19.708 L50.494,19.708 L53.084,15.368 L54.75,15.368 L51.222,21.206 L51.222,25 L49.64,25 L49.64,21.276 Z M55.548,23.18 C55.548,22.5733303 55.7229983,22.1066683 56.073,21.78 C56.4230017,21.4533317 56.9899961,21.2293339 57.774,21.108 L59.16,20.884 C59.3373342,20.8559999 59.4843328,20.8303334 59.601,20.807 C59.7176673,20.7836665 59.8086663,20.7533335 59.874,20.716 C59.9393337,20.6786665 59.9836666,20.6273337 60.007,20.562 C60.0303335,20.4966663 60.042,20.4126672 60.042,20.31 C60.042,19.9833317 59.9323344,19.7056678 59.713,19.477 C59.4936656,19.2483322 59.1553356,19.134 58.698,19.134 C58.2406644,19.134 57.8930012,19.2459989 57.655,19.47 C57.4169988,19.6940011 57.2840001,19.9833316 57.256,20.338 L55.814,20.338 C55.8606669,19.6286631 56.1359975,19.0616688 56.64,18.637 C57.1440025,18.2123312 57.8299957,18 58.698,18 C59.6593381,18 60.3756643,18.2193311 60.847,18.658 C61.3183357,19.0966689 61.554,19.7173293 61.554,20.52 L61.554,25 L60.112,25 L60.112,23.936 L60.056,23.936 C59.8973325,24.3000018 59.6266686,24.586999 59.244,24.797 C58.8613314,25.007001 58.3853362,25.112 57.816,25.112 C57.1066631,25.112 56.5513353,24.9416684 56.15,24.601 C55.7486647,24.2603316 55.548,23.7866697 55.548,23.18 Z M60.042,21.514 C59.9113327,21.6820008 59.6780017,21.7893331 59.342,21.836 L58.166,22.046 C57.7833314,22.1020003 57.5033342,22.2069992 57.326,22.361 C57.1486658,22.5150008 57.06,22.7366652 57.06,23.026 C57.06,23.3060014 57.1533324,23.5346658 57.34,23.712 C57.5266676,23.8893342 57.7926649,23.978 58.138,23.978 C58.3900013,23.978 58.6303322,23.940667 58.859,23.866 C59.0876678,23.791333 59.2883325,23.6770008 59.461,23.523 C59.6336675,23.3689992 59.7736661,23.1776678 59.881,22.949 C59.9883339,22.7203322 60.042,22.4520015 60.042,22.144 L60.042,21.514 Z M63.514,18.168 L64.97,18.168 L64.97,19.162 L65.012,19.162 C65.1800008,18.7979982 65.4133318,18.5133344 65.712,18.308 C66.0106682,18.1026656 66.3793311,18 66.818,18 C66.9580007,18 67.1073325,18.0163332 67.266,18.049 C67.4246675,18.0816668 67.5926658,18.1586661 67.77,18.28 L67.378,19.624 C67.0793318,19.4746659 66.7993346,19.4 66.538,19.4 C66.2859987,19.4 66.0643343,19.4583328 65.873,19.575 C65.6816657,19.6916673 65.5230006,19.847999 65.397,20.044 C65.2709994,20.240001 65.177667,20.4709987 65.117,20.737 C65.056333,21.0030013 65.026,21.2853318 65.026,21.584 L65.026,25 L63.514,25 L63.514,18.168 Z M68.316,21.64 C68.316,21.0706638 68.3976659,20.5620022 68.561,20.114 C68.7243342,19.6659978 68.9506652,19.2856682 69.24,18.973 C69.5293348,18.6603318 69.8653314,18.4200008 70.248,18.252 C70.6306686,18.0839992 71.0413311,18 71.48,18 C71.9746691,18 72.4039982,18.0933324 72.768,18.28 C73.1320018,18.4666676 73.4213323,18.7699979 73.636,19.19 L73.692,19.19 C73.6546665,18.7419978 73.6336667,18.3056688 73.629,17.881 C73.6243333,17.4563312 73.622,17.1273345 73.622,16.894 L73.622,14.752 L75.134,14.752 L75.134,25 L73.692,25 L73.692,23.978 L73.636,23.978 C73.4213323,24.3980021 73.1156687,24.7013324 72.719,24.888 C72.3223313,25.0746676 71.8720025,25.168 71.368,25.168 C70.9386645,25.168 70.5373352,25.0910008 70.164,24.937 C69.7906648,24.7829992 69.468668,24.5566682 69.198,24.258 C68.927332,23.9593318 68.7126675,23.5906689 68.554,23.152 C68.3953325,22.7133311 68.316,22.2093362 68.316,21.64 Z M69.884,21.64 C69.884,22.3960038 70.0613316,22.969998 70.416,23.362 C70.7706684,23.754002 71.2139973,23.95 71.746,23.95 C72.287336,23.95 72.7353316,23.7446687 73.09,23.334 C73.4446684,22.9233313 73.622,22.3400038 73.622,21.584 C73.622,20.8279962 73.4446684,20.2446687 73.09,19.834 C72.7353316,19.4233313 72.287336,19.218 71.746,19.218 C71.475332,19.218 71.2280011,19.2739994 71.004,19.386 C70.7799989,19.4980006 70.5840008,19.658999 70.416,19.869 C70.2479992,20.0790011 70.1173338,20.3333318 70.024,20.632 C69.9306662,20.9306682 69.884,21.2666648 69.884,21.64 Z M77.192,18.168 L78.704,18.168 L78.704,25 L77.192,25 L77.192,18.168 Z M80.762,18.168 L82.218,18.168 L82.218,19.162 L82.274,19.162 C82.470001,18.769998 82.7453316,18.4783343 83.1,18.287 C83.4546684,18.0956657 83.8699976,18 84.346,18 C84.8220024,18 85.2536647,18.1026656 85.641,18.308 C86.0283353,18.5133344 86.319999,18.8633309 86.516,19.358 C86.7586679,18.8633309 87.075998,18.5133344 87.468,18.308 C87.860002,18.1026656 88.3079975,18 88.812,18 C89.1480017,18 89.4629985,18.0489995 89.757,18.147 C90.0510015,18.2450005 90.3076656,18.4036656 90.527,18.623 C90.7463344,18.8423344 90.9189994,19.1269982 91.045,19.477 C91.1710006,19.8270018 91.234,20.2586641 91.234,20.772 L91.234,25 L89.722,25 L89.722,20.954 C89.722,20.3193302 89.6100011,19.8736679 89.386,19.617 C89.1619989,19.3603321 88.8353355,19.232 88.406,19.232 C87.9486644,19.232 87.5590016,19.4233314 87.237,19.806 C86.9149984,20.1886686 86.754,20.7206633 86.754,21.402 L86.754,25 L85.242,25 L85.242,20.954 C85.242,20.3193302 85.1253345,19.8736679 84.892,19.617 C84.6586655,19.3603321 84.3366687,19.232 83.926,19.232 C83.4686644,19.232 83.0790016,19.4233314 82.757,19.806 C82.4349984,20.1886686 82.274,20.7253299 82.274,21.416 L82.274,25 L80.762,25 L80.762,18.168 Z" id="Yardım" fill="#18191A" fill-rule="nonzero"></path>
    </g>
</svg>